<svg width="205" height="102" viewBox="0 0 205 102" fill="none" xmlns="http://www.w3.org/2000/svg">
<path d="M138.562 90.6804C134.213 88.9201 130.355 91.3017 126.343 93.6833C119.38 97.8251 111.562 99.4042 103.615 100.466C92.3541 101.967 81.0417 101.553 69.7811 101.397C64.552 101.32 59.6595 99.223 54.8705 97.2038C50.9099 95.5212 46.9492 93.8127 43.0404 92.0783C37.889 89.8003 34.6273 85.5031 31.6244 80.9989C30.7961 79.7563 29.9677 79.0574 28.311 78.7467C17.128 76.5982 7.73123 71.7315 2.16563 61.0663C-0.837199 55.3454 -0.397143 49.5986 1.54434 43.9294C5.8415 31.3486 14.7982 23.0649 26.8613 18.0171C35.4297 14.4188 44.4641 12.3997 53.6797 11.9337C58.184 11.7008 61.8081 9.52629 65.8981 8.46495C71.9038 6.91176 78.013 6.18694 84.0446 5.04793C89.7396 3.9607 95.4605 3.0029 101.181 2.0451C116.04 -0.440001 130.899 -1.19071 145.629 2.84758C151.764 4.5302 157.666 6.85998 163.205 10.0699C165.432 11.3642 168.02 11.3383 170.428 11.882C177.184 13.461 183.216 16.5674 188.911 20.321C192.017 22.366 195.408 24.1263 198.049 26.8961C201.595 30.572 203.511 34.9727 204.184 40.0206C205.737 51.4883 200.974 60.7039 193.959 69.1687C190.697 73.1035 187.461 77.0124 183.06 79.7822C176.744 83.717 170.065 86.4609 162.532 87.0304C158.572 87.3152 154.663 88.273 150.78 89.1013C146.897 89.8521 142.988 90.1368 138.562 90.6804Z" fill="#101010"/>
<path d="M51.5054 17.344C57.278 13.1504 63.8532 10.743 70.7649 9.44863C83.5269 7.06707 96.3407 4.86672 109.18 3.0029C116.299 1.96744 123.547 1.39794 130.77 2.40751C130.822 3.49474 129.786 3.5724 129.217 4.11602C126.188 5.61743 122.719 5.51388 119.587 6.627C119.328 6.70466 119.043 6.75644 118.758 6.78233C115.445 6.80821 112.132 6.98942 108.844 7.37771C107.99 7.45537 107.135 7.30005 106.307 7.61069C105.608 7.84367 104.857 7.86956 104.133 7.86956C103.9 7.86956 103.641 7.86956 103.408 7.86956C102.683 7.84367 101.984 7.9731 101.285 8.07665C100.353 8.18019 99.3953 8.33551 98.4634 8.41317C96.962 8.82735 95.4347 9.18976 93.8815 9.21565C93.0532 9.1121 92.2507 9.26742 91.4482 9.42274C90.4127 9.42274 89.6361 10.0181 88.756 10.4323C88.0571 10.5876 87.3064 10.2252 86.6333 10.6135C86.4003 10.6912 86.1674 10.7171 85.9344 10.7171C84.4588 10.5359 83.1904 11.416 81.7925 11.5713C81.0677 11.6231 80.3688 11.8043 79.6698 12.0114C78.9709 12.1667 78.2461 12.322 77.573 12.5809C76.9777 12.7103 76.4082 12.9692 75.8387 13.1763C74.4926 13.7717 72.9394 13.5128 71.6709 14.3671C71.3344 14.5224 70.972 14.5742 70.6096 14.6C69.4706 14.4188 68.5128 14.8071 67.6068 15.4025C66.0794 15.2731 64.7074 15.8944 63.2837 16.2568C63.0507 16.2568 62.8177 16.2827 62.5589 16.2827C62.7919 16.2827 63.0248 16.2827 63.2837 16.2568C64.8887 15.6096 66.6489 15.6873 68.228 15.0401C68.694 14.8848 69.1858 14.7036 69.6777 14.9107C71.1273 16.9557 72.3181 19.1302 73.6642 21.227C74.0784 22.3919 75.761 22.4436 75.9422 23.8156C74.622 25.7571 72.3181 26.2231 70.506 27.4139C70.2989 27.5692 70.1177 27.6986 69.9106 27.828C67.555 29.433 65.044 30.7532 62.6365 32.2805C62.2223 32.5135 61.7823 32.7465 61.394 33.0312C60.6174 33.5748 59.789 34.0408 59.0383 34.6362C58.3394 35.1798 58.2876 35.7493 58.9865 36.3447C62.1965 38.8039 63.8791 38.6486 67.788 35.4387C67.9692 35.2575 68.1504 35.1021 68.3575 34.9468C69.4188 33.8855 70.4025 32.7724 71.4121 31.6592C72.1369 30.8568 72.9911 30.1837 74.1042 30.1319C76.0457 30.0284 77.2883 28.8635 78.5567 27.6209C79.2039 26.4561 80.1099 25.6277 81.4819 25.6536C83.1128 25.6536 84.5365 24.8511 86.1156 24.5922C90.1021 25.8089 93.5968 24.0745 97.1432 22.6766C100.353 21.2011 103.874 21.3564 107.239 20.7351C112.132 19.8291 116.791 17.9912 121.658 16.9298C122.098 16.671 122.538 16.438 123.004 16.2568C125.152 15.6614 127.327 15.7908 129.527 15.8426C130.252 15.9461 130.977 15.739 131.728 15.739C132.53 15.972 133.281 15.6355 134.057 15.5837C135.999 15.4543 137.215 16.2827 137.733 18.1465C138.018 18.8454 137.992 19.6479 138.484 20.2692C141.823 24.3334 146.302 25.7312 151.35 25.8089C152.877 25.9124 154.378 26.4043 155.724 27.0514C157.614 27.9833 159.374 27.2326 161.161 27.155C162.3 27.1032 162.092 26.4302 161.834 25.6277C161.16 23.6603 159.633 22.4178 158.261 21.0199C152.98 18.7419 148.657 14.5224 142.781 13.4093C141.875 13.2281 141.021 13.2539 140.115 13.2281C139.209 13.2022 138.199 13.3057 137.733 12.3738C137.215 11.3383 138.329 10.8206 138.743 10.0699C138.82 8.05076 136.983 5.79864 134.342 4.73729C133.773 4.50431 133.125 4.45254 132.556 4.16779C132.012 3.88304 131.158 3.65006 131.469 2.89935C131.753 2.25219 132.556 2.53694 133.151 2.74403C149.978 4.40077 164.552 10.9242 176.796 22.6248C177.417 23.2202 177.857 24.0486 178.401 24.7475C179.177 26.4302 179.126 28.2681 179.462 30.0284C179.462 30.2873 179.436 30.572 179.385 30.8309C178.737 32.4099 179.799 33.7819 180.006 35.2316C180.084 35.6199 180.084 36.0082 180.084 36.4224C180.084 37.2248 180.135 38.0273 180.109 38.8298C180.058 40.3312 179.307 41.1855 177.78 41.1337C176.874 41.1078 175.993 41.2113 175.113 41.289C170.687 41.755 168.823 43.6447 168.926 48.0971C169.004 50.634 167.114 52.8085 167.865 55.3971C167.813 56.6397 167.063 57.3904 166.105 58.0376C165.639 58.3223 165.147 58.4517 164.629 58.5812C163.697 58.9436 163.464 59.8755 162.947 60.5744C162.532 61.1698 162.015 61.7911 161.212 61.5063C160.539 61.2734 160.436 60.5744 160.384 59.9532C160.073 56.5361 158.805 53.4039 157.666 50.2198C157.174 48.8479 156.423 48.123 155.025 47.9936C154.534 47.8642 154.068 47.6312 153.653 47.3206C151.634 45.0943 149.175 46.1815 146.975 46.6475C145.499 46.9581 146.328 48.589 146.224 49.6762C146.095 51.2812 146.819 53.1191 144.981 54.2581C142.626 54.1028 142.859 51.6177 141.409 50.2716C142.108 54.0769 145.007 56.8727 144.981 60.678C145.163 64.6645 144.179 68.7287 142.6 72.0421C140.788 75.7957 139.105 79.834 136.232 83.0698C133.669 86.7457 129.993 89.0755 126.214 91.2758C119.25 95.3141 111.691 97.2297 103.718 98.291C96.3149 99.2747 88.8854 99.3265 81.4819 99.7407C70.6096 100.362 60.4103 97.8769 50.7029 93.1137C49.1756 92.363 47.5965 91.7676 46.0951 91.0428C38.7692 87.4705 37.9667 86.7457 33.126 79.3939C35.0674 79.3939 36.776 79.3421 38.4845 79.3939C45.0079 79.6269 51.2206 77.9702 57.4851 76.5464C57.9252 76.4429 58.3394 76.2616 58.7277 76.0546C59.4784 75.6145 60.5139 75.2262 60.022 74.0613C59.4784 72.8187 58.65 73.8283 58.0029 74.0095C44.2571 78.2549 30.5632 79.3421 17.1799 72.8705C9.51747 69.1429 4.1072 63.3443 2.32104 54.7241C1.57033 51.0223 2.50225 47.3982 3.82246 43.9812C9.62103 28.9153 21.3994 20.9681 36.4653 17.0593C37.1125 18.4571 35.9476 18.8713 35.1451 19.4926C33.6955 20.6575 31.8575 21.2011 30.5632 22.599C29.8125 24.3851 28.6476 25.9642 27.871 27.7245C27.6898 28.1904 27.405 28.6046 27.0426 28.9411C25.8518 29.666 25.4377 30.9344 24.7905 32.0475C22.5125 33.0312 21.9689 35.5163 20.4157 37.1213C20.7263 37.3801 20.9075 36.9142 21.1923 36.966C22.8231 37.0954 22.9526 35.1539 24.2469 34.8174C25.1788 34.7138 25.6706 35.2575 25.9813 36.0082C26.3696 36.9919 25.4377 37.8202 25.6448 38.8039C25.6707 39.3475 25.6447 39.917 25.9295 40.4348C26.4731 41.3149 27.1462 42.0915 28.0263 42.6869C28.6217 43.1011 29.3206 43.2564 29.9678 43.5152C31.288 44.0071 32.2976 43.7741 32.4788 42.195C32.6082 40.9784 33.333 40.3571 34.3426 39.917C34.472 37.3025 35.7664 35.128 37.0866 32.9794C38.0703 32.177 39.4422 32.2287 40.3742 31.2968C41.0731 30.5979 42.1086 29.9248 42.1086 28.9929C42.1862 24.1521 46.5869 23.505 49.4086 21.5635C52.0749 19.7515 52.3078 20.1139 51.5054 17.344Z" fill="#FEFEFE"/>
<path d="M185.312 37.7684C185.726 38.545 186.089 39.3475 186.607 40.0464C186.943 40.4606 187.409 41.2372 188.108 40.7454C188.703 40.3312 188.496 39.684 188.237 39.0628C187.59 37.6131 187.047 36.1117 186.451 34.6362C188.005 32.177 188.859 32.1252 190.412 34.3773C190.748 34.895 190.981 35.4645 191.422 35.9305C191.706 36.3188 191.965 36.7589 192.146 37.173C192.224 37.1989 192.224 37.5355 192.302 37.3801C192.457 37.1213 192.509 36.7847 192.716 36.5259C193.907 35.7234 194.942 35.827 195.693 37.1472C195.693 39.1404 195.615 41.1596 195.9 43.1528C195.9 44.1365 195.667 45.1461 195.9 46.1298C195.796 47.1393 195.719 48.1489 195.512 49.1326C195.279 49.8315 195.175 50.5822 194.839 51.2294C194.709 51.4365 194.554 51.6177 194.373 51.773C193.777 52.1096 193.389 52.6791 193.026 53.2486C192.457 53.8181 192.561 54.4393 192.975 55.0347C193.285 56.2514 194.01 57.1833 194.968 57.9599C195.926 60.1085 196.728 62.1794 194.45 64.1468C193.596 64.8716 193.285 66.14 192.871 67.2014C191.939 69.0393 190.567 70.5148 189.04 71.8868C188.289 71.8092 187.849 71.2138 187.28 70.7996C186.141 70.5148 184.199 71.6021 184.147 69.5053C184.096 67.8485 185.597 67.3049 187.176 67.4085C186.995 66.3471 186.684 65.4152 186.555 64.4574C186.503 63.9397 186.607 63.4737 186.865 63.0078C187.409 62.3865 187.953 61.7393 188.263 60.9368C188.833 60.1602 189.402 59.3836 189.765 58.5294C189.739 58.5553 189.868 58.3741 189.868 58.3741C189.868 58.3741 189.817 58.4259 189.817 58.4517C189.351 59.306 188.911 60.1085 188.315 60.8333C187.875 61.7393 187.409 62.6195 186.451 63.0595C186.218 63.1631 185.959 63.2149 185.727 63.2666C183.293 64.095 182.698 65.1822 183.656 67.2273C184.044 68.0297 184.329 68.8063 183.474 69.3499C182.568 69.9453 181.74 69.4535 181.145 68.6769C180.523 67.9003 180.213 66.9425 179.98 65.9847C179.902 65.5964 179.902 65.234 179.98 64.8457C181.067 62.2312 181.481 59.4354 182.284 56.7173C182.206 55.3195 182.801 54.0252 182.879 52.6014C182.491 54.1028 182.439 55.5783 181.947 56.9762C181.688 57.2868 181.378 57.4939 180.963 57.4422C180.161 56.562 179.281 55.8372 178.038 55.656C177.65 55.0865 177.624 54.4652 177.702 53.8181C177.753 53.378 177.909 52.9379 177.883 52.5237C177.857 52.2649 179.255 51.6436 177.728 51.6695C177.469 51.6695 177.236 51.4624 176.977 51.4106C175.165 51.0482 176.692 48.4078 174.984 48.2525C172.55 48.0454 173.405 46.4663 173.353 45.172C173.327 44.8096 173.016 44.5766 172.731 44.3695C172.214 44.0071 171.644 43.7223 171.204 43.3081C170.195 42.3503 170.661 41.522 171.774 41.4961C174.673 41.4443 177.624 40.5124 180.497 41.755C181.015 41.9362 181.455 42.2209 181.688 42.7386C181.844 43.0752 181.714 43.8259 182.439 43.2305C182.698 42.9975 183.371 44.8613 183.578 42.7904C183.681 41.289 184.536 39.3734 185.312 37.7684Z" fill="#F3E4CF"/>
<path d="M144.36 54.0511C146.405 52.7826 144.904 50.7894 145.37 49.2103C146.69 46.1298 148.709 45.5344 152.1 47.1135C152.488 47.8124 152.307 48.589 152.359 49.3397C152.333 49.8316 152.462 50.2975 152.54 50.7635C152.411 51.7989 153.084 52.7826 152.747 53.8181C152.462 54.4652 152.851 55.0606 152.825 55.6819C152.773 56.6397 152.566 57.5457 152.566 58.5035C152.462 59.6166 151.971 60.678 152.074 61.817C151.867 62.4124 151.789 63.0337 151.712 63.6549C151.375 64.6386 150.521 65.4152 150.599 66.3212C150.728 65.8553 150.858 65.1564 151.272 64.5868C151.893 63.9397 151.66 63.0078 152.022 62.2571C152.048 60.8333 152.566 59.4872 152.618 58.0893C152.592 57.4681 152.825 56.8727 152.799 56.2514C152.825 54.75 153.032 53.2486 152.644 51.773C152.618 51.5401 152.592 51.3071 152.618 51.0482C152.721 50.4528 152.359 49.9092 152.359 49.3138C152.359 48.6926 152.255 48.0713 152.67 47.5277C154.067 47.0099 155.103 48.0713 155.517 48.8738C156.604 50.867 158.391 52.5238 158.546 54.9571C158.623 55.1901 158.675 55.423 158.701 55.656C158.701 56.4844 158.572 57.2869 158.572 58.1152C158.365 59.1766 158.572 60.3156 158.08 61.351C157.717 61.9723 157.303 62.5936 157.07 63.2666C156.449 64.4315 155.569 65.467 155.077 66.606C155.854 65.7 155.957 64.0432 157.666 63.8879C158.934 64.3021 159.064 65.8035 160.099 66.4507C160.72 68.5216 158.339 69.3241 158.158 71.0585C157.925 71.4985 157.536 71.8092 157.252 72.1975C156.967 72.5858 156.682 72.9741 156.397 73.3883C155.336 74.2943 155.517 76.4946 153.394 76.2358C152.618 75.6145 152.54 74.1907 151.168 74.1649C150.78 77.6595 150.107 78.0996 146.509 77.0383C145.603 76.7794 144.541 76.7794 143.791 76.0546C144.282 74.9673 144.8 73.906 145.292 72.8188C147.026 72.1716 147.13 71.0067 146.301 69.5571C146.327 66.6837 147.648 63.8103 146.509 60.911C145.162 58.8918 143.894 56.7691 144.36 54.0511Z" fill="#F2E3CF"/>
<path d="M178.271 55.656C180.316 54.5429 180.653 55.9925 181.041 57.4422C181.844 59.8496 180.782 62.05 180.213 64.2762C179.643 65.234 179.255 66.2695 178.556 67.1496C178.297 67.4343 177.987 67.6414 177.572 67.6673C176.641 67.6156 176.511 66.1141 175.45 66.4507C174.984 66.606 175.061 67.1755 175.087 67.6156C175.191 68.9617 175.89 69.6865 177.236 69.8159C179.514 71.4209 179.695 71.9904 178.349 74.3202C177.987 74.9673 177.78 75.5886 177.754 76.2358C178.763 73.7248 179.074 73.4659 180.808 73.8024C181.455 76.4687 180.161 78.3843 178.323 80.0669C175.942 81.4648 173.534 82.8109 170.713 83.1216C169.988 83.1216 169.159 83.3545 168.59 83.0957C166.079 81.9308 164.267 82.8368 162.688 84.7783C161.859 85.4513 160.902 85.3219 159.944 85.2442C158.468 84.9336 158.183 84.0535 158.701 82.7074C159.322 81.1024 160.487 79.8857 161.497 78.5655C162.222 77.7631 163.024 77.2194 164.137 77.8666C164.344 77.996 164.5 78.1772 164.629 78.3584C164.966 78.8762 165.018 79.6269 165.82 79.7304C166.027 79.7563 166.234 79.8081 166.415 79.834C167.037 79.9375 167.684 79.4974 168.305 79.8599C170.091 80.3258 171.903 79.1609 171.981 77.3748C172.11 74.5272 173.042 71.5244 170.298 69.2464C169.806 68.8322 170.247 68.2368 170.505 67.7709C170.946 67.0719 171.386 66.373 171.826 65.7C172.084 65.3117 172.318 64.9234 172.576 64.5609C172.913 64.095 173.301 63.7067 173.767 63.3702C174.207 63.0595 174.596 62.6971 174.725 62.1535C174.958 61.3769 175.269 60.6262 175.683 59.9273C175.967 59.4613 176.33 59.0471 176.563 58.5553C176.796 58.0376 176.485 57.5457 176.459 57.028C176.666 56.122 177.469 55.8631 178.271 55.656Z" fill="#F5EBDC"/>
<path d="M192.353 25.2135C201.569 29.7177 204.675 43.3082 200.974 51.9025C200.844 52.2131 200.844 52.6014 200.767 52.9379C199.524 52.7308 199.576 51.6954 199.576 50.867C199.576 48.0972 198.773 45.3791 198.955 42.6092C199.136 39.5805 197.841 37.1472 195.615 35.361C192.897 33.2124 192.794 29.899 191.422 27.1809C191.059 26.4043 191.499 25.6018 192.353 25.2135Z" fill="#FDFDFD"/>
<path d="M162.092 78.8503C161.212 80.0928 160.358 81.3354 159.478 82.5779C158.675 83.6652 158.882 84.5194 159.944 85.2701C156.345 85.9691 152.773 86.668 149.175 87.3669C148.761 85.9432 149.77 84.9854 150.314 83.8723C150.961 83.1474 151.168 81.8013 152.618 82.112C152.747 82.1379 152.773 82.0602 152.67 81.9826C150.987 80.6106 151.764 80.2999 153.394 80.0928C155.854 79.8081 156.19 79.135 155.232 76.8053C154.948 75.5109 155.698 74.6567 156.449 73.8024C156.76 73.4141 157.044 73.0258 157.329 72.6375C157.64 72.2492 157.925 71.8351 158.416 71.6797C158.675 71.6538 158.908 71.7315 159.115 71.8609C159.918 72.5858 160.668 73.3624 161.134 74.346C161.756 75.6404 161.29 76.3652 159.685 76.417C161.73 76.1322 163.179 76.3652 162.092 78.8503Z" fill="#F3E6D2"/>
<path d="M192.354 25.2135C192.043 25.9642 191.706 26.6373 192.198 27.4915C193.881 30.4167 194.373 33.9631 197.376 36.1635C199.498 37.7167 199.809 40.1759 199.809 42.661C199.809 46.1298 200.223 49.5468 200.767 52.9638C200.223 54.4135 199.679 55.8372 199.136 57.2869C198.256 58.0117 197.427 57.7787 196.78 57.028C196.029 56.1479 196.987 55.6042 197.401 55.0089C197.997 54.1028 199.239 53.4039 198.385 52.006C197.997 50.8929 198.411 49.6503 197.738 48.589C197.35 45.9745 197.168 43.3341 196.987 40.6677C196.858 38.9851 196.573 36.8107 194.321 35.9564C193.363 35.594 192.483 34.8692 191.603 34.2738C191.37 33.9631 191.292 33.6007 191.292 33.1866C190.982 30.6756 191.24 28.0351 189.558 25.8607C188.031 24.6958 186.607 23.7898 184.536 24.9546C183.216 25.7054 182.232 23.4532 180.731 23.9451C180.083 23.1944 179.41 22.4437 178.763 21.6929C180.989 20.6316 183.19 21.5376 185.39 21.7706C186.063 21.8483 186.71 22.133 187.409 21.8224C189.066 22.9614 190.723 24.0745 192.354 25.2135Z" fill="#FBF8F4"/>
<path d="M155.543 76.5205C157.614 76.8053 156.734 78.3843 156.475 79.2386C155.828 81.3354 154.016 81.0248 152.074 80.6106C152.851 81.8531 155.129 81.3354 154.585 83.484C153.317 83.4063 151.531 81.6978 150.78 84.2347C149.33 83.9758 148.062 83.5099 147.363 82.0602C146.819 80.9212 145.784 80.507 144.541 80.5588C143.402 79.9375 142.419 79.2386 143.221 77.7113C143.118 77.0382 143.635 76.65 143.894 76.1322C145.396 75.8734 146.742 76.3393 148.114 76.8829C148.89 77.1936 149.693 77.1677 150.288 76.4946C150.909 75.7698 150.495 75.278 149.822 74.7602C149.227 74.2943 149.538 73.8024 150.107 73.5436C150.728 73.2588 151.505 72.534 152.023 73.2071C152.644 74.0095 153.964 74.579 153.472 76.0028C153.524 76.8053 153.058 77.4007 152.644 78.0219C152.333 78.462 151.971 78.8503 151.686 79.2904C152.566 78.5397 153.162 77.5042 154.145 76.857C154.559 76.65 155 76.3652 155.543 76.5205Z" fill="#F5E9D8"/>
<path d="M129.734 16.3086C127.612 16.4898 125.463 16.671 123.34 16.8781C123.159 16.7486 122.978 16.5933 122.823 16.438C122.512 15.9461 122.434 15.3766 122.305 14.8071C122.176 14.1082 121.554 13.6164 121.425 12.9174C121.451 12.6586 121.528 12.4515 121.684 12.2444C123.211 10.8983 124.764 10.2252 126.887 11.2348C128.311 11.9078 129.76 11.0277 131.055 10.3547C131.676 9.68161 132.375 9.24154 133.333 9.24154C135.015 9.13799 134.523 7.63658 134.653 6.80822C134.808 5.90219 133.876 5.33268 132.893 5.17736C131.469 4.94439 130.123 4.55609 129.191 3.36531C129.734 3.02879 130.252 2.71815 130.796 2.38162C131.598 2.30396 132.427 2.12276 133.1 2.76992C132.763 2.82169 132.401 2.87347 132.064 2.95112C134.497 3.83127 136.775 4.97027 138.51 6.93765C139.364 7.92133 140.814 8.77559 139.442 10.3805C136.517 12.2703 132.97 12.4256 129.812 13.6164C129.372 13.927 128.854 14.0823 128.259 14.2117C128.699 14.9366 130.174 14.9883 129.734 16.3086Z" fill="#F7EEE2"/>
<path d="M180.756 23.9451C181.869 23.7639 183.449 21.7965 183.733 24.7217C186.4 22.9355 187.927 23.0908 190.153 25.4465C190.36 26.3525 190.05 27.1809 189.843 28.0351C189.558 28.294 189.325 28.5787 189.61 29.0188C189.972 30.0543 190.516 30.9603 190.956 31.9699C190.956 33.3936 192.302 34.7656 191.163 36.2411C190.697 36.1635 190.334 35.9823 190.179 35.4904C189.454 33.0571 188.16 32.9794 186.477 34.6103C184.846 30.9085 182.957 27.3362 180.756 23.9451Z" fill="#F4E8D8"/>
<path d="M51.5052 17.344C54.068 19.6997 53.835 21.1752 50.5215 22.0295C48.5024 22.5472 47.0527 23.6085 45.7325 25.0582C44.5935 26.3007 42.8074 26.6114 42.7038 29.2C42.5744 31.8404 39.3386 33.3936 36.9829 33.0571C38.9762 28.294 42.3155 24.5663 46.1208 21.1752C47.5964 20.5539 49.279 20.1915 49.8485 18.3795C50.2627 17.7582 50.8063 17.4217 51.5052 17.344Z" fill="#F9F3EB"/>
<path d="M143.195 77.7113C142.729 79.2386 144.774 79.2386 144.826 80.4552C145.059 80.8953 144.671 81.3872 144.852 81.7496C146.327 84.7265 144.308 86.5127 142.677 88.4542C139.959 88.7389 137.241 88.6871 134.109 88.4024C138.018 85.2701 140.684 81.5684 143.195 77.7113Z" fill="#F3E6D2"/>
<path d="M187.409 21.8483C185.286 23.505 183.034 21.7447 180.86 22.0812C180.213 22.1848 179.488 21.8483 178.789 21.7188C176.123 19.2855 173.638 16.671 170.764 14.3929C176.925 15.5837 182.258 18.5348 187.409 21.8483Z" fill="#FCFCFC"/>
<path d="M142.677 88.4542C143.221 87.2375 143.195 85.762 144.619 84.9854C145.629 84.4159 144.127 83.6393 144.541 82.9403C142.134 81.8272 144.257 81.2318 144.826 80.4811C145.913 79.7563 146.819 78.5138 147.389 81.1542C147.648 82.3708 149.589 83.2251 150.754 84.2606C150.21 85.296 149.693 86.3315 149.149 87.3669C147.001 87.7035 144.826 88.0918 142.677 88.4542Z" fill="#F7EEE2"/>
<path d="M179.333 36.2411C179.333 35.8787 179.333 35.5163 179.333 35.1798C179.592 33.6784 178.246 32.3841 178.763 30.8567C179.695 30.0284 178.737 29.3294 178.686 28.5787C178.608 27.5433 178.142 26.3784 178.815 25.3429C181.921 28.5529 183.449 32.5911 184.821 36.7071C184.743 36.7847 184.639 36.8624 184.562 36.9401C183.216 37.1989 181.74 38.5191 180.705 36.3447C180.575 36.0082 179.799 36.8883 179.333 36.2411Z" fill="#F4E8D7"/>
<path d="M25.101 38.9592C23.7549 37.7426 25.8259 37.2248 25.6447 36.267C25.7741 36.2153 25.8776 36.1894 26.0071 36.1376C26.8872 36.3706 27.4567 37.1989 28.7769 37.5872C27.1202 34.4291 29.9677 32.0475 29.5794 29.1482C29.683 28.9153 29.8383 28.7082 30.0454 28.5787C31.1067 28.6823 31.4691 29.4848 31.8574 30.3131C32.0127 31.038 31.7798 31.7628 31.7539 32.4876C31.6244 33.8078 33.1259 34.4291 33.1 35.6975C32.8152 37.1213 32.194 38.5191 32.6599 40.0206C32.6858 40.823 32.7117 41.6514 32.0904 42.2986C31.5468 42.8681 30.6666 42.9457 30.7702 42.0915C31.0549 39.8394 29.4241 40.616 28.4145 40.3571C27.2755 39.9947 26.3177 39.1922 25.101 38.9592Z" fill="#F7F0E6"/>
<path d="M198.748 51.8766C200.197 52.1613 199.861 53.0674 199.317 53.844C198.67 54.7759 197.842 55.6042 197.065 56.4844C197.583 57.2092 198.359 57.261 199.188 57.261C197.583 60.8851 195.719 64.328 192.897 67.1755C192.82 65.8035 193.13 64.561 194.036 63.4996C194.865 62.5159 196.91 61.7393 194.347 60.3156C193.648 59.9273 194.632 59.8755 194.865 59.6684C195.745 58.9436 194.942 58.6847 194.45 58.3741C193.156 56.3032 194.347 54.8794 196.029 54.1546C197.246 53.611 197.919 52.7308 198.748 51.8766Z" fill="#F7F0E5"/>
<path d="M136.18 83.1216C138.121 79.5233 138.95 75.3556 141.953 72.3269C142.962 71.3173 142.056 69.8936 142.652 68.651C143.868 66.0624 144.282 63.2407 144.36 60.3673C145.81 62.4641 144.904 64.768 144.878 66.9943C143.428 71.9904 141.797 76.9347 138.406 81.0248C137.759 81.7755 137.319 82.8368 136.18 83.1216Z" fill="#F5ECE0"/>
<path d="M144.878 66.9684C144.515 64.7681 145.421 62.49 144.36 60.3415C143.739 56.9762 141.745 54.2064 140.581 51.0741C140.322 50.3752 139.312 49.3915 140.632 48.822C141.797 48.3301 142.134 49.495 142.522 50.2198C143.195 51.4624 143.739 52.7567 144.334 54.051C145.033 56.3808 146.379 58.5035 146.534 60.9886C145.162 61.1957 145.395 62.2571 145.318 63.189C145.24 64.4574 145.784 65.8035 144.878 66.9684Z" fill="#151515"/>
<path d="M29.9678 22.2366C31.1586 20.6316 33.1 20.0621 34.6791 19.0007C35.4557 18.483 36.1546 18.0429 36.3876 17.111C38.3291 16.5156 40.2188 15.7649 42.2897 15.739C43.5323 16.4639 43.5064 16.671 41.8756 18.1206C41.6685 18.25 41.4355 18.3536 41.2025 18.4571C39.9341 19.0525 37.5525 18.5348 38.3809 21.2529C38.4585 21.6412 38.4068 22.0036 38.1997 22.3401C37.7337 22.8319 37.1642 23.0908 36.4653 22.9355C35.8181 22.1848 35.1968 21.2787 34.2132 22.5213C33.6437 22.9355 33.0224 23.2979 32.4529 23.6862C32.1422 23.8933 31.8316 24.0227 31.4433 24.0745C31.1844 24.0486 30.9773 23.9709 30.7961 23.8156C30.3561 23.3756 30.1231 22.8319 29.9678 22.2366Z" fill="#F5EDE2"/>
<path d="M178.323 80.0928C179.126 77.9184 180.42 75.8992 180.42 73.4659C180.446 73.207 180.498 72.9482 180.601 72.6893C182.18 68.6251 182.18 68.6251 185.675 71.0585C185.882 71.2397 186.011 71.6539 185.856 71.7315C183.552 72.7152 183.371 74.7861 183.164 76.857C181.844 78.3326 180.084 79.2386 178.323 80.0928Z" fill="#F8F2E9"/>
<path d="M185.312 37.7684C185.364 39.5028 186.374 41.2631 184.018 42.6351C182.931 43.2564 184.665 44.5766 184.872 45.7933C183.138 46.1039 183.915 43.7223 182.206 43.9553C181.999 44.2401 182.568 45.3791 181.507 45.7156C180.032 44.9131 182.465 42.8163 180.42 42.195C181.274 39.9947 182.387 37.9755 184.614 36.8365C184.691 36.7848 184.769 36.7589 184.846 36.7071C185.312 36.9142 185.312 37.3543 185.312 37.7684Z" fill="#F4E8D7"/>
<path d="M28.3626 40.0465C29.2428 39.2181 30.4853 40.2535 31.3655 39.4511C32.1162 40.4089 30.7701 41.289 31.2878 42.2468C32.2456 41.8067 31.8832 40.5642 32.6598 40.0465C33.2034 40.0206 33.7211 39.9947 34.2647 39.9688C33.7729 40.6677 33.2552 41.289 33.1516 42.2727C32.8669 44.8613 31.9091 45.3014 29.424 44.1365C28.725 43.8 27.7931 44.0589 27.2754 43.2823C28.0002 42.5833 28.3885 41.755 28.1038 40.7195C28.1038 40.4606 28.2073 40.2277 28.3626 40.0465Z" fill="#FAF7F2"/>
<path d="M40.1412 23.8415C38.355 26.5337 36.5947 29.2518 34.8086 31.944C33.6954 32.1511 33.3848 31.4004 33.1777 30.5461C33.0483 28.7082 34.3426 27.5433 35.1969 26.1713C35.611 25.6277 35.3781 24.877 35.7922 24.3075C36.3876 23.971 37.0607 23.7639 37.6561 23.4273C38.0185 23.2979 38.3809 23.2202 38.7692 23.2202C39.3128 23.2461 39.8047 23.4273 40.1412 23.8415Z" fill="#EADFD0"/>
<path d="M183.164 76.8311C181.973 73.7765 182.75 72.1716 185.805 71.2914C186.115 70.9549 186.478 70.7996 186.918 70.7737C187.772 70.9549 188.574 71.2138 188.471 72.3528C187.073 74.2425 185.002 75.4074 183.164 76.8311Z" fill="#F9F7F6"/>
<path d="M40.1412 23.8415C39.5717 23.8415 39.0022 23.8156 38.4586 23.8156C38.2256 23.4791 38.2256 23.1167 38.355 22.7543C38.4844 22.5472 38.6398 22.366 38.8469 22.1848C39.6235 21.6153 40.2965 20.9163 40.9695 20.2174C41.6944 19.3632 42.8593 18.8713 43.2217 17.6805C43.5064 16.9039 43.3252 16.1015 43.4805 15.3249C44.5678 15.1437 45.6291 14.9625 46.7164 14.7812C47.3376 15.299 48.3213 15.4025 48.5025 16.3603C48.2954 16.5415 48.0883 16.6968 47.8812 16.8781C47.3376 17.2405 46.4575 17.0851 46.1727 17.8876C44.1536 19.8809 42.1603 21.8741 40.1412 23.8415Z" fill="#F5EDE2"/>
<path d="M162.662 84.8042C162.403 84.7265 162.17 84.623 161.911 84.5453C162.688 83.7687 163.697 83.251 164.189 82.1897C165.121 80.1446 166.286 81.7496 167.192 82.1379C168.331 82.6038 169.677 82.2932 170.687 83.1474C168.15 84.2865 165.432 84.6748 162.662 84.8042Z" fill="#F9F7F4"/>
<path d="M33.6695 30.1319C33.7212 30.9603 34.0578 31.5816 34.8085 31.944C34.4461 33.2901 33.0223 34.1702 33.0741 35.6975C32.8929 34.2996 29.9159 34.5585 31.0808 32.3582C31.8833 31.7887 31.9351 30.7273 32.634 30.106C32.9964 29.9507 33.3329 29.9248 33.6695 30.1319Z" fill="#FBF8F4"/>
<path d="M146.379 69.6606C147.311 70.2042 148.269 70.7478 147.906 72.0939C147.492 73.6471 146.146 72.3787 145.37 72.9223C145.421 71.7315 145.836 70.6702 146.379 69.6606Z" fill="#EEE3D4"/>
<path d="M49.8744 18.3536C50.2368 20.761 49.7191 21.1493 46.1467 21.1493C47.1822 19.9585 48.4247 19.0007 49.8744 18.3536Z" fill="#ECDFCD"/>
<path d="M48.4766 16.3862C47.7518 15.9979 46.8199 15.8426 46.6904 14.8071C48.2695 14.7295 49.745 13.927 51.5053 14.2117C50.8064 15.4543 49.3567 15.532 48.4766 16.3862Z" fill="#F2F1F0"/>
<path d="M178.841 25.3429C179.126 26.6631 178.504 28.061 179.721 29.3036C180.498 30.0802 179.721 30.7014 178.789 30.8568C178.375 28.8376 178.064 26.8444 178.323 24.7734C178.504 24.9805 178.686 25.1617 178.841 25.3429Z" fill="#F9F1E7"/>
<path d="M43.4545 15.3508C44.024 16.1532 44.024 17.0593 43.9463 17.9912C43.0662 18.5607 42.186 18.7678 41.3059 17.9653C41.4612 17.1628 43.5322 17.1628 42.2896 15.7391C42.6261 15.3766 43.0144 15.2731 43.4545 15.3508Z" fill="#F4E9D9"/>
<path d="M46.1467 17.8876C45.9655 17.4217 44.9818 17.1887 45.4478 16.671C46.1985 15.8426 47.0269 16.9816 47.8811 16.8781C47.4152 17.4476 47.0528 18.1206 46.1467 17.8876Z" fill="#EADFD0"/>
<path d="M188.497 72.3528C188.186 71.6538 187.642 71.3173 186.892 71.2914C186.478 70.1265 186.84 69.79 187.979 70.2301C188.341 70.7737 188.704 71.3173 189.066 71.8609C188.859 72.0163 188.678 72.1716 188.497 72.3528Z" fill="#F8F2E9"/>
<path d="M119.483 69.1429C119.897 68.5475 120.519 68.6251 121.114 68.5993C123.78 67.0461 126.291 65.234 128.492 63.0337C128.725 62.9301 128.958 62.9301 129.216 62.9819C131.313 64.095 131.546 65.4152 130.252 68.7287C130.123 69.0652 129.89 69.3241 129.631 69.5829C128.543 70.4372 127.275 70.9549 126.136 71.7056C123.573 72.8187 121.606 74.5273 120.7 77.2453C120.493 77.8407 120.027 78.2808 119.716 78.8244C118.525 80.0928 117.179 81.1801 115.963 82.3967C115.108 83.0698 114.591 84.4418 113.115 83.7428C112.597 82.9921 111.95 83.2251 111.251 83.4581C110.112 83.8464 109.206 83.6393 108.663 82.4485C107.964 81.9049 107.135 82.4744 106.41 82.1638C104.495 80.4811 106.203 79.2386 106.928 77.8666C107.135 77.5301 107.446 77.323 107.808 77.1936C109.18 77.09 110.397 75.951 111.898 76.4946C112.339 76.9865 112.08 77.4524 111.795 77.8925C111.277 78.5656 110.785 79.2904 110.035 79.7304C110.759 79.4457 111.148 78.7726 111.614 78.229C112.106 77.7372 112.701 77.3748 113.089 76.7794C113.581 76.2099 113.245 75.8734 112.701 75.6404C111.769 74.5014 111.691 73.0517 113.296 73.0776C116.377 73.1294 117.386 70.3854 119.483 69.1429Z" fill="#F3E5D0"/>
<path d="M184.614 36.8365C182.983 38.4415 182.75 41.1337 180.42 42.195C177.34 41.289 174.259 42.0656 171.075 42.3245C171.852 42.8163 172.628 43.3081 173.405 43.8C174.156 45.1461 172.965 45.5603 172.214 45.9486C170.428 46.8546 169.185 47.8124 170.35 50.0386C170.557 50.4269 170.609 51.0741 170.221 51.2553C168.435 52.1095 168.59 54.051 167.788 55.4489C167.684 55.5266 167.58 55.6042 167.477 55.656C166.752 55.0347 166.778 54.1028 166.985 53.4298C168.098 49.9351 167.943 46.1557 169.392 42.7128C169.807 41.7291 170.402 41.1078 171.567 41.0819C173.69 41.0042 175.709 40.15 177.883 40.4865C179.152 40.6936 179.333 39.8652 179.359 38.8557C179.385 37.9755 178.815 37.1213 179.359 36.2411C180.058 36.267 180.731 35.0504 181.507 36.3964C181.999 37.2507 182.983 37.9755 183.319 36.0599C183.397 35.6199 183.708 35.7234 184.614 36.8365Z" fill="#F9F1E7"/>
<path d="M70.5319 14.1341C70.7649 14.1341 70.972 14.1341 71.205 14.1341C72.6028 13.5128 74.2337 13.7976 75.6057 13.1245C76.0975 13.0727 76.5893 12.9433 77.0812 12.8398C78.039 12.6327 78.945 12.2185 79.9028 12.0114C80.1358 11.9596 80.3688 11.882 80.6018 11.8302C81.922 11.649 83.2422 11.4678 84.4847 10.9759C85.2095 10.6912 85.9861 11.0018 86.711 10.6912C87.4099 10.6135 87.9794 10.8724 88.4195 11.3901C89.0666 13.5128 87.4876 13.9529 86.0897 14.1082C83.1645 14.4447 80.6277 15.7391 78.0649 16.9557C77.3142 17.3181 76.6411 17.4734 75.761 17.2922C73.6901 16.8263 73.2759 17.3699 73.7936 19.5185C73.9748 20.2692 74.6479 20.9422 74.156 21.8224C73.7677 22.0295 73.4053 21.9777 73.0947 21.6671C71.6709 20.2692 71.5933 17.9912 69.7294 16.8522C69.0823 16.4639 69.6518 15.7391 69.8589 15.1696C69.6777 14.5742 69.9624 14.2635 70.5319 14.1341Z" fill="#F3E7D6"/>
<path d="M86.0379 24.9546C84.6918 25.783 83.3975 26.7149 81.6372 26.3784C80.2394 26.1195 79.644 27.2068 79.0486 28.1904C76.5376 29.2518 74.1302 30.5461 71.3862 30.9603C70.6873 29.7436 69.9624 28.5528 69.8848 27.1032C71.8521 26.016 73.8195 24.9287 75.7869 23.8415C76.0975 23.272 75.7092 23.1426 75.2951 23.039C74.7255 22.9096 74.389 22.6507 74.7255 22.0036C75.1138 21.6153 75.6057 21.3823 76.0975 21.1493C77.0553 20.6834 78.0131 20.528 78.8156 21.4082C79.5663 22.2365 78.7379 22.8837 78.4791 23.5826C78.0131 24.9029 77.3918 26.0677 75.761 26.1972C76.9 26.1713 77.7025 25.6794 78.5309 24.877C81.3784 22.0295 82.4397 22.0295 86.1415 24.5663C86.0897 24.6958 86.0638 24.8252 86.0379 24.9546Z" fill="#F5EAD9"/>
<path d="M178.271 55.656C178.375 56.8468 176.718 56.1996 176.641 57.2092C177.055 57.7269 176.744 58.1152 176.434 58.5294C176.252 58.7106 176.071 58.8401 175.838 58.9695C175.191 59.306 174.544 59.6684 173.767 59.6425C172.732 59.306 173.094 57.9599 172.24 57.494C171.8 57.2092 171.386 56.9244 170.816 57.0539C170.169 57.2351 169.729 57.7269 169.237 58.167C168.176 58.8918 167.114 58.6588 166.079 58.1152C166.001 58.0117 165.924 57.9081 165.846 57.8305C166.39 57.1057 166.907 56.4067 167.451 55.6819H167.477C168.253 55.3195 168.745 54.75 168.771 53.8181C168.797 52.912 168.926 51.9543 170.014 51.7213C171.101 51.4883 170.868 52.9638 171.67 53.1709C171.826 51.5142 171.619 50.0645 174.363 51.0223C176.045 51.5918 177.288 52.1354 178.246 53.5333C178.246 54.2323 178.271 54.9312 178.271 55.656Z" fill="#F8F1E6"/>
<path d="M129.191 13.0727C132.53 11.9078 135.947 11.0018 139.442 10.3805C139.002 10.9242 138.536 11.4419 138.07 12.0114C139.545 13.5646 141.383 12.1926 143.092 12.6068C145.189 13.0986 147.026 14.0046 148.813 14.9107C152.256 16.6192 155.517 18.6901 158.857 20.6316C158.675 20.8387 158.468 20.994 158.261 21.1234C156.294 21.9 154.585 21.3823 153.032 20.088C152.074 19.2855 151.065 18.5348 150.003 17.8876C146.431 16.0238 142.885 14.0305 138.665 14.0564C138.406 14.0823 138.173 14.0823 137.914 14.0564C135.921 14.16 133.928 14.2376 131.935 14.1859C131.184 14.0305 130.459 13.8234 129.76 13.5646C129.553 13.4351 129.346 13.2539 129.191 13.0727Z" fill="#FCF9F5"/>
<path d="M125.955 71.2914C126.732 70.1007 128.052 69.7641 129.191 69.1429C131.262 68.0039 130.252 65.4411 131.598 63.9397C131.702 63.862 131.805 63.8102 131.909 63.7326C135.792 65.3117 135.481 65.1822 132.918 68.6251C130.304 72.1716 126.809 74.3719 123.263 76.6758C122.46 75.7698 122.512 74.6049 123.47 74.1907C124.868 73.5953 125.282 72.3787 125.955 71.2914Z" fill="#F9F2E9"/>
<path d="M151.298 26.5337C145.887 26.6632 141.28 24.9546 137.811 20.6316C139.079 18.5866 140.399 18.4313 141.901 20.4245C142.962 21.8483 143.143 20.9163 143.583 20.1139C145.577 20.0621 146.379 21.7965 147.492 22.9096C148.347 23.7639 148.916 24.1263 150.133 23.9451C151.686 23.6862 153.265 23.7898 153.627 25.8607C153.058 26.8702 151.841 25.4983 151.298 26.5337Z" fill="#F6EBDB"/>
<path d="M151.298 26.5337C151.375 23.7121 152.851 26.6631 153.446 25.9901C154.87 25.2653 156.19 26.6373 157.899 26.1195C156.708 24.1781 156.216 22.2366 158.287 20.6057C158.468 20.6057 158.649 20.6057 158.831 20.6057C160.332 22.1071 161.523 23.738 162.688 25.55C164.06 27.6986 162.817 27.7763 161.497 28.0351C158.701 28.5529 155.957 28.2163 153.317 27.0514C152.695 26.7667 151.971 26.7149 151.298 26.5337Z" fill="#F9F2E9"/>
<path d="M122.201 17.4217C119.639 18.2241 117.076 19.1561 114.487 19.8291C111.329 20.6575 108.119 21.7965 104.935 21.7965C102.217 21.7965 99.9389 22.9873 97.402 23.2979C97.2208 23.0649 97.1432 22.8061 97.1949 22.5213C98.7222 20.9163 100.56 20.0362 102.838 19.9585C106.721 19.855 110.293 18.3536 113.892 17.0851C114.72 16.7745 115.574 16.6192 116.48 16.6192C117.852 16.6192 119.224 16.5674 120.596 16.6451C121.192 16.6968 121.813 16.8263 122.201 17.4217Z" fill="#F6EBDC"/>
<path d="M69.8847 27.1032C70.9201 28.1387 71.7226 29.2777 71.4896 30.8826C70.4801 31.8404 70.6354 33.7301 68.9269 34.1702C68.4609 34.4032 68.0726 34.7915 67.6584 35.1021C65.2769 36.9401 64.4226 36.8365 62.6623 34.4809C62.1705 33.8337 61.0315 33.6266 61.2127 32.4876C61.4457 32.0734 61.834 31.9699 62.274 31.944C64.5262 31.4521 66.1829 29.5883 68.5645 29.2777C69.4187 29.1741 69.1857 27.6986 69.8847 27.1032Z" fill="#F4E6D2"/>
<path d="M61.2385 32.4617C62.4034 33.0312 63.6977 33.4454 63.8531 35.0504C63.9566 35.9564 64.5002 35.7493 65.1992 35.6458C66.7265 35.4387 67.2701 33.6784 68.7974 33.5231C69.3928 34.2479 69.1598 34.9468 68.7974 35.6716C68.6162 35.6716 68.435 35.6975 68.2796 35.6975C67.1148 36.733 65.6392 37.1731 64.2931 37.8461C62.1705 38.8816 60.3584 37.8202 58.5722 36.7848C56.8637 36.1376 56.6825 35.2833 58.2875 34.2479C59.2453 33.6525 60.2548 33.083 61.2385 32.4617Z" fill="#F6ECDC"/>
<path d="M155.077 47.5794C156.371 47.3206 157.459 47.5018 157.925 48.9255C159.219 52.912 161.109 56.7432 161.057 61.2216C162.998 60.7556 162.481 58.2188 164.215 57.8046C164.5 58.0893 164.603 58.4259 164.603 58.8401C165.069 61.1957 162.947 62.2312 162.015 63.8879C161.834 64.2503 161.549 64.5351 161.212 64.768C160.85 64.9751 160.462 65.0787 160.047 64.9493C159.038 64.2503 159.038 63.2149 159.09 62.1276C159.167 59.9273 159.012 57.7528 158.313 55.656C158.442 52.472 155.906 50.3752 155.077 47.5794Z" fill="#FBF7F2"/>
<path d="M119.483 69.1429C118.94 71.4985 116.377 73.5436 113.918 73.5177C111.898 73.4918 112.597 74.6049 113.012 75.6145C113.245 75.951 113.063 76.184 112.83 76.4169C112.571 76.5982 112.261 76.7017 111.95 76.6758C110.423 76.8829 109.129 78.1255 107.472 77.7113C107.239 77.3747 107.239 77.0123 107.342 76.6499C108.093 75.3297 109.853 74.8379 110.293 73.207C113.685 72.6116 116.429 70.5148 119.483 69.1429Z" fill="#F1E5D4"/>
<path d="M129.191 3.36531C130.899 3.36531 132.245 4.55609 133.98 4.7114C135.015 4.78906 136.154 6.03162 135.377 7.58481C135.196 7.9731 134.782 8.30962 134.989 8.77558C136.283 11.649 134.471 10.1476 133.514 9.83693C131.753 8.7497 131.572 7.63658 134.135 6.34226C129.993 6.10928 126.576 6.08339 123.133 6.67878C122.486 6.75644 121.865 6.80821 121.218 6.78233C120.803 6.78233 120.415 6.70467 120.053 6.54935C119.82 6.41991 119.613 6.23871 119.483 6.00573C122.564 4.58197 126.136 4.94439 129.191 3.36531Z" fill="#F5E8D6"/>
<path d="M97.3761 22.7802C97.3761 22.9614 97.3761 23.1426 97.3761 23.3238C93.7261 24.6699 90.2573 27.4139 86.0378 24.9546V24.9288C89.4807 21.0976 94.0109 20.2433 97.3761 22.7802Z" fill="#F5E9D9"/>
<path d="M128.647 63.2149C126.913 66.1141 124.505 68.0556 121.088 68.5992C122.486 67.4861 122.02 65.6741 122.693 64.2762C124.22 63.2407 125.825 62.4383 127.715 62.4124C128.285 62.4124 128.828 62.3865 128.647 63.2149Z" fill="#F7EDDF"/>
<path d="M125.955 71.2914C125.696 72.4563 126.602 74.1648 124.169 74.2425C123.055 74.2684 123.288 75.7439 123.263 76.6758C122.124 77.3748 121.243 78.4879 119.897 78.8762C119.664 79.0315 119.535 78.9797 119.483 78.7209C119.613 77.6077 120.596 76.6499 120.104 75.4074C120.027 75.2262 120.208 74.7084 120.312 74.7084C122.693 74.346 123.263 71.0326 125.955 71.2914Z" fill="#F6EBDB"/>
<path d="M143.765 20.088C143.402 20.9422 144.826 22.1071 143.532 22.6249C142.186 23.1426 141.849 21.9259 141.409 20.8905C140.425 18.5348 139.053 20.088 137.811 20.6316C137.086 20.0362 137.345 19.2078 137.293 18.4571C137.371 18.3536 137.448 18.2759 137.526 18.1724C138.846 16.9816 140.141 15.5578 142.134 17.0593C143.014 17.8617 144.852 18.1983 143.765 20.088Z" fill="#F8EFE4"/>
<path d="M68.7974 35.6975C68.7974 34.9727 68.7974 34.2738 68.7974 33.5489C70.2988 33.2642 69.8328 30.9862 71.4896 30.8567C73.9488 29.7695 76.175 28.0869 79.0484 28.1646C77.4952 29.433 76.3303 31.0897 73.7935 30.8826C72.525 30.7791 71.6708 32.5394 70.713 33.5489C70.0399 34.2479 69.4186 34.9727 68.7974 35.6975Z" fill="#F8F0E5"/>
<path d="M25.6446 36.267C25.101 35.9305 24.8939 35.1539 24.0914 35.1798C23.9102 34.9986 23.8066 34.7915 23.8066 34.5585C24.0137 33.2124 25.2822 32.4617 25.6446 31.1933C26.0847 30.339 26.8354 29.7436 27.4308 29.0188C28.0003 28.3975 28.5439 27.7504 29.2428 27.2327C29.7088 26.9738 30.1488 26.7408 30.6407 27.155C30.9513 27.9316 30.6407 28.3976 29.9417 28.7082C29.7347 30.9862 27.7932 32.6688 28.0003 35.1539C28.1556 36.8107 26.6024 36.1894 25.6446 36.267Z" fill="#F7F0E6"/>
<path d="M26.1882 31.4004C26.1106 32.8759 24.7386 33.549 24.0655 34.6621C23.0818 34.7915 22.9006 35.5681 22.7971 36.3447C22.6418 37.4837 22.0723 37.7943 21.0368 37.3543C20.5708 37.872 20.1826 38.4674 19.6389 38.8298C19.2765 39.0628 18.7588 38.9075 18.7588 38.2603C18.7588 37.3802 23.3666 32.2029 24.3762 31.9181C24.9457 31.6333 25.4116 30.9603 26.1882 31.4004Z" fill="#B1B1B1"/>
<path d="M151.841 47.0358C150.858 47.7347 149.977 46.5957 149.02 46.8546C147.518 47.217 146.379 48.0972 145.37 49.2103C145.059 46.5957 145.732 45.4567 148.838 45.5862C150.832 45.6638 152.721 44.8096 153.99 47.0358C153.705 47.3982 153.291 47.3206 152.903 47.3464C152.488 47.4759 152.152 47.3465 151.841 47.0358Z" fill="#FAF6EF"/>
<path d="M108.119 6.85999C111.717 6.23871 115.315 5.95396 118.965 6.16106C118.732 7.48127 117.386 7.40361 116.61 8.05077C114.254 8.67204 111.872 8.51672 109.491 8.41318C109.051 8.3614 108.637 8.23197 108.274 7.99899C107.912 7.66247 107.834 7.27417 108.119 6.85999Z" fill="#9E9B98"/>
<path d="M69.8845 27.1032C69.9104 27.7763 69.3927 28.4234 69.9622 29.1482C70.4023 29.7177 69.7033 30.4685 69.4704 30.3649C66.6746 29.1224 64.9661 32.6947 62.3257 31.944C64.8367 30.3131 67.3477 28.7082 69.8845 27.1032Z" fill="#F5EAD9"/>
<path d="M152.825 47.0876C153.213 47.0617 153.602 47.0617 153.99 47.0358C154.352 47.217 154.715 47.3982 155.077 47.5794C156.708 50.0645 159.219 52.1872 158.313 55.656C156.993 52.6532 155.854 49.5209 152.954 47.5535C152.825 47.4759 152.747 47.3723 152.773 47.2429C152.773 47.1393 152.799 47.0876 152.825 47.0876Z" fill="#F6EDE0"/>
<path d="M58.5464 36.7848C62.0411 38.7263 65.0698 36.5 68.2538 35.7234C65.5875 39.1145 60.9538 40.0465 58.5464 36.7848Z" fill="#F8F0E5"/>
<path d="M129.191 13.0727C129.372 13.0727 129.553 13.0727 129.734 13.0727C130.718 13.927 133.229 14.0305 131.339 16.3085C130.796 16.1791 130.252 16.8781 129.708 16.3085C129.372 15.4802 128.647 15.066 127.845 14.9883C127.146 14.9107 126.499 14.8071 126.576 14.0046C126.68 12.8656 127.534 13.694 128.026 13.6164C128.492 13.5387 128.906 13.461 129.191 13.0727Z" fill="#F6ECDD"/>
<path d="M131.339 16.3086C132.297 14.4965 130.149 14.2118 129.734 13.0728C130.511 12.9951 131.21 13.254 131.883 13.6164C132.737 14.6259 133.954 14.4965 135.093 14.7295C137.397 15.1954 137.992 16.2568 137.293 18.4571C136.517 16.5157 135.145 15.7649 133.125 16.5415C132.452 16.8004 131.909 16.5674 131.339 16.3086Z" fill="#F7EEE2"/>
<path d="M128.647 63.2149C127.249 62.9301 125.851 62.5159 124.712 63.862C124.169 64.4833 123.392 64.2244 122.719 64.2762C125.308 61.2993 128.725 61.0922 131.909 63.7326C130.847 64.3798 130.123 63.3443 129.216 63.189C129.009 63.2149 128.828 63.2149 128.647 63.2149Z" fill="#F9F2E9"/>
<path d="M29.9676 22.2366C31.0289 22.3142 31.0548 23.0649 31.0548 23.8674C31.0807 25.4206 29.864 26.2748 29.0357 27.3362C28.4921 27.6986 27.9484 28.0351 27.2754 27.6209C28.1814 25.8348 29.0616 24.0227 29.9676 22.2366Z" fill="#F8F4EF"/>
<path d="M110.293 73.207C110.863 75.485 108.947 75.8475 107.627 76.6758C107.213 77.0123 106.825 76.9865 106.436 76.5982C107.213 74.8897 108.352 73.5953 110.293 73.207Z" fill="#A6A39F"/>
<path d="M106.54 82.0343C107.394 81.3872 108.3 80.5847 108.637 82.4744C107.42 83.2769 106.229 84.0794 105.013 84.8818C104.417 85.0631 104.081 84.7783 103.925 84.2347C104.676 83.5357 105.401 82.8109 106.152 82.112C106.229 81.8531 106.359 81.8272 106.54 82.0343Z" fill="#838382"/>
<path d="M28.3628 40.5642C29.7089 42.1433 29.3982 43.0752 27.2755 43.2564C26.5507 42.3504 25.8259 41.4702 25.1011 40.5642C26.1883 39.2957 27.2755 39.9429 28.3628 40.5642Z" fill="#F7F0E6"/>
<path d="M28.3628 40.5642C28.2851 40.9784 27.8451 41.6255 27.7156 41.3408C27.0685 40.0465 26.033 40.616 25.127 40.5901C24.5575 40.0464 25.2823 39.5028 25.127 38.9592C26.8096 37.5355 27.405 39.3475 28.3887 40.0206C28.3628 40.2018 28.3628 40.383 28.3628 40.5642Z" fill="#F6EBDB"/>
<path d="M106.54 82.0343L106.359 82.1379H106.152C105.142 81.7237 104.132 81.3095 103.123 80.9212C103.045 80.7141 103.019 80.4812 103.071 80.2482C103.226 79.8081 103.459 79.3939 103.899 79.1868C104.909 78.9797 105.686 77.9702 106.851 78.2549C107.42 78.5397 107.342 79.135 107.006 79.2904C105.582 80.0152 105.945 80.973 106.54 82.0343Z" fill="#F1E5D4"/>
<path d="M26.1883 31.4004C25.6706 31.8146 25.0493 32.0217 24.3762 31.944C24.3762 30.339 24.7386 28.9671 26.6284 28.6564C27.2496 28.4234 27.5861 28.7341 27.8191 29.2518C28.0262 30.5461 26.473 30.4943 26.1883 31.4004Z" fill="#6D6B68"/>
<path d="M119.483 78.7209C119.587 78.8244 119.716 78.9021 119.897 78.8762C119.354 80.7918 118.137 81.9567 116.144 82.2673C116.04 82.2155 115.937 82.1379 115.833 82.0861C116.713 80.5847 117.801 79.3421 119.483 78.7209Z" fill="#98948F"/>
<path d="M103.045 80.067C103.071 80.3517 103.123 80.6106 103.149 80.8953C102.139 81.6719 101.13 82.4226 100.146 83.1992C99.5246 83.484 99.0068 83.5616 99.0068 82.6297C99.7575 81.3613 101.285 80.973 102.243 79.9375C102.502 79.9116 102.812 79.834 103.045 80.067Z" fill="#6F6F6F"/>
<path d="M93.5966 8.77559C95.2275 8.43906 96.8583 8.07665 98.5151 7.74013C98.9551 8.10254 100.146 7.97311 99.447 9.11211C97.6867 10.4064 95.6934 10.277 93.6743 9.96637C93.3378 9.57807 93.3119 9.18977 93.5966 8.77559Z" fill="#C0C0BF"/>
<path d="M84.433 11.4937C83.3199 12.3738 81.922 12.2185 80.6536 12.5032C80.4206 11.6231 81.0678 11.3642 81.689 11.1054C83.1646 10.6912 84.5107 9.60395 86.1933 10.277C85.9862 11.2348 84.9507 10.9759 84.433 11.4937Z" fill="#6C6B6A"/>
<path d="M115.859 82.0861C115.988 82.112 116.092 82.1638 116.17 82.2673C116.014 84.0535 114.616 84.6489 113.27 85.3478C112.468 85.7879 112.494 85.2443 112.52 84.7006C112.701 84.39 112.908 84.0535 113.089 83.7428C114.358 83.7946 114.694 82.2414 115.859 82.0861Z" fill="#ADAAA7"/>
<path d="M21.0627 37.3543C22.5642 37.4578 22.1759 36.3188 22.2018 35.5681C22.2276 33.8596 22.8748 33.7043 24.0915 34.6879C24.0397 34.8692 24.0397 35.0245 24.1173 35.2057C23.6773 35.9564 23.289 36.733 22.823 37.4578C22.2018 38.3379 21.5805 38.3638 21.0627 37.3543Z" fill="#898989"/>
<path d="M75.8385 13.5646C74.3371 14.1859 72.8616 14.7295 71.2048 14.1341C72.2921 12.0891 74.3371 13.2798 75.8644 12.7362C76.0974 13.021 76.1233 13.3057 75.8385 13.5646Z" fill="#B4B1AE"/>
<path d="M112.494 84.7265C112.753 84.9336 113.012 85.1407 113.245 85.3737C112.054 86.2279 111.329 87.6776 109.828 88.1435C109.439 87.7293 109.439 87.3152 109.75 86.8751C110.423 85.8396 111.277 85.0372 112.494 84.7265Z" fill="#878787"/>
<path d="M106.876 78.229C105.841 78.4879 105.375 80.1446 103.925 79.3939C103.382 79.6269 103.2 79.368 103.278 78.8503C103.822 78.4879 104.365 78.1255 104.909 77.7372C105.53 77.5042 106.1 77.1677 106.514 76.6758L106.41 76.5982C106.799 76.6241 107.213 76.6499 107.601 76.6758C107.549 77.0124 107.498 77.3489 107.42 77.6854C107.265 77.8925 107.083 78.0737 106.876 78.229Z" fill="#94908B"/>
<path d="M62.7918 16.1273C64.2415 14.9883 65.8723 14.8848 67.6067 15.1954C67.8397 15.0142 68.0727 15.0142 68.2798 15.2213C66.4677 15.7391 64.8369 16.8781 62.8436 16.7227C62.7142 16.5933 62.6624 16.4639 62.7142 16.3344C62.7142 16.205 62.7659 16.1273 62.7918 16.1273Z" fill="#979797"/>
<path d="M99.0069 82.6297C99.3952 82.8109 99.7576 83.018 100.146 83.1992C98.8516 83.5875 98.2821 85.1407 96.8583 85.296C96.2888 85.4255 96.1076 85.1666 96.237 84.6489C97.1948 84.0535 97.6867 82.785 99.0069 82.6297Z" fill="#999999"/>
<path d="M96.2111 84.6489C96.4182 84.856 96.6253 85.0889 96.8324 85.296C95.9264 86.3833 94.632 86.7974 93.0789 87.2893C93.5707 85.4513 95.0721 85.2701 96.2111 84.6489Z" fill="#ADADAD"/>
<path d="M103.925 84.2606C104.288 84.4677 104.65 84.7007 105.012 84.9078C104.262 85.6843 103.433 86.3315 102.32 86.4868C101.906 86.0985 101.88 85.7102 102.217 85.2443C102.579 84.5194 103.2 84.3124 103.925 84.2606Z" fill="#B0B0B0"/>
<path d="M102.217 85.2442C102.243 85.6584 102.295 86.0726 102.32 86.4868C101.596 87.3928 100.586 87.574 99.4988 87.4705L99.5505 87.5222C99.8612 86.0467 101.026 85.6325 102.217 85.2442Z" fill="#6C6C6C"/>
<path d="M178.789 30.8568C179.851 32.177 179.695 33.6784 179.359 35.1798C179.022 33.756 177.547 32.4876 178.789 30.8568Z" fill="#F9F1E7"/>
<path d="M80.1099 12.5291C79.2038 12.8656 78.3237 13.1763 77.4177 13.5128C76.9776 13.021 76.9776 12.555 77.4177 12.0632C78.0907 11.6749 78.7897 11.416 79.5922 11.4678C80.0322 11.7008 80.3946 11.9596 80.1099 12.5291Z" fill="#93908D"/>
<path d="M27.8192 29.2518C27.4309 29.0447 27.0426 28.8376 26.6284 28.6564C26.8355 28.3199 27.0426 27.9575 27.2497 27.6209C27.7415 27.4139 28.2593 27.2326 28.7511 27.0256C29.3465 26.8961 29.6054 27.1032 29.4759 27.7245C28.9323 28.2422 28.3887 28.7341 27.8192 29.2518Z" fill="#888683"/>
<path d="M88.73 10.2511C88.8335 8.28374 90.542 9.29331 91.4222 8.80147C91.7328 9.06033 91.8364 9.37097 91.8105 9.75927C91.6552 10.4582 91.0857 10.6394 90.4903 10.7947C90.0243 10.8983 89.5842 10.9242 89.1183 10.7688C88.9112 10.6394 88.7818 10.4582 88.73 10.2511Z" fill="#878786"/>
<path d="M88.1606 11.3384C87.6429 11.2089 87.1251 11.1054 86.6074 10.9759C86.3485 10.7688 86.3485 10.5359 86.5556 10.277C87.2546 8.38729 87.9794 9.44864 88.7042 10.2511V10.3806C89.0666 11.0018 88.6783 11.183 88.1606 11.3384Z" fill="#60605F"/>
<path d="M122.201 17.4217C121.632 17.3958 121.036 17.344 120.467 17.3181C119.949 16.9816 118.784 16.9557 119.82 15.9203C121.036 15.4025 122.201 15.4025 123.237 16.3344C123.263 16.5156 123.288 16.6969 123.34 16.8781C122.952 17.0593 122.59 17.2405 122.201 17.4217Z" fill="#D2CBC0"/>
<path d="M74.7256 22.2366C75.1656 22.4695 75.6575 22.6766 76.0717 22.9614C76.7965 23.4791 76.5117 23.738 75.7869 23.8415C74.9327 23.0908 73.5089 23.0132 73.1206 21.6671C73.483 21.6671 73.8195 21.6929 74.182 21.6929C74.4926 21.7706 74.6738 21.9259 74.7256 22.2366Z" fill="#FBF7F2"/>
<path d="M99.4988 87.4446C99.1105 88.946 98.1268 88.6872 96.9878 88.3506C97.5832 86.901 98.6445 87.4705 99.5505 87.4964L99.4988 87.4446Z" fill="#8F8F8F"/>
<path d="M109.75 86.8492C109.776 87.2634 109.802 87.7035 109.828 88.1177C109.31 88.9719 108.585 89.3861 107.575 89.0496L107.627 89.1013C108.145 88.1694 108.559 87.1599 109.75 86.8492Z" fill="#707070"/>
<path d="M68.2539 15.2472C68.0209 15.2472 67.8138 15.2213 67.5808 15.2213C68.4868 14.6777 69.134 13.3575 70.5319 14.16C70.2989 14.5224 70.0918 14.8589 69.8588 15.2213C69.3411 15.1954 68.7975 15.2213 68.2539 15.2472Z" fill="#898989"/>
<path d="M91.4998 9.8887C91.4739 9.52629 91.448 9.16388 91.448 8.80147C92.1728 8.98267 92.8976 7.81778 93.6225 8.77558C93.6225 9.1121 93.5966 9.44863 93.5966 9.81104C93.493 9.8887 93.4154 9.96636 93.3118 10.0699C92.6647 10.277 92.0434 10.3805 91.4998 9.8887Z" fill="#B6B5B5"/>
<path d="M103.848 7.11885C104.728 7.09296 105.582 7.04119 106.462 7.0153C106.85 7.19651 107.161 7.45537 107.213 7.92133C106.721 8.90501 105.867 8.82736 104.987 8.64615C104.365 8.33551 103.615 8.10253 103.848 7.11885Z" fill="#A4A4A4"/>
<path d="M99.6024 8.69792C99.24 8.38728 98.8775 8.05076 98.5151 7.74012C99.4471 7.66246 100.353 7.5848 101.285 7.50714C101.466 7.76601 101.518 8.05076 101.44 8.36139C100.948 9.21565 100.327 9.34508 99.6024 8.69792Z" fill="#828281"/>
<path d="M116.843 7.4036C117.076 6.16105 118.474 6.91176 118.965 6.16105C119.147 6.10928 119.302 6.03162 119.483 5.97984C119.613 6.08339 119.768 6.10928 119.949 6.08339C119.716 7.99899 119.302 8.1802 116.843 7.4036Z" fill="#706B64"/>
<path d="M77.4177 12.0632C77.4177 12.555 77.4177 13.021 77.4177 13.5128C76.8741 13.5387 76.3564 13.5387 75.8127 13.5646C75.8127 13.2798 75.8386 13.021 75.8386 12.7362C76.2528 12.1926 76.7706 11.9596 77.4177 12.0632Z" fill="#9A968E"/>
<path d="M101.233 8.33551C101.233 8.05075 101.259 7.79189 101.259 7.50714C101.932 7.37771 102.631 7.27416 103.304 7.14473C103.615 7.45537 103.641 7.81778 103.511 8.23196C102.786 8.95678 102.036 9.42274 101.233 8.33551Z" fill="#A9A8A8"/>
<path d="M59.6078 16.7227C60.3585 15.9461 60.6692 16.5674 60.7727 17.1628C60.9798 18.3018 60.0479 17.7323 59.5819 17.8876C59.2972 17.5252 59.3231 17.111 59.6078 16.7227Z" fill="#ACACAC"/>
<path d="M80.1098 12.5291C79.9286 12.1667 79.7474 11.8302 79.592 11.4678C80.2392 11.1054 80.9122 10.8465 81.6888 11.0795C81.3523 11.5454 80.9899 12.0114 80.6534 12.4774C80.4722 12.5032 80.291 12.5291 80.1098 12.5291Z" fill="#545353"/>
<path d="M86.5556 10.277C86.5814 10.51 86.5814 10.743 86.6073 10.9759C85.986 11.5972 85.1577 11.3901 84.4329 11.4937C85.0283 11.0795 85.5977 10.6653 86.1673 10.2511C86.3226 10.2252 86.452 10.2252 86.5556 10.277Z" fill="#3B3A38"/>
<path d="M106.54 76.7017C106.488 77.7889 106.022 78.2549 104.935 77.7631C105.142 76.9347 105.738 76.6499 106.54 76.7017Z" fill="#656362"/>
<path d="M103.304 78.8762C103.511 79.0574 103.744 79.2386 103.951 79.4198C103.874 79.9375 103.641 80.2482 103.045 80.0929C102.76 80.1187 102.424 80.4035 102.243 79.9375C102.424 79.3939 102.709 78.9797 103.304 78.8762Z" fill="#666666"/>
<path d="M59.6078 16.7227C59.6078 17.111 59.6078 17.4993 59.6078 17.8876C59.1936 18.3795 58.6241 18.6383 58.417 17.8876C58.2099 17.1369 59.1159 17.0334 59.6078 16.7227Z" fill="#7E7E7E"/>
<path d="M62.7916 16.1273C62.8175 16.3344 62.8175 16.5415 62.8434 16.7227C62.2998 16.8781 61.5491 17.1887 61.5232 16.3085C61.5232 15.8944 62.3257 16.1273 62.7916 16.1273Z" fill="#787878"/>
<path d="M164.241 58.8918C164.241 58.5294 164.241 58.167 164.241 57.8046C164.785 57.8046 165.328 57.8046 165.846 57.8046L165.872 57.8305C166.105 58.4517 165.794 58.8142 165.328 59.1248C164.914 59.2542 164.552 59.2025 164.241 58.8918Z" fill="#F8F1E6"/>
<path d="M107.601 89.0754C107.808 89.8261 107.498 90.2403 106.747 90.2921C106.411 90.318 105.996 90.1886 106.204 89.7226C106.462 89.0754 106.98 88.8166 107.679 89.1272C107.653 89.1272 107.601 89.0754 107.601 89.0754Z" fill="#727272"/>
<path d="M107.135 7.74012C106.902 7.50715 106.669 7.27417 106.436 7.04119C106.954 6.47169 107.575 7.17062 108.119 6.85998C108.119 7.09296 108.119 7.32594 108.119 7.58481C107.86 7.94722 107.524 7.9731 107.135 7.74012Z" fill="#898989"/>
<path d="M103.304 8.28375C103.304 7.89545 103.304 7.53304 103.304 7.14474C103.485 7.09297 103.667 7.09297 103.822 7.11886C104.184 7.45538 104.573 7.7919 104.935 8.15431C104.728 8.64616 104.34 8.87914 103.822 8.9568C103.46 8.90503 103.201 8.72382 103.304 8.28375Z" fill="#BBBAB9"/>
<path d="M178.245 53.5074C176.071 53.0415 176.071 53.0415 176.382 51.5401C175.061 52.4202 173.793 52.9897 173.275 50.7634C171.851 51.6954 173.275 54.1546 170.894 54.1805C170.686 53.5333 170.453 52.8085 170.246 52.1613C167.968 52.3684 171.748 57.0021 167.477 55.6819C168.227 54.1805 166.467 51.4624 169.677 51.1C170.065 51.0482 169.962 50.5305 169.755 50.2198C168.124 47.6571 169.211 46.2851 171.748 45.3532C172.343 45.1461 173.405 44.9131 173.379 43.8C174.259 44.3177 174.647 44.8096 174.052 45.9486C173.612 46.8028 173.327 48.2784 175.32 47.2429C175.864 46.9581 177.055 46.751 176.64 47.9418C175.553 51.0482 177.521 51.1518 179.617 51.2553C179.876 51.2812 180.109 51.4106 180.446 51.5142C180.161 52.6791 177.961 51.773 178.245 53.5074Z" fill="#F6EBDC"/>
<path d="M187.953 70.2301C187.28 70.256 186.918 70.6184 186.866 71.2914C186.503 71.2914 186.141 71.2914 185.805 71.2914C185.132 71.2656 184.64 70.9032 184.174 70.489C182.957 69.4276 182.025 69.35 182.051 71.3173C182.077 72.5599 181.352 73.0517 180.42 73.4659C178.738 74.4755 179.281 77.1677 176.951 77.8666C176.848 76.4687 176.977 75.0968 177.754 74.0613C178.996 72.4563 178.634 71.3173 177.133 70.2819C177.158 70.1783 177.158 70.0748 177.158 69.9453C177.391 69.2982 177.909 68.884 178.297 68.3663C178.556 68.0039 178.789 67.6415 178.996 67.279C179.359 66.7095 179.644 66.0883 180.394 65.9329C180.834 66.7872 181.223 67.6673 181.74 68.4698C182.103 69.0134 182.698 69.3758 183.294 68.8063C183.76 68.3404 183.552 67.6156 183.086 67.4344C180.368 66.3212 183.785 64.7939 182.776 63.6032C183.682 62.8783 184.562 62.1018 185.856 62.723C185.986 62.9301 186.038 63.1631 186.012 63.3961C185.986 63.5773 185.908 63.7326 185.856 63.8879C185.805 64.095 185.546 64.2244 185.649 64.4574C185.779 64.328 185.934 64.2244 186.089 64.1468C186.322 64.0691 186.555 64.1209 186.736 64.2244C187.953 65.3893 187.668 67.0978 188.471 68.3404C187.28 69.4794 186.348 66.839 185.364 68.3663C185.08 68.8064 184.122 69.0911 184.691 69.8936C185.157 70.5407 185.649 70.5925 186.193 69.8936C186.969 69.0134 187.461 69.7124 187.953 70.2301Z" fill="#F4E8D6"/>
<path d="M198.748 51.8766C198.748 53.3262 198.696 54.3617 196.625 54.6206C195.227 54.8018 193.984 56.4067 194.45 58.3482C193.467 57.4681 192.302 56.6915 192.82 55.0606C192.276 54.3876 192.224 53.7404 192.794 53.0415C192.845 52.239 192.82 51.4106 193.959 51.333C194.916 52.2649 194.942 51.4365 195.046 50.7635C195.149 49.961 195.693 49.1844 195.382 48.3301C195.512 47.45 195.848 46.5957 195.693 45.6638C195.434 44.8355 195.745 44.0071 195.771 43.1787C195.564 42.3245 195.434 41.4702 195.9 40.6677C196.703 41.056 197.764 43.2046 197.479 44.5766C197.143 46.1039 197.557 47.3723 198.282 48.6149C200.43 49.3915 198.204 50.867 198.748 51.8766Z" fill="#F4E8D8"/>
<path d="M198.204 48.6408C196.806 47.9418 196.262 46.8028 196.703 45.3532C197.22 43.6188 196.677 42.1174 196.107 40.5642C195.227 39.5805 195.408 38.4156 195.538 37.2507C194.657 36.6036 193.726 36.3447 192.69 36.8624C192.405 36.9401 192.172 36.8883 191.991 36.6553C191.836 35.8011 191.111 34.9986 191.81 34.0926C195.667 34.6621 198.1 38.0532 197.376 41.8585C197.324 42.1174 197.272 42.4798 197.401 42.6092C199.239 44.4213 197.557 46.6993 198.204 48.6408Z" fill="#F3EBDF"/>
<path d="M179.824 64.1985C180.213 61.9464 180.627 59.6943 181.015 57.4681C181.222 57.2351 181.429 57.0021 181.637 56.7432C182.103 56.3549 182.568 56.3808 183.034 56.7432C182.077 59.4095 182.025 62.3865 180.368 64.8198C179.902 64.8716 179.617 64.7422 179.824 64.1985Z" fill="#726C63"/>
<path d="M183.034 56.7432C182.568 56.7432 182.102 56.7432 181.637 56.7432C181.274 55.3195 181.921 53.9993 182.025 52.6273C182.077 52.006 182.025 50.9447 183.034 51.1518C183.915 51.333 183.63 52.3166 183.63 52.9897C183.63 54.2581 182.62 55.3713 183.034 56.7432Z" fill="#6A645C"/>
<path d="M195.538 37.2507C196.211 38.2603 195.874 39.477 196.107 40.5642C196.056 41.4702 196.004 42.3762 195.952 43.2823C195.771 43.6188 195.564 43.6188 195.331 43.3082C194.606 41.3926 195.253 39.3734 194.813 37.4319C194.813 37.4319 195.279 37.3284 195.538 37.2507Z" fill="#7E7971"/>
<path d="M191.422 61.0663C192.302 62.7489 191.396 63.9397 192.043 65.0528C192.328 65.5188 191.991 66.14 191.266 66.0624C190.697 66.0106 190.205 65.6741 190.36 65.001C190.619 63.8361 190.982 62.6971 191.422 61.0663Z" fill="#F6EBDC"/>
<path d="M191.81 34.0926C191.965 34.9986 192.095 35.9305 192.25 36.8365C192.38 37.406 192.172 37.5355 191.655 37.3543C191.163 37.1213 191.215 36.6553 191.111 36.2411C191.422 34.6621 190.283 33.4195 190.102 31.944C190.257 31.7369 190.49 31.6592 190.749 31.6592C191.474 31.8404 191.707 32.3582 191.629 33.0571C191.707 33.3936 191.758 33.7302 191.81 34.0926Z" fill="#7C7873"/>
<path d="M179.825 64.1985C180.006 64.4056 180.187 64.6127 180.368 64.8198C180.394 65.1822 180.394 65.5446 180.42 65.9329C180.058 66.4766 179.721 67.0202 179.359 67.5638C178.737 67.8744 178.453 67.512 178.22 66.9943C178.763 66.0365 178.737 64.7939 179.825 64.1985Z" fill="#73706D"/>
<path d="M192.69 40.383C193.467 41.755 193.518 43.1269 193.182 44.706C191.888 43.3081 192.405 41.8067 192.69 40.383Z" fill="#6D6760"/>
<path d="M188.315 60.6521C188.6 59.4613 189.247 58.5035 190.076 57.6493C190.335 57.8822 190.36 58.1411 190.153 58.4259C189.998 59.539 189.662 60.5227 188.393 60.8851L188.315 60.6521Z" fill="#7F786E"/>
<path d="M195.46 50.7893C195.589 51.773 195.279 52.6273 194.58 53.3521C193.596 52.912 194.01 52.0319 193.907 51.333C194.062 51.3071 194.191 51.3071 194.347 51.333C194.683 51.1 194.865 50.5046 195.46 50.7893Z" fill="#A39B8E"/>
<path d="M195.46 50.7893C195.097 50.9705 194.709 51.1517 194.347 51.333C194.45 50.5822 194.243 49.7798 194.839 49.1585C195.149 48.9773 195.227 48.589 195.615 48.4854C196.418 49.3138 195.796 50.0645 195.46 50.7893Z" fill="#7F776D"/>
<path d="M195.641 48.4855C195.382 48.7184 195.123 48.9255 194.865 49.1585C194.865 48.0713 194.709 46.9323 195.434 45.9745C195.589 45.7933 195.771 45.7933 195.926 45.9486C196.133 46.8287 196.107 47.683 195.641 48.4855Z" fill="#797369"/>
<path d="M195.926 45.9486C195.771 45.9486 195.589 45.9486 195.434 45.9745C194.839 45.0943 194.942 44.2142 195.331 43.3081C195.538 43.3081 195.745 43.2823 195.952 43.2823C195.952 44.1624 195.926 45.0684 195.926 45.9486Z" fill="#777066"/>
<path d="M188.315 60.6521L188.419 60.8592C188.626 61.8688 187.694 62.3606 187.383 63.1372C186.84 63.422 186.555 63.1372 186.374 62.6454C187.021 61.9982 187.668 61.3251 188.315 60.6521Z" fill="#6E6860"/>
<path d="M192.768 53.0674C192.768 53.7404 192.794 54.4135 192.794 55.0865C192.224 55.1383 191.603 55.1124 191.551 54.4393C191.474 53.6369 191.836 53.0415 192.768 53.0674Z" fill="#BEB3A4"/>
<path d="M190.153 58.4259C190.127 58.167 190.102 57.9081 190.076 57.6493C190.179 57.1833 190.05 56.562 190.697 56.4067C190.826 56.3808 191.111 56.6656 191.163 56.8468C191.422 57.7269 190.671 57.9858 190.153 58.4259Z" fill="#9C9386"/>
<path d="M191.681 37.3543C191.888 37.173 192.069 36.9919 192.276 36.8365C192.406 36.8365 192.561 36.8624 192.69 36.8624C192.69 37.5613 192.69 38.2603 192.69 39.011C191.836 38.7521 191.784 38.0273 191.681 37.3543Z" fill="#66615A"/>
<path d="M186.374 62.6712C186.71 62.8266 187.047 62.9819 187.384 63.1631C187.176 63.5255 186.995 63.8879 186.788 64.2503C186.633 64.2503 186.477 64.2762 186.322 64.328C185.83 64.1209 185.546 63.8102 185.753 63.2407C185.804 63.0595 185.83 62.8783 185.882 62.723C186.063 62.6713 186.219 62.6712 186.374 62.6712Z" fill="#B3A99C"/>
<path d="M158.313 55.656C159.969 57.4163 159.944 59.6425 159.866 61.7911C159.814 62.8783 159.607 63.8879 160.41 64.768C160.746 65.0269 160.824 65.3893 160.746 65.7776C160.565 66.1659 160.28 66.373 159.866 66.3989C159.063 66.8131 158.365 67.0202 158.339 65.7258C158.313 65.1046 158.261 64.5351 157.64 64.1985C157.51 63.9915 157.433 63.7585 157.433 63.4996C157.459 63.2666 157.536 63.0336 157.64 62.8007C158.183 62.1017 158.39 61.2993 158.339 60.445C158.365 59.6166 158.287 58.7624 158.287 57.934C157.899 57.2092 158.209 56.4326 158.313 55.656Z" fill="#F6EDE0"/>
<path d="M157.64 63.7326C157.666 63.9138 157.666 64.0691 157.614 64.2503C156.656 64.8457 156.294 65.8294 155.905 66.8131C155.569 67.6673 155.258 68.7546 153.705 68.418C153.835 66.1659 156.061 65.0787 156.656 63.1113C157.096 63.0854 157.381 63.3961 157.64 63.7326Z" fill="#7C756B"/>
<path d="M159.866 66.4507C160.073 66.2177 160.28 65.9847 160.462 65.7517C161.782 66.0106 161.601 66.9943 161.316 67.7968C160.798 69.2723 160.254 70.7737 158.753 71.628C158.598 71.6797 158.442 71.7315 158.313 71.8092C157.976 71.7574 157.743 71.5762 157.666 71.2138C157.536 69.2464 159.504 68.211 159.866 66.4507Z" fill="#736E65"/>
<path d="M152.385 77.7631C152.592 77.09 152.695 76.3652 153.446 76.0287C154.896 75.4851 155.051 73.7765 156.164 72.9223C156.708 73.0776 156.915 73.5436 157.174 73.9578C156.294 74.6049 155.802 75.485 155.543 76.5205C155.206 76.7794 154.87 77.0124 154.533 77.2712C153.757 77.1677 153.239 78.1514 152.385 77.7631Z" fill="#7F7970"/>
<path d="M151.816 64.8198C151.22 65.9588 151.168 67.4085 149.615 68.2368C149.693 66.4248 150.366 65.001 151.246 63.629C151.764 63.862 151.816 64.328 151.816 64.8198Z" fill="#857E73"/>
<path d="M153.058 58.2964C153.809 59.7202 152.333 60.8333 152.463 62.1794C152.152 62.3606 151.841 62.3347 151.557 62.1017C152.074 60.8851 151.427 59.4872 152.23 58.3223C152.514 58.0376 152.799 58.0376 153.058 58.2964Z" fill="#716B62"/>
<path d="M152.385 55.656C152.359 55.1124 152.333 54.5688 152.307 54.0252C153.213 53.2486 151.996 51.9801 152.98 51.2294C153.705 53.0156 153.317 54.8535 153.343 56.6915C152.385 56.9244 152.747 55.9667 152.385 55.656Z" fill="#716B62"/>
<path d="M158.261 57.9858C159.012 58.6847 158.857 59.6166 158.857 60.4968C158.494 60.8074 158.701 61.4546 158.158 61.6875C158.028 61.6617 157.925 61.6358 157.795 61.6358C157.925 60.4191 157.148 59.073 158.261 57.9858Z" fill="#6B6762"/>
<path d="M151.582 62.1017C151.893 62.1276 152.178 62.1535 152.488 62.1794C152.592 63.1372 152.618 64.0691 151.815 64.8198C151.375 64.5351 151.298 64.095 151.246 63.629C151.272 63.1113 151.142 62.5418 151.582 62.1017Z" fill="#827A70"/>
<path d="M152.825 47.0876C152.851 47.2429 152.903 47.4241 152.954 47.5794C152.954 48.3042 152.954 49.0032 152.954 49.728C152.644 50.0904 152.307 50.0645 151.945 49.8057C151.919 48.8996 151.893 47.9936 151.867 47.0617C152.178 47.0617 152.514 47.0617 152.825 47.0876Z" fill="#AFA698"/>
<path d="M153.369 70.3854C153.446 71.2138 152.98 71.4985 152.488 71.6797C152.126 71.8351 151.815 71.6021 151.79 71.162C151.79 70.5148 152.074 69.9712 152.721 69.8418C152.929 69.79 153.213 70.2301 153.369 70.3854Z" fill="#7C756B"/>
<path d="M157.64 63.7326C157.2 63.7067 156.837 63.5255 156.63 63.1113C156.734 62.4124 156.32 61.2734 157.795 61.6099L157.743 61.5581C158.624 62.0241 158.572 62.5677 157.925 63.189C157.821 63.3961 157.718 63.5514 157.64 63.7326Z" fill="#6E6961"/>
<path d="M157.174 73.9578C156.475 73.9836 156.19 73.5694 156.164 72.9223C156.371 72.5858 156.604 72.2492 156.811 71.9127C157.717 71.6797 157.64 72.4046 157.769 72.9223C157.588 73.2588 157.381 73.6212 157.174 73.9578Z" fill="#383632"/>
<path d="M152.954 51.2553C152.747 52.1872 153.291 53.3003 152.281 54.051C152.333 52.9897 151.738 51.9025 152.333 50.8411C152.54 50.6858 152.747 50.6858 152.928 50.8411C152.98 50.9706 152.954 51.1 152.954 51.2553Z" fill="#6D675F"/>
<path d="M157.795 72.9223C157.485 72.5858 157.148 72.2492 156.837 71.9127C156.812 71.3173 157.278 71.3173 157.666 71.2397C157.873 71.4468 158.106 71.628 158.313 71.8351C158.235 72.2234 158.313 72.7152 157.795 72.9223Z" fill="#6A645C"/>
<path d="M152.385 55.656C152.695 55.9925 153.006 56.3549 153.317 56.6915C153.239 57.2351 153.135 57.7528 153.058 58.2964C152.799 58.2964 152.514 58.2964 152.255 58.2964C152.385 57.4422 151.66 56.5103 152.385 55.656Z" fill="#6D675F"/>
<path d="M152.954 50.8152C152.747 50.8152 152.54 50.8152 152.359 50.8152C152.048 50.5564 151.815 50.2198 151.945 49.7798C152.281 49.7539 152.618 49.728 152.954 49.7021C152.98 50.0904 153.601 50.4269 152.954 50.8152Z" fill="#8B8379"/>
<path d="M165.302 58.8918C165.483 58.5294 165.665 58.1929 165.872 57.8305C166.933 57.5716 168.02 58.3741 169.082 57.8046C169.884 57.3386 170.661 57.2351 171.437 57.8564C171.929 58.2447 171.981 57.7528 172.11 57.494C172.162 57.4163 172.24 57.3645 172.292 57.2869C174.725 56.5879 172.809 59.1507 173.922 59.4354C174.492 59.1507 174.828 59.4872 175.139 59.8755C175.527 60.8333 174.492 61.6358 174.828 62.5936C175.657 63.8102 174.466 63.5255 173.974 63.7326C173.508 64.0173 172.939 64.0691 172.602 64.5351C172.369 64.7939 172.214 65.1046 172.007 65.3634C171.515 66.1659 170.842 66.9166 171.204 67.978C170.169 69.6088 172.033 70.2819 172.525 71.2914C173.146 72.5599 173.974 73.44 172.758 74.7602C172.136 75.4333 172.473 76.2616 172.55 77.0641C172.654 77.996 174.129 79.5751 171.541 79.4198C171.282 79.3939 170.997 79.601 171.127 79.9375C171.334 80.5588 172.188 81.5943 171.308 81.6719C170.247 81.7755 169.082 80.8953 167.994 80.4294C167.917 80.4035 167.969 80.0928 167.969 79.9116C167.839 79.7822 167.787 79.6269 167.813 79.4716C167.839 79.3162 167.865 79.2386 167.891 79.2386C168.15 78.7985 168.745 78.6691 168.952 78.1514C168.486 78.3843 168.124 78.7726 167.736 79.1092C167.088 79.368 167.528 80.74 166.338 80.4553C166.156 80.4553 165.975 80.4553 165.794 80.4553C165.25 79.7563 164.81 78.928 164.163 78.3067C163.361 77.5819 163.982 76.5723 163.645 75.7439C163.412 75.1744 163.257 74.579 162.636 74.2166C160.539 72.9741 160.565 72.9482 162.558 71.0326C162.765 70.9031 162.998 70.7996 163.231 70.6961C164.215 70.3595 165.25 70.1007 166.234 69.2205C165.173 68.2627 164.37 67.1496 164.241 65.7C164.189 65.0269 164.293 64.4315 164.862 63.9915C166.959 63.2666 164.577 62.4124 164.914 61.6617C164.992 60.7556 164.81 59.772 165.302 58.8918Z" fill="#F3E5D1"/>
<path d="M163.154 71.2914C162.662 71.7833 162.118 72.2492 161.678 72.7929C161.471 73.0517 161.549 73.5177 161.937 73.6989C164.888 75.0191 164.888 75.0191 164.215 78.3067C163.387 78.0737 162.636 78.0737 162.066 78.8503C162.015 77.7113 162.299 76.3393 160.306 76.9865C159.374 77.2971 158.882 76.5205 158.442 75.7957C158.857 74.9932 159.348 76.1322 159.685 75.7439C160.073 75.3297 160.462 75.6404 160.902 75.6404C160.979 73.8283 158.675 73.3365 158.727 71.6021C158.546 70.1266 160.151 69.5053 160.384 68.2368C160.539 67.4085 161.626 66.5801 160.436 65.7258C160.41 65.4152 160.41 65.0787 160.384 64.768C160.565 64.5868 160.746 64.4315 160.928 64.2503C161.497 64.5351 162.144 64.6904 162.507 65.3117C163.982 67.1755 164.137 69.1687 163.154 71.2914Z" fill="#F3E7D6"/>
<path d="M177.133 70.256C175.191 70.3854 173.612 68.5992 174.13 66.7095C174.311 66.0882 174.492 65.1822 175.372 65.1822C176.848 65.1822 177.029 66.5542 177.573 67.512C177.806 67.5897 177.935 67.7709 177.987 68.0038C178.09 68.8581 177.34 69.4017 177.184 70.1783L177.133 70.256Z" fill="#F4E7D5"/>
<path d="M174.854 62.5936C173.016 61.6617 175.346 60.8333 174.932 59.9532C174.88 59.4613 175.139 59.2283 175.605 59.2025C176.019 59.306 176.33 59.5131 176.2 60.0308C175.734 60.8592 175.294 61.7393 174.854 62.5936Z" fill="#857E73"/>
<path d="M175.89 76.3652C176.097 77.7631 175.502 78.3067 174.596 78.6173C174.492 78.6432 174.078 78.3326 174.104 78.1772C174.155 77.1677 174.88 76.7276 175.89 76.3652Z" fill="#F4E8D6"/>
<path d="M164.241 78.3067C165.38 78.5655 166.467 78.8762 165.872 80.4552C164.163 80.6106 164.189 79.4716 164.241 78.3067Z" fill="#F3E7D6"/>
<path d="M171.23 68.0038C169.418 66.606 171.438 65.8294 171.748 64.7939C172.266 65.001 172.318 65.467 172.344 65.9329C171.955 66.606 171.593 67.3049 171.23 68.0038Z" fill="#C7BDAF"/>
<path d="M177.728 68.0556C177.676 67.8744 177.624 67.6932 177.573 67.512C177.78 67.3308 178.013 67.1496 178.22 66.9684C178.608 67.1496 178.97 67.3567 179.359 67.5379C179.177 67.9003 179.022 68.2886 178.841 68.651C178.22 68.9099 177.961 68.5216 177.728 68.0556Z" fill="#68635C"/>
<path d="M166.389 80.4553C166.752 79.9116 167.114 79.368 167.477 78.8503C167.787 78.9021 167.968 79.0833 168.02 79.3939C168.02 79.5751 168.02 79.7563 168.02 79.9375C167.451 80.0152 167.347 81.4907 166.389 80.4553Z" fill="#F3E7D6"/>
<path d="M176.175 60.0049C175.968 59.8237 175.76 59.6166 175.553 59.4354C175.217 59.073 175.243 58.7106 175.579 58.3482C175.709 58.3223 175.864 58.3223 175.993 58.3223C176.589 57.934 176.848 58.2964 177.081 58.7624C176.977 59.3578 176.692 59.772 176.175 60.0049Z" fill="#C6BFB6"/>
<path d="M172.266 64.2244C172.602 63.2407 173.275 63.3961 174 63.7326C173.638 64.1209 173.275 64.4833 172.913 64.8716C172.369 64.9751 172.11 64.8198 172.266 64.2244Z" fill="#847D73"/>
<path d="M177.107 58.8142C176.744 58.6588 176.382 58.5035 176.019 58.3741C176.226 57.9858 176.433 57.5975 176.641 57.2351C177.702 57.4681 177.754 58.0376 177.107 58.8142Z" fill="#8C8780"/>
<path d="M172.266 64.2244C172.473 64.4315 172.706 64.6645 172.913 64.8716C172.887 65.3117 172.809 65.7258 172.318 65.9071C172.11 65.5188 171.929 65.1563 171.722 64.768C171.903 64.5868 172.085 64.4056 172.266 64.2244Z" fill="#ABA294"/>
<path d="M191.655 33.0571C191.37 32.6688 191.085 32.2546 190.801 31.8663C189.972 31.0897 189.895 29.9248 189.377 28.967C189.325 28.7082 189.403 28.4752 189.558 28.2681C189.325 27.2326 189.377 26.2748 190.153 25.4724C192.121 27.6986 191.991 30.339 191.655 33.0571Z" fill="#F3EBDF"/>
<path d="M152.385 77.7631C153.084 77.5301 153.627 76.6241 154.534 77.2712C153.213 78.4361 152.359 80.1964 150.185 80.6365C150.495 79.2386 151.22 78.3326 152.385 77.7631Z" fill="#979085"/>
<path d="M116.843 7.4036C117.801 6.80822 119.587 8.12843 119.949 6.08339C120.363 6.08339 120.752 6.08339 121.166 6.08339C121.787 6.85999 122.486 6.47169 123.159 6.23871C126.214 4.5302 129.631 6.05751 132.789 5.17736C134.394 4.71141 133.876 6.62701 135.093 7.2224C132.194 7.14474 132.556 8.36141 133.514 9.83693C132.53 9.65573 131.961 10.3288 131.365 10.9242C130.511 11.5196 129.475 11.0795 128.569 11.4937C127.094 12.1408 126.24 11.7525 126.24 9.91459C126.24 9.08622 126.058 8.07665 124.842 7.94722C124.661 7.92133 124.479 7.89545 124.298 7.89545C124.402 7.97311 124.531 7.89544 124.635 7.94722C126.706 8.7497 125.049 9.88871 124.557 10.2252C123.522 10.9242 122.771 11.9596 121.658 12.5291C121.658 12.6844 121.658 12.8657 121.658 13.021C121.425 13.5646 120.907 13.6422 120.441 13.7976C119.587 13.5905 118.707 13.5905 117.827 13.5905C116.688 13.3057 115.549 13.4352 114.41 13.461C113.504 13.4093 112.598 13.4869 111.691 13.4869C110.811 13.5387 109.931 12.8915 109.077 13.5128C105.971 13.6681 102.89 13.5905 99.7837 13.4352C99.2401 14.0047 98.5929 13.4869 97.9975 13.6422C97.4798 13.7199 97.0656 14.1082 96.522 14.1082C97.0397 14.16 97.428 13.8235 97.894 13.694C98.6965 13.7976 99.4989 13.7458 100.224 13.3575C102.968 13.8235 105.738 13.5128 108.507 13.5905C109.413 13.5387 110.319 13.0986 111.226 13.5387C112.209 13.461 113.193 13.5387 114.202 13.4352C115.704 13.3575 117.179 13.5387 118.681 13.5905C119.354 13.5387 120.001 13.7976 120.674 13.7976C121.606 13.5387 122.331 13.7199 122.771 14.6518C122.952 15.1954 123.107 15.7391 123.289 16.3086C122.046 16.3086 120.804 16.2827 119.561 16.2827C118.784 17.0851 117.775 16.7486 116.843 16.8263C116.066 16.9816 115.083 16.438 114.539 17.4734C111.251 19.0525 107.808 20.4763 104.184 20.6316C101.596 20.761 99.5766 21.7188 97.4021 22.7543C93.105 20.761 89.6621 23.1944 86.0897 24.9029C83.294 23.5309 80.5759 22.5731 78.4273 25.9901C77.9873 26.689 77.0295 26.9479 76.2788 26.8444C75.6575 26.7667 74.622 27.388 74.389 26.4561C74.0784 25.2653 75.5022 25.6018 75.8646 25.55C77.8578 25.1876 77.3401 22.9873 78.5568 22.0812C78.7639 21.9259 77.6766 21.0976 77.0036 21.4859C76.2788 21.9 75.6316 22.3142 74.7515 22.2107C74.5702 22.0295 74.389 21.8483 74.2078 21.6929C73.6125 20.4763 72.4476 19.5961 72.81 17.8617C73.2242 15.8426 74.2337 15.4543 75.7093 16.3603C76.6929 16.9557 77.0812 16.671 77.9355 16.2309C80.2653 15.0401 82.4915 13.6164 85.3131 13.5387C86.6075 13.5128 88.3678 13.5128 88.2124 11.3125C88.3936 11.0018 88.5748 10.6653 88.7561 10.3547C89.2738 10.4841 89.7915 10.5876 90.3092 10.7171C90.3869 12.2703 91.2153 12.3997 92.1472 11.4937C93.4674 10.2511 94.9429 10.3547 96.5738 10.4323C98.7223 10.51 100.819 9.94048 102.942 9.47452C103.356 9.21566 103.874 9.16388 104.288 8.87913C105.919 8.33552 107.834 9.06034 109.284 7.74013C111.769 7.63658 114.306 7.53304 116.843 7.4036Z" fill="#F3E4CF"/>
<path d="M121.632 12.5291C121.942 10.5876 124.635 10.4323 124.842 8.38728C123.755 8.02487 123.107 9.31919 121.968 8.98267C122.9 7.1965 124.402 7.17062 125.8 7.84367C126.99 8.41317 127.974 9.5004 126.602 11.416C128.388 10.8206 129.864 10.95 131.313 10.9242C130.407 12.0632 128.621 12.4515 127.819 12.1926C125.618 11.4678 123.651 11.416 121.632 12.5291Z" fill="#F5E8D7"/>
<path d="M120.57 13.9011C120.752 13.3834 121.166 13.1504 121.658 13.0469C121.58 13.8752 123.936 13.1245 122.719 14.7036C122.149 13.9788 121.243 14.2376 120.544 13.9011H120.57Z" fill="#827C74"/>
<path d="M187.979 26.3784C187.565 26.8185 187.513 26.922 187.461 26.922C186.374 26.9997 185.416 26.6114 184.614 25.9124C184.536 25.8607 184.743 25.2653 184.821 25.2653C185.934 25.317 186.892 25.7312 187.979 26.3784Z" fill="#CAC0B1"/>
<path d="M189.48 28.6823C190.257 29.5883 190.826 30.5979 190.8 31.8663C190.567 31.8922 190.36 31.9181 190.127 31.9699C189.713 30.9603 189.273 29.9248 188.859 28.9153C188.988 28.5528 189.195 28.4752 189.48 28.6823Z" fill="#9A948B"/>
<path d="M189.48 28.6823C189.273 28.76 189.066 28.8117 188.859 28.8894C188.471 28.6046 187.746 28.3458 188.238 27.8022C188.729 27.2844 189.092 28.0869 189.506 28.294C189.532 28.4234 189.506 28.5529 189.48 28.6823Z" fill="#7D7871"/>
<path d="M29.9678 28.7082C30.149 28.1128 30.3043 27.5433 30.4855 26.9479C30.3561 25.7312 31.2621 25.0582 31.9093 24.2298C32.3234 23.8674 32.8929 23.7121 33.3071 23.3238C33.6437 23.0131 33.7472 22.599 33.7731 22.1589C34.4461 21.7447 35.1451 21.3046 36.0511 20.7351C36.4394 20.994 36.4394 21.9518 36.4912 22.8837C36.5947 23.272 36.4394 23.5826 36.1805 23.8674C35.4557 24.2557 35.4298 25.0323 35.1451 25.6795C34.2908 26.9479 33.6178 28.3199 32.9706 29.7178C32.6082 30.0284 32.2976 30.4426 31.7281 30.339C30.822 30.1578 30.6408 29.1741 29.9678 28.7082Z" fill="#F4E9D9"/>
<path d="M25.6707 36.2411C26.9909 35.9823 27.7157 35.5422 27.5345 33.8078C27.3274 31.7887 28.8029 30.2355 29.9937 28.6823C30.2008 30.3649 31.0292 32.1511 29.0877 33.4713C28.2075 34.0667 29.1912 34.8692 29.1395 35.6199C29.0877 36.6035 29.5019 37.639 28.9324 38.6486C27.7157 38.0273 26.4472 37.4578 25.6707 36.2411Z" fill="#F4E9D9"/>
<path d="M31.7539 30.3649C32.0386 30.1319 32.3234 29.899 32.5822 29.666C32.7376 29.7954 32.8152 29.9248 32.7634 30.0543C32.7376 30.2096 32.6858 30.2873 32.634 30.2873C32.6858 31.4004 32.6599 32.4876 31.0549 32.3582C31.0549 31.6075 31.1844 30.9085 31.7539 30.3649Z" fill="#97938C"/>
<path d="M41.332 17.9653C42.2122 17.9653 43.0923 17.9912 43.9724 17.9912C43.6618 19.4926 41.9533 19.622 41.2802 20.7869C40.2189 21.0976 39.7529 22.0553 39.054 22.7543C38.8987 22.7543 38.7434 22.7543 38.6139 22.7543C38.3551 22.6507 38.1739 22.4695 38.0703 22.2366C38.1221 21.9 38.148 21.5376 38.1998 21.2011C38.5881 19.4926 40.0118 18.7678 41.332 17.9653Z" fill="#706C67"/>
<path d="M41.3319 17.9653C40.6589 19.4149 39.5975 20.4763 38.1738 21.2011C37.656 21.0976 36.9312 20.9422 37.1383 20.3468C37.4231 19.5185 37.7855 18.5607 38.795 18.3277C39.6234 18.0947 40.4777 18.0688 41.3319 17.9653Z" fill="#F4E9D9"/>
<path d="M32.2197 24.4628C32.1939 25.6795 30.9254 26.0419 30.4854 26.9738C30.1488 27.2326 29.8123 27.4915 29.5017 27.7504C29.2687 27.5174 29.0357 27.2844 28.7769 27.0514C28.9322 25.55 30.4077 25.0323 31.0549 23.8933C31.2361 23.8933 31.4173 23.8933 31.5985 23.8933C31.935 23.8933 32.1421 24.1004 32.2197 24.4628Z" fill="#8D8881"/>
<path d="M38.0702 22.2366C38.2514 22.4178 38.4326 22.5731 38.6138 22.7543C38.562 23.1167 38.5103 23.4532 38.4844 23.8156C38.2255 23.8415 37.9408 23.8674 37.6819 23.8933C37.3195 24.1781 36.9571 24.3593 36.4911 24.2039C36.284 24.1522 36.077 24.0745 35.8958 23.971C36.1028 23.6344 36.3099 23.272 36.5429 22.9355C36.9571 22.5472 37.3972 22.1071 38.0702 22.2366Z" fill="#A39C92"/>
<path d="M33.747 22.1848C34.4201 22.7543 34.3424 23.2979 33.747 23.8415C32.9963 24.3592 32.5304 23.9968 32.168 23.3238C32.4268 22.5731 33.2034 22.5472 33.747 22.1848Z" fill="#7B766E"/>
<path d="M32.1681 23.3238C32.6859 23.505 33.2295 23.6862 33.7472 23.8415C33.4107 24.4369 32.7635 24.2816 32.2458 24.4369C32.0387 24.2298 31.8316 24.0486 31.5986 23.8415C31.7798 23.6862 31.961 23.505 32.1681 23.3238Z" fill="#878078"/>
<path d="M32.6599 30.2872C32.634 30.0802 32.6082 29.8731 32.5823 29.666C32.9706 28.0869 33.3589 26.4819 34.7826 25.4206C35.2745 25.3947 35.6369 25.6018 35.8957 25.9901C35.6887 27.6468 33.7213 28.3458 33.6695 30.106C33.333 30.1837 32.9965 30.2355 32.6599 30.2872Z" fill="#827C74"/>
<path d="M35.8958 26.016C35.4558 25.9901 35.0416 25.8865 34.7827 25.4465C34.8345 24.7475 35.171 24.2557 35.8182 23.9709L35.7405 24.1004C35.9994 24.0745 36.1029 24.1263 36.0511 24.2298C35.9994 24.3592 35.9476 24.4369 35.8958 24.4369C35.7146 24.9546 36.4912 25.4983 35.8958 26.016Z" fill="#4B4844"/>
<path d="M35.9473 24.4369C35.8438 24.3334 35.792 24.2298 35.792 24.1004C36.4133 24.0227 37.0345 23.971 37.6558 23.8933C37.4487 25.2394 36.7498 25.0323 35.9473 24.4369Z" fill="#8F887D"/>
<path d="M39.0537 22.7543C39.3643 21.6153 39.9338 20.761 41.2799 20.7869C40.6845 21.5894 40.0374 22.366 39.0537 22.7543Z" fill="#EADFD0"/>
<path d="M129.191 63.2149C130.097 63.3961 130.977 63.5773 131.883 63.7585C132.064 65.467 130.666 66.7354 130.666 68.4439C130.666 69.1946 129.786 69.0911 129.191 69.1429C129.605 67.1755 131.417 65.1822 129.191 63.2149Z" fill="#F7EDDF"/>
<path d="M112.054 78.4102C111.665 80.0929 109.983 80.3258 108.74 81.4648C108.714 79.3939 110.268 78.7209 111.329 77.7113C111.898 77.6077 112.106 77.8666 112.054 78.4102Z" fill="#7C756B"/>
<path d="M112.52 76.184C112.675 76.0028 112.856 75.7957 113.012 75.6145C113.581 75.5627 113.995 74.3202 114.435 75.0709C114.772 75.6663 114.384 76.7276 113.607 77.2971C112.727 77.4007 112.313 77.09 112.52 76.184Z" fill="#726C64"/>
<path d="M112.52 76.184C112.649 76.7793 113.115 77.0382 113.581 77.2712C113.193 77.7889 112.753 78.2808 112.054 78.3843C111.821 78.1513 111.588 77.9184 111.355 77.6854C111.562 77.3489 111.769 77.0123 111.95 76.6758C112.131 76.5205 112.338 76.3652 112.52 76.184Z" fill="#B1A798"/>
<path d="M171.256 58.3482C170.712 57.4939 169.703 58.4517 169.107 57.8046C169.159 56.7691 170.039 56.562 170.738 56.1996C171.127 56.6915 171.877 56.795 172.058 57.468C172.058 58.0376 172.058 58.5553 171.256 58.3482Z" fill="#F6ECDE"/>
<path d="M171.8 57.2868C171.127 57.261 170.764 56.8986 170.712 56.1996C171.489 56.1996 172.24 56.2255 172.317 57.2868C172.162 57.5457 171.981 57.5457 171.8 57.2868Z" fill="#F3E5D1"/>
<path d="M175.579 58.3741C175.579 58.7365 175.579 59.0989 175.553 59.4613C175.346 59.6425 175.139 59.7978 174.906 59.979C174.57 59.7978 174.259 59.6425 173.922 59.4613C174.492 59.073 175.035 58.7106 175.579 58.3741Z" fill="#F5EBDC"/>
<path d="M143.765 20.088C144.153 18.3018 141.927 18.6124 141.616 17.3958C140.969 16.4121 140.632 15.3249 141.797 14.5742C142.729 13.9788 143.48 14.7036 144.049 15.4543C144.645 16.205 145.37 16.671 146.353 16.5415C147.751 16.3603 148.657 18.3795 150.236 17.3958C151.039 17.8876 151.997 17.9912 152.67 18.8454C154.119 20.6316 156.087 21.0717 158.313 20.6575C157.51 22.5213 157.148 24.2816 158.779 26.0419C159.555 26.8961 159.089 27.4139 157.821 27.2585C156.294 27.0514 154.844 26.7149 153.472 26.0419C153.084 25.3429 152.488 24.3334 151.764 24.5663C147.415 25.9124 146.094 22.1071 143.765 20.088Z" fill="#F3E5D1"/>
<path d="M150.236 17.3958C147.699 18.2242 145.059 17.4217 143.04 15.2213C142.445 14.5742 141.901 14.7036 141.694 15.532C141.538 16.1273 141.616 16.7745 141.59 17.3958C140.477 16.8004 139.416 16.5415 138.924 18.1206C138.562 19.2337 137.914 18.716 137.293 18.4571C137.397 16.2568 136.439 15.0919 134.161 15.4802C132.582 15.739 132.168 14.833 131.883 13.6164C134.031 13.6681 136.206 13.0986 138.354 13.6164C138.51 13.927 138.587 14.2894 138.872 14.5224C138.846 14.1341 138.432 13.9788 138.354 13.6164C142.936 12.9174 146.56 15.1954 150.236 17.3958Z" fill="#F6ECDD"/>
<path d="M116.273 16.2827C117.36 16.2827 118.422 16.3086 119.509 16.3086C119.82 16.6451 120.156 16.9816 120.467 17.3181C119.069 17.344 117.671 17.3958 116.273 17.4217C115.937 17.0334 115.937 16.6451 116.273 16.2827Z" fill="#AEA497"/>
<path d="M116.273 16.2827C116.273 16.671 116.273 17.0334 116.273 17.4217C115.678 17.4476 115.083 17.4734 114.513 17.4993C114.099 15.6355 115.652 16.6451 116.273 16.2827Z" fill="#999085"/>
<path d="M163.154 71.2914C162.921 71.1879 162.688 71.0843 162.455 70.9808C163.697 69.0393 162.791 67.2531 162.066 65.467C162.066 65.0787 162.04 64.7163 162.118 64.3539C162.118 64.1726 162.04 64.0691 161.859 64.0173C161.652 63.9915 161.549 63.8879 161.523 63.7067C161.549 63.4478 161.445 63.0078 161.575 62.9301C163.154 62.0241 163.749 60.4968 164.215 58.8918C164.577 58.8918 164.94 58.8918 165.302 58.8918C165.898 59.7978 165.898 60.678 165.302 61.584C164.81 62.49 165.923 63.3702 165.302 64.2762C164.707 64.6904 164.784 65.3117 164.759 65.907C164.992 67.9262 166.105 70.2301 163.154 71.2914Z" fill="#F6ECDE"/>
<path d="M161.523 63.7067C161.678 63.7067 161.833 63.6808 161.989 63.629C162.532 63.5514 162.791 63.7844 162.74 64.328C162.532 64.7163 162.299 65.0787 162.092 65.467C161.549 65.2081 161.057 64.9234 160.953 64.2762C161.135 64.095 161.342 63.8879 161.523 63.7067Z" fill="#827D77"/>
<path d="M123.159 6.23871C122.693 6.88588 122.072 7.37772 121.269 7.14474C120.7 6.98942 121.062 6.47169 121.166 6.10928C121.813 6.13517 122.486 6.18694 123.159 6.23871Z" fill="#6F6A64"/>
<path d="M109.232 7.74012C108.378 9.16388 107.394 10.1734 105.582 9.03444C105.323 8.87912 104.78 9.18976 104.365 9.26742C104.132 9.1121 103.796 9.03444 103.77 8.67203C104.158 8.49083 104.547 8.30962 104.935 8.12842C105.711 8.18019 106.488 8.30962 107.135 7.71423C107.472 7.66246 107.808 7.61069 108.119 7.55891C108.507 7.63657 108.87 7.68835 109.232 7.74012Z" fill="#EFECE9"/>
<path d="M103.77 8.69793C103.977 8.90502 104.158 9.08623 104.365 9.29332C104.003 9.47453 103.641 9.65573 103.304 9.83694C100.431 10.0181 97.635 11.2348 94.6839 10.6394C94.1921 10.5359 93.5449 10.743 93.6484 9.86282L93.5967 9.78516C95.5899 9.42275 97.6091 9.06034 99.6023 8.67205C100.198 8.72382 100.793 8.93091 101.233 8.30964C101.932 8.93091 102.605 8.23198 103.304 8.25786C103.459 8.41318 103.615 8.5685 103.77 8.69793Z" fill="#F8F5F1"/>
<path d="M93.6484 9.88871C95.3828 10.8206 97.1948 10.3547 99.0069 10.1217C100.431 9.94049 101.828 9.08624 103.33 9.83694C101.259 11.2866 98.7739 11.0795 96.4959 11.1571C94.9686 11.183 93.5707 10.5359 92.6388 12.3479C92.3282 12.9174 91.448 13.1245 90.6973 13.021C90.076 12.9433 89.3512 12.7621 89.1182 12.1667C88.7558 11.183 89.7654 11.0795 90.309 10.7171C90.3867 9.96637 91.3445 10.51 91.5257 9.88871C92.1987 9.9146 92.9235 9.39687 93.6484 9.88871Z" fill="#F3E7D6"/>
<path d="M185.753 63.2149C185.934 63.5773 186.141 63.9397 186.322 64.3021C185.727 65.1305 185.235 66.0883 183.811 66.2436C184.018 64.8457 185.157 64.1985 185.753 63.2149Z" fill="#F3E4CF"/>
<path d="M177.728 68.0556C178.09 68.2368 178.478 68.4439 178.841 68.6251C178.453 69.2982 178.064 69.9712 177.21 70.1524C176.511 69.2464 177.339 68.7028 177.728 68.0556Z" fill="#898279"/>
<path d="M157.925 63.2149C157.976 62.6454 158.287 62.0759 157.743 61.584C158.106 61.2216 158.468 60.8592 158.857 60.4968C158.649 61.4546 159.4 62.723 157.925 63.2149Z" fill="#F2E3CF"/>
<path d="M163.154 71.2914C164.966 69.8677 164.474 67.7709 164.759 65.907C165.121 66.5801 165.328 67.6414 165.872 67.8744C169.91 69.557 166.829 69.9712 165.432 70.696C164.733 71.0843 163.982 71.3691 163.154 71.2914Z" fill="#F3E7D6"/>
<path d="M168.02 79.3939C167.839 79.2127 167.658 79.0315 167.477 78.8503C167.502 78.7726 167.554 78.695 167.58 78.6173C167.968 77.6336 168.641 77.0123 169.755 77.1418C170.143 77.1936 170.169 77.6336 170.117 77.996C169.962 79.2386 169.03 79.3939 168.02 79.3939Z" fill="#F5EBDC"/>
<path d="M165.302 64.2762C164.914 63.3702 164.319 62.49 165.302 61.584C165.846 62.3865 166.389 63.2149 166.933 64.0432C166.467 64.5351 165.846 64.1727 165.302 64.2762Z" fill="#F3E7D6"/>
<path d="M171.8 57.2868C171.981 57.2868 172.162 57.2868 172.343 57.2868C172.809 58.1929 172.628 59.1766 171.774 59.4872C171.049 59.7461 171.411 58.7883 171.282 58.3741C171.67 58.1152 171.774 57.7269 171.8 57.2868Z" fill="#F8F1E6"/>
<path d="M99.5505 13.6422C102.709 12.4256 105.996 13.2539 109.206 12.9951C109.569 13.3316 109.543 13.694 109.258 14.0823C105.996 14.0564 102.709 14.6 99.4988 13.5905L99.5505 13.6422Z" fill="#888075"/>
<path d="M114.642 13.0986C115.73 12.4515 116.817 12.9692 117.878 13.1504C118.163 13.3057 118.422 13.461 118.318 13.8493C116.843 14.0046 115.367 14.4188 113.917 13.7199C114.021 13.3575 114.409 13.3057 114.642 13.0986Z" fill="#716B62"/>
<path d="M110.319 17.6029C110.164 17.7064 110.009 17.8876 109.905 17.8617C109.18 17.7582 108.404 18.3536 107.757 17.7323C107.653 17.6547 107.757 17.1887 107.912 17.0593C108.611 16.4121 109.387 16.1532 110.242 16.7745C110.552 17.0334 110.578 17.2922 110.319 17.6029Z" fill="#BCB1A1"/>
<path d="M97.9457 14.1082C96.8067 14.7812 95.7194 14.833 94.218 13.927C95.7194 13.6164 96.8326 13.3834 97.9457 13.1763C98.2304 13.4869 98.2304 13.7976 97.9457 14.1082Z" fill="#847D72"/>
<path d="M110.319 17.6029C110.293 17.3181 110.242 17.0592 110.216 16.7745C111.329 16.0238 112.287 16.2827 113.245 17.344C112.183 17.4475 111.251 17.5252 110.319 17.6029Z" fill="#726B62"/>
<path d="M109.258 14.0823C109.232 13.7199 109.232 13.3575 109.206 12.9951C109.957 12.4256 110.682 12.6327 111.407 13.0469C111.743 13.3834 111.691 13.694 111.381 14.0047C110.656 14.0305 109.957 14.0564 109.258 14.0823Z" fill="#6E675F"/>
<path d="M111.381 14.0047C111.381 13.694 111.407 13.3834 111.407 13.0469C112.494 13.0469 113.555 13.0727 114.643 13.0727C114.41 13.2798 114.177 13.4869 113.944 13.694C113.115 14.2635 112.209 13.7717 111.381 14.0047Z" fill="#7F786D"/>
<path d="M118.318 13.8493C118.163 13.6164 118.033 13.3834 117.878 13.1504C118.862 13.0469 119.794 13.1504 120.57 13.9011H120.544C119.794 14.1082 119.043 14.0564 118.318 13.8493Z" fill="#726C63"/>
<path d="M97.9456 14.1082C97.9456 13.7976 97.9455 13.4869 97.9714 13.1763C98.4892 13.3316 99.0328 13.4869 99.5505 13.6422L99.5246 13.5905C99.3952 15.0919 98.4892 14.0305 97.9456 14.1082Z" fill="#56514B"/>
<path d="M138.354 13.6164C139.053 14.2376 140.374 13.8493 140.762 15.0401C138.354 15.5578 138.354 15.5578 138.354 13.6164Z" fill="#F3E5D1"/>
<path d="M162.739 64.3539C162.481 64.1209 162.248 63.8879 161.989 63.6549C162.118 63.2408 162.222 62.6195 162.791 63.0078C163.309 63.3184 163.205 63.9138 162.739 64.3539Z" fill="#BAB3AA"/>
</svg>
