<svg width="153" height="85" viewBox="0 0 153 85" fill="none" xmlns="http://www.w3.org/2000/svg">
<path d="M149.244 41.4144C150.761 40.8651 151.065 41.8264 151.293 42.7877C151.672 44.3898 152.026 45.9919 152.38 47.594C152.81 49.013 152.76 50.432 152.406 51.8739C151.546 56.0852 150.483 60.2735 148.055 63.9813C143.324 71.1679 136.191 75.3792 127.236 77.1644C125.946 77.4161 124.706 77.8052 123.442 78.0798C120.482 78.6978 117.573 78.5147 114.664 77.7823C113.424 77.4619 112.261 77.6679 111.097 78.1943C102.319 82.314 93.0105 84.145 83.0944 84.4425C77.504 84.6027 71.8882 84.9002 66.2978 84.7171C58.203 84.4425 50.083 84.0763 42.2918 81.4443C38.3203 80.1168 34.8041 78.2858 32.1227 75.3562C31.0603 74.189 29.9725 73.8457 28.3283 73.777C20.9418 73.5253 13.7831 72.0376 8.92623 66.7049C-2.10287 54.5746 -3.67123 42.3299 8.52148 29.925C12.4677 25.8969 17.5016 22.5325 23.8762 21.7772C26.7094 21.4339 27.443 19.0765 28.7837 17.4744C33.7417 11.6381 40.4451 8.59412 48.034 6.60293C58.4813 3.85646 69.1815 2.75788 79.9324 3.51316C83.9292 3.78781 86.5346 1.77372 89.8737 1.13288C103.078 -1.4076 115.448 0.30894 127.008 6.44272C133.687 9.96736 137.405 15.3459 138.215 22.4409C138.442 24.3863 138.037 26.492 139.505 28.3458C140.516 29.5817 141.073 30.7261 143.021 31.4814C146.461 32.8088 148.561 35.6926 149.75 39.0113C150.129 40.087 149.421 40.0183 148.687 40.0183C146.638 39.5835 146.942 37.4778 145.677 36.4937C144.994 35.624 144.437 34.6169 143.046 34.1821C142.388 35.0518 143.223 36.0131 142.818 36.837C142.743 37.0659 142.591 37.2719 142.414 37.4321C141.807 37.8898 141.174 37.8669 140.491 37.5694C140.238 37.4321 140.036 37.2719 139.884 37.043C139.732 36.8141 139.631 36.5852 139.53 36.3335C137.279 24.4092 127.337 19.4656 115.954 19.2367C110.743 19.1452 105.658 20.2209 100.498 20.198C97.6902 20.0149 94.933 20.2895 92.1757 20.6557C89.9749 20.793 87.8247 21.1821 85.7504 21.8687C83.6509 22.5325 82.0319 23.7455 80.5141 25.1874C79.4264 26.2173 78.111 26.9268 77.2004 24.9356C77.7316 22.9215 79.5023 21.7543 81.0453 20.4268C81.956 20.0835 82.715 19.4885 83.6509 19.168C89.469 16.8107 95.7677 17.3371 101.864 16.8106C104.621 16.5589 107.379 16.3758 110.136 16.0783C111.628 15.8952 113.146 15.918 114.664 15.918C115.094 15.8494 115.549 15.8952 115.979 15.918C117.118 15.918 118.256 15.8494 119.369 16.0554C119.9 16.124 120.406 16.3758 120.963 16.3987C122.835 16.536 124.605 16.9937 126.376 17.4973C126.857 17.6575 127.312 17.8635 127.793 18.0466C130.499 18.9849 133.029 20.2208 135.23 22.3036C135.533 19.4427 133.965 17.3142 132.801 15.0712C131.713 12.9427 129.69 11.5695 127.894 9.99025C117.092 3.14697 105.077 1.45331 92.2768 3.21563C91.5432 3.30718 90.8349 3.49028 90.0761 3.53605C93.1116 3.83358 95.8436 4.84062 98.4491 6.21385C99.4609 6.74026 100.523 7.47265 99.891 8.66279C99.2838 9.78426 98.0696 9.39519 97.1084 9.02899C87.597 5.22971 77.6304 5.66457 67.5879 6.23675C61.4409 6.58006 55.3698 7.33533 49.4252 8.823C34.9053 12.4621 26.3805 21.2279 22.915 34.2736C22.3837 36.219 22.5102 38.2102 22.6114 40.2014C22.6873 41.4373 23.1173 43.131 21.3213 43.4056C19.3735 43.6803 19.5759 41.8264 19.1459 40.7049C19.0447 40.3387 19.0194 39.9726 19.0447 39.6064C19.6012 38.3476 19.1205 37.1345 18.7664 35.9215C19.4494 31.9849 20.6636 28.2085 22.8391 24.6839C22.1308 24.4779 21.5742 24.7983 21.0683 24.9814C11.1523 28.918 2.50098 38.0958 3.10808 48.1433C3.79108 59.6327 12.24 70.8703 27.9742 71.2365C36.6254 71.4425 45.2767 71.9232 53.928 72.3351C54.7881 72.77 56.4323 72.4496 56.4323 73.6168C56.407 74.807 54.8133 74.8298 53.8015 75.2418C50.3865 75.6309 46.9968 75.608 43.5818 75.2189C41.1534 74.9443 38.7756 75.0129 35.8919 75.0587C37.2832 76.3633 38.5985 77.027 39.9139 77.5763C45.6056 79.9795 51.6007 81.2383 57.8994 81.6502C64.9823 82.1309 72.0652 82.0851 79.1481 82.0851C93.2886 82.0622 106.266 78.4689 118.281 71.8545C120.963 70.3897 122.986 68.3299 124.631 65.9267C125.415 64.7823 126.022 63.5235 127.261 62.6996C127.666 62.4936 128.071 62.4478 128.526 62.5165C129.108 62.7225 129.437 63.0887 129.614 63.6151C128.374 67.5059 125.921 70.6644 122.455 73.182C121.722 73.7312 120.861 74.1661 120.077 74.6467C119.293 75.1274 118.433 75.5394 117.446 75.8369C118.585 75.9513 119.647 75.9284 120.735 75.9284C121.443 75.9513 122.152 75.9055 122.835 75.6767C123.315 75.5622 123.796 75.4936 124.276 75.4478C124.884 75.402 125.465 75.1731 126.072 75.0587C133.889 73.3879 140.39 69.8862 145.044 63.8211C147.018 60.9602 148.181 57.8017 149.117 54.5746C149.269 54.0024 149.547 53.4531 149.547 52.8352C150.154 50.6151 149.825 48.3951 149.446 46.175C149.269 44.6644 148.08 43.0623 149.244 41.4144Z" fill="#101010"/>
<path d="M146.132 36.0359C147.625 36.9972 147.549 38.8282 148.713 39.9726C148.89 40.4532 149.067 40.9338 149.244 41.4145C149.547 43.0166 149.876 44.5958 150.18 46.1979C149.952 46.587 150.028 47.1363 149.421 47.3651C149.168 47.4567 148.637 47.4109 148.738 47.4567C151.04 48.6697 149.016 50.7296 149.927 52.2172C150.129 52.5377 149.851 52.9954 150.18 53.3387C150.306 53.888 150.003 54.3229 149.725 54.7577C148.864 55.2841 147.979 55.8105 146.74 55.513C147.524 57.7102 146.512 59.7929 146.31 61.9214C146.234 62.6996 145.551 63.5007 144.488 63.7066C144.261 63.7524 143.78 63.638 143.805 63.7295C144.463 65.5147 143.274 66.4989 141.782 67.0253C140.213 67.5975 138.493 67.7119 137.304 66.1556C136.596 65.652 136.216 66.3387 135.761 66.5218C135.938 66.5447 135.989 66.4302 136.09 66.3844C136.469 66.1327 136.849 65.9038 137.304 66.2471C137.835 66.9109 138.038 67.689 138.265 68.4443C138.392 68.8334 138.442 69.2225 138.341 69.6116C137.987 70.8475 132.624 73.6626 131.435 73.0217C129.892 72.1749 128.223 72.358 126.452 72.1063C126.149 73.3193 127.262 74.6696 126.047 75.7225C125.592 76.0658 125.086 76.2946 124.454 76.1573C123.998 75.7911 123.872 75.3105 124.024 74.6467C123.265 75.1274 122.936 75.608 122.936 76.2488C122.304 76.7981 121.519 76.6608 120.786 76.5922C120.229 75.8827 119.698 75.1731 119.647 74.2805C124.125 71.7401 127.034 68.0323 129.26 63.8211C131.183 62.8141 131.284 60.8915 132.017 59.2894C133.51 58.3739 134.041 57.2296 133.206 55.6961C132.068 53.5676 133.51 51.9655 134.572 50.2718C134.952 49.4021 135.66 48.7384 136.343 48.0518C139.151 45.3053 141.832 42.513 141.731 38.4162C141.731 37.9585 142.085 37.5465 142.287 37.1117L142.465 37.1803C142.996 36.9286 143.578 38.3247 144.159 37.0659C144.463 36.4479 145.272 36.0817 146.132 36.0359Z" fill="#F2E4CF"/>
<path d="M152.406 51.8739C152.406 50.4549 152.38 49.0359 152.38 47.594C153.215 49.013 153.19 50.4549 152.406 51.8739Z" fill="#3C3A39"/>
<path d="M127.691 63.02C123.77 70.9848 115.777 74.3263 107.682 77.645C100.346 80.6432 92.7321 82.0622 84.7132 82.52C75.0754 83.0693 65.4376 83.1379 55.8504 82.314C47.9074 81.6274 40.0404 80.1168 33.6911 74.4408C40.6728 73.8686 47.2497 75.196 53.852 74.7154C53.9785 74.7383 54.0797 74.7612 54.2062 74.7841C55.0662 75.0358 55.3698 75.5394 55.0662 76.3404C54.6868 76.8668 54.1556 76.9813 53.8267 76.9355C54.535 76.9584 55.5722 76.7295 56.5081 77.2788C57.4947 77.8738 58.38 78.5834 59.3918 79.1098C59.8219 79.3386 60.2266 79.5446 60.6566 79.7506C64.7546 80.8721 68.8526 80.9636 73.1277 80.8492C78.0098 80.7119 81.956 78.7664 86.1805 77.2101C87.167 76.8439 88.1282 76.4548 89.216 76.5464C89.4689 76.5693 89.7219 76.615 89.9749 76.7066C90.329 76.821 90.6325 77.0041 90.9361 77.1872C91.6191 77.7594 92.378 78.1027 93.3392 77.6908C93.5416 77.5763 93.7187 77.4848 93.9211 77.3703C95.0847 76.432 96.7289 77.2101 97.9178 76.3633C98.1202 76.2489 98.3478 76.1344 98.5502 76.0658C101.383 74.8298 104.166 73.6168 106.316 71.4426C107.834 69.9091 109.807 69.4971 112.008 70.0464C112.792 70.2066 113.525 70.2295 114.031 69.52C114.714 68.3985 115.802 67.5517 116.46 66.4302C117.699 64.5993 119.571 63.2718 120.963 61.5324C122.683 59.3352 123.163 56.7031 124.681 54.506C124.934 54.1627 124.934 53.7965 124.833 53.3616C124.099 50.9127 118.231 48.4866 115.448 49.4936C113.728 50.8211 112.716 52.7208 110.996 54.0482C109.908 55.1468 109.023 56.4514 107.556 57.2067C106.721 58.9003 105.557 59.7014 103.255 59.9302C101.282 60.1362 99.1573 61.1433 97.336 62.3105C97.0324 62.5165 96.7036 62.6996 96.3495 62.8598C92.4792 63.8898 89.2159 66.27 85.1686 66.888C80.1346 68.7876 75.2272 70.939 70.2439 72.976C64.7546 73.7313 59.2654 74.0059 53.8014 72.9531C47.2497 72.7471 40.6727 72.7013 34.1211 72.2894C28.7583 71.9461 23.3197 72.0376 18.1845 70.2066C9.22973 67.0253 4.95467 60.2965 2.8298 52.5606C0.173711 42.8793 4.77756 35.1434 12.7458 28.8722C16.0343 26.3089 19.4999 23.9515 24.4327 23.5166C21.4477 27.4532 20.5877 31.9163 18.9687 36.1504C18.9181 37.2032 19.4999 38.2331 19.1964 39.3088C19.0952 39.7437 18.5639 40.3159 19.6264 40.3616C20.4611 41.1169 19.3482 43.1997 21.0177 42.9937C22.8896 42.7648 21.7513 40.9796 21.6754 39.9726C20.8154 28.4145 30.5037 12.3248 49.0711 8.15928C62.5286 5.13816 76.1126 4.31422 89.8484 6.12231C92.555 6.48851 95.0087 7.47266 97.4119 8.57125C98.0949 8.86878 98.9044 9.48674 99.4609 8.57125C99.9668 7.70153 99.0814 7.38111 98.3731 7.01492C95.5653 5.57302 92.5804 4.58887 89.3425 4.26845C88.6595 4.19979 87.9258 4.26845 87.3187 3.44451C101.358 0.354731 114.563 1.54487 126.907 8.52548C127.565 8.91457 128.248 9.23498 128.627 9.89871C128.425 11.4093 127.211 10.8829 126.3 10.7913C123.265 10.5396 121.089 8.38815 118.18 7.7702C116.688 7.44978 115.271 6.67161 113.652 7.26668C113.02 7.42689 112.438 7.31245 111.831 7.17513C111.603 7.12935 111.375 7.03781 111.148 6.94626C110.844 6.80893 110.541 6.6716 110.212 6.51139C109.402 6.19097 108.567 6.07654 107.707 6.19097C107.379 6.41985 107.277 6.80893 107.05 7.10647C105.431 8.34238 104.014 6.41985 102.294 6.8776C102.37 8.43393 105.38 8.36526 104.697 10.2649C104.495 10.7226 104.09 10.9744 103.559 11.066C103.078 10.9973 102.598 11.0202 102.117 11.1117C100.7 10.9744 99.2838 11.1575 97.9937 11.661C94.604 13.0343 91.0626 13.1487 87.4705 12.8969C86.5599 12.8283 85.801 12.1417 84.8145 12.3248C84.4856 12.3934 84.1567 12.4621 83.8279 12.5308C83.1702 12.7367 82.4872 12.874 81.8042 12.9656C80.3117 13.1945 78.8445 13.4691 77.7315 14.5448C77.3268 14.8195 76.9221 15.0026 76.4161 15.0483C74.5695 14.6821 73.0771 15.5976 71.4581 16.1012C70.7498 16.4445 70.0163 16.8107 69.3333 17.1998C67.7143 18.4814 66.323 19.9462 64.704 21.2279C62.6045 23.7226 62.6045 24.0659 64.5017 26.4004C64.6788 26.5377 64.8558 26.6751 65.0329 26.8353C67.006 27.9568 68.7767 28.6205 70.5727 26.3775C71.4581 25.2789 73.2541 25.0272 74.5442 24.249C75.5561 24.2719 76.8462 22.9673 77.4786 24.7525C78.0098 26.0571 78.6169 26.1487 79.6035 25.0043C81.0959 23.2878 82.8666 21.823 85.3456 21.2966C86.1551 21.4339 86.6611 22.1205 87.4199 22.3494C89.6966 23.0589 91.5432 23.036 93.5163 21.205C95.287 19.5343 98.1707 19.786 100.65 19.5114C106.215 19.0994 111.755 18.0924 117.345 18.4814C126.249 19.0765 133.737 21.9832 137.987 29.6504C139.201 31.8247 140.137 34.1134 140.112 36.6081C139.884 36.9514 139.833 37.5465 139.429 37.5694C136.849 37.6381 136.545 39.7208 135.483 41.1398C134.926 41.9866 134.799 42.9708 134.496 43.8863C134.445 44.1152 134.369 44.3211 134.268 44.5271C133.079 47.4796 132.118 50.5007 130.828 53.4303C130.777 53.6362 130.676 53.8651 130.6 54.0711C130.019 55.6274 129.715 57.2753 129.184 58.8546C129.133 59.0834 129.057 59.2894 128.956 59.4954C128.83 60.7542 128.754 62.0588 127.691 63.02Z" fill="#FEFEFE"/>
<path d="M111.451 6.60292C111.553 6.55714 111.654 6.55714 111.755 6.60292C112.893 7.54129 114.107 8.20504 115.726 7.7244C116.131 7.49553 116.561 7.31243 117.042 7.38109C117.699 7.67863 118.13 8.15926 118.408 8.77722C118.509 9.25785 118.661 9.73848 119.192 9.99024C120.128 10.3335 121.039 10.7226 122.05 10.3793C122.379 10.242 122.683 10.1276 123.037 10.036C123.543 9.94445 123.973 10.1276 124.428 10.242C125.541 10.9515 126.427 12.0043 127.894 12.2332C128.121 12.3247 128.324 12.4163 128.526 12.5307C129.285 13.7895 131.663 14.0871 131.157 16.124C130.98 16.2842 130.778 16.3987 130.55 16.4902C127.287 16.6504 124.023 16.6733 120.76 17.0166C120.305 17.0853 119.85 17.0853 119.521 16.7191C118.509 13.7666 117.219 15.9867 116.005 16.5589C115.65 16.5589 115.296 16.5589 114.942 16.5589C113.652 15.7349 111.704 15.7349 111.097 13.9726C110.996 13.6751 110.313 13.8124 109.883 13.8353C109.251 13.9268 108.593 13.9497 107.96 13.9497C107.025 13.9497 106.063 13.9497 105.127 13.9726C104.849 13.9726 104.571 13.9955 104.292 13.9955C102.218 14.2473 100.169 14.7508 98.0697 14.7966C97.3361 14.6592 96.7796 14.3388 96.6025 13.6293C96.6531 12.0959 97.3867 11.2719 99.1827 11.7297C100.599 12.0959 101.636 11.4092 102.724 10.8142C102.876 10.5853 103.028 10.4709 103.331 10.6311C106.114 11.9357 109.251 11.0202 112.134 11.7754C112.944 11.8899 113.779 11.7983 114.588 11.8899C115.853 12.6452 117.371 12.2332 118.737 12.5765C118.888 12.5765 119.04 12.6452 119.192 12.5994C119.04 12.5536 118.888 12.5307 118.737 12.5307C117.573 12.0959 116.232 12.7367 115.119 12.0272C114.107 11.661 113.02 11.9814 111.983 11.7297C110.288 11.5008 108.593 11.2948 106.873 11.3406C105.911 11.3635 104.95 11.3177 104.419 10.4022C104.773 8.75433 102.648 9.21207 102.193 8.27369C101.839 7.5413 100.397 7.198 101.08 6.16807C101.687 5.25258 102.648 6.21384 103.458 6.07652C104.723 5.84765 105.684 7.99904 107.1 6.4656C107.303 6.35116 107.505 6.30539 107.758 6.30539C108.542 6.41982 109.326 6.39693 110.085 6.44271C110.566 6.58003 110.996 6.6258 111.451 6.60292Z" fill="#F2E4D0"/>
<path d="M104.318 13.3318C104.596 13.3318 104.849 13.3547 105.127 13.3547C106.215 14.0642 107.404 13.7209 108.593 13.6293C108.972 13.5607 109.301 13.698 109.554 13.9269C110.237 14.7508 110.161 15.735 110.338 16.6733C105.911 17.6575 101.358 17.749 96.8806 17.9092C92.2261 18.0923 87.7234 18.5959 83.3472 19.9004C82.6389 19.58 81.9306 20.0835 81.2223 19.9004C80.6152 19.8089 80.0587 19.58 79.6034 19.168C79.4769 18.9621 79.4263 18.7561 79.4516 18.5272C79.5781 18.2068 79.8057 17.955 80.1093 17.749C80.6405 17.4744 81.197 17.3371 81.8042 17.2455C82.4871 17.2226 83.1701 17.1769 83.8278 17.0166C84.3843 16.9251 84.9156 16.8107 85.4468 16.6276C86.4081 16.3758 87.3693 16.124 88.2546 15.735C88.7606 15.529 89.1653 15.1628 89.646 14.9339C89.9748 14.8195 90.3036 14.7737 90.6578 14.7508C91.6696 14.8424 92.5044 14.4304 93.238 13.8811C93.415 13.7438 93.6174 13.6293 93.8198 13.5378C94.5787 13.286 95.2364 12.7825 96.0964 12.8283C96.4759 12.874 96.7795 13.0114 97.0071 13.2631C97.0324 13.8582 97.3865 14.1786 98.0442 14.2244C98.2213 14.3159 98.2719 14.4533 98.2719 14.6135C98.4237 15.117 98.7526 14.5906 98.9802 14.705C100.751 14.1786 102.85 14.705 104.318 13.3318Z" fill="#F1E3D0"/>
<path d="M126.047 75.6995C126.3 74.1661 125.364 72.7929 125.415 71.0305C127.514 72.2436 130.196 70.7101 132.093 72.7242C132.523 73.182 133.408 72.152 134.091 71.8316C135.128 71.351 135.381 69.7489 137.203 70.2066C137.734 70.3439 138.063 69.314 137.658 68.6732C137.177 67.8721 137.051 67.0253 137.076 66.1327C136.95 65.8809 137.051 65.7436 137.354 65.7207C139.96 67.3915 141.478 66.9108 143.172 64.7365C144.336 63.2489 142.11 64.0957 142.489 63.3404C143.122 63.3404 143.805 63.3404 144.488 63.3404C144.842 63.6608 145.93 63.3175 145.55 64.3017C140.795 70.5728 134.243 74.3034 126.047 75.6995Z" fill="#F5EADA"/>
<path d="M53.8519 72.9531C59.4676 72.8386 65.1087 72.8844 70.6991 72.3122C71.9639 71.9231 73.2287 71.351 74.4935 72.3122C74.8983 74.6925 72.8493 74.9442 71.2051 74.99C67.0059 75.0816 62.8321 75.4936 58.6329 75.5851C56.9887 75.5393 55.3697 75.4249 53.8267 74.8756L53.8772 74.7154C54.5602 74.4179 55.2432 74.0974 56.1792 73.6855C55.395 73.1362 54.3578 73.5939 53.8519 72.9531Z" fill="#191818"/>
<path d="M124.454 10.4251C123.922 10.4251 123.391 10.4251 122.885 10.4251C121.19 10.9744 120.305 9.05188 118.686 9.32653C118.458 9.23498 118.281 9.09766 118.155 8.91456C117.776 8.4797 117.042 8.27372 117.067 7.56422C116.005 7.51844 114.942 7.90752 113.905 7.42688C113.678 7.33533 113.501 7.17514 113.374 6.99204C113.855 6.32831 114.462 6.03077 115.347 6.30541C118.18 7.15224 121.089 7.72442 123.669 9.32653C124.985 10.1505 126.832 10.9515 128.678 9.87582C130.651 11.1575 132.371 12.6223 133.307 14.705C133.333 17.7719 131.638 18.9163 127.616 18.4814C127.211 18.4814 126.73 18.5959 126.477 18.1381C126.123 16.9938 127.11 17.0624 127.869 16.6733C128.83 16.1927 129.943 16.7878 130.752 16.0783C131.258 15.7578 131.967 15.3688 131.157 14.8423C130.12 14.1557 129.462 13.0343 128.122 12.7367C127.616 11.1346 125.364 11.6153 124.454 10.4251Z" fill="#FAF8F4"/>
<path d="M127.615 18.5043C130.17 18.0466 132.826 17.7261 133.307 14.7279C134.976 17.3142 136.57 19.9233 135.862 23.4022C133.256 21.3652 130.575 19.7402 127.615 18.5043Z" fill="#FCFCFB"/>
<path d="M142.287 37.0887C143.223 42.0553 140.339 45.4884 136.595 48.5782C135.862 48.8299 135.255 48.6468 134.774 48.0975C134.344 46.7929 135.305 46.0377 136.14 45.2137C138.442 43.5658 139.757 41.4373 140.036 38.7824C140.112 38.1416 140.213 37.5236 140.82 37.0887C141.326 37.3176 141.806 37.5007 142.287 37.0887Z" fill="#1F1E1C"/>
<path d="M145.525 64.2788C145.171 63.9584 144.817 63.638 144.462 63.3176C146.41 60.4338 147.093 57.4584 145.221 54.1169C146.511 55.9936 148.232 54.2313 149.673 54.7348C149.041 58.1908 147.599 61.3493 145.525 64.2788Z" fill="#F2E6D4"/>
<path d="M100.751 19.5571C99.4102 20.2438 97.8166 20.1751 96.3747 20.7473C94.9328 21.2966 93.7692 21.823 92.6814 22.9444C90.9107 24.7983 88.9123 23.1733 87.0151 22.83C88.3052 21.5026 90.5313 21.4568 91.7708 20.0378C94.7558 19.58 97.7407 19.374 100.751 19.5571Z" fill="#F5F0E7"/>
<path d="M79.6794 19.0307C80.2107 19.1909 80.7419 19.3283 81.2478 19.4885C81.9814 19.9462 82.209 20.404 81.2478 20.8617C80.1348 22.2578 78.4399 23.1962 77.5798 24.7754C76.5427 23.9286 75.455 25.073 74.3926 24.7297C74.2914 24.6839 74.1649 24.6381 74.0637 24.5923C73.7601 22.7614 74.5949 21.5026 76.5427 20.999C77.4027 20.7931 78.2376 20.7473 78.5664 19.8547C78.8194 19.4656 79.1229 19.1223 79.6794 19.0307Z" fill="#FBF8F3"/>
<path d="M140.845 37.1117C140.82 40.5447 139.935 43.6574 136.57 45.7631C136.292 45.5113 136.064 45.2366 135.963 44.8704C135.837 44.2754 135.887 43.7032 136.039 43.131C136.09 42.9021 136.191 42.6961 136.292 42.4902C136.823 41.5976 137.102 40.7736 136.798 39.675C136.545 38.7138 137.102 37.455 138.468 38.0272C140.011 38.668 139.682 37.2948 140.314 37.043C140.491 37.043 140.668 37.0659 140.845 37.1117Z" fill="#F2E5D2"/>
<path d="M146.132 36.0359C145.601 37.249 143.375 37.3405 143.982 39.2173C142.515 38.8053 143.249 37.6152 142.49 37.1574C142.287 36.0131 142.034 34.8687 141.857 33.7243C141.706 32.8088 142.212 32.5571 143.046 33.0148C144.362 33.7701 145.525 34.6627 146.132 36.0359Z" fill="#F3E7D7"/>
<path d="M140.314 37.0201C140.263 37.7983 140.238 38.5993 140.188 39.3775C139.505 39.5835 139.277 39.0342 138.923 38.7824C138.493 38.4849 138.139 38.0958 137.582 38.5078C137.051 38.8969 136.848 39.6521 137.278 39.9955C139.1 41.4373 137.253 42.0095 136.57 42.8564C135.154 42.8335 134.294 42.4215 134.977 40.9567C135.305 40.0183 136.393 39.4462 136.165 38.2102C136.039 37.5465 136.798 37.0659 137.633 37.4092C138.771 37.8669 139.403 37.0888 140.213 36.6768C140.314 36.7455 140.365 36.8599 140.314 37.0201Z" fill="#F4EADD"/>
<path d="M91.796 20.0378C91.5684 22.8758 88.8365 22.1892 87.0404 22.83C86.0033 22.7842 85.8262 21.9832 85.4468 21.3423C87.4199 20.3582 89.5447 19.992 91.796 20.0378Z" fill="#F3E9DB"/>
<path d="M130.778 16.1469C130.626 16.6733 130.803 17.4057 129.639 17.0624C128.349 16.6733 127.211 17.0167 126.503 18.1839C124.605 17.7948 122.683 17.4057 120.786 17.0166C123.214 16.948 125.364 14.911 128.096 16.2156C128.627 16.4674 129.842 15.8723 130.778 16.1469Z" fill="#F4EADC"/>
<path d="M110.338 16.6733C108.871 16.2385 109.934 14.8652 109.175 14.1557C109.352 13.6751 110.01 13.6751 110.212 13.2631C110.44 13.1716 110.642 12.9885 110.87 12.9656C112.716 12.8054 111.957 15.4603 112.944 15.0712C115.296 14.0871 114.032 16.3987 114.942 16.5589C113.425 16.5818 111.881 16.6276 110.338 16.6733Z" fill="#F6ECDE"/>
<path d="M132.346 59.5183C132.219 59.7929 131.891 60.1362 131.966 60.3651C132.978 62.7911 131.233 63.3633 129.234 63.7982C129.032 63.5235 128.804 63.2489 128.602 62.9742C129.487 61.6697 128.88 60.3651 128.653 59.0605C129.917 58.1222 131.182 57.2982 132.295 59.2207C132.321 59.3123 132.346 59.4267 132.346 59.5183Z" fill="#F6EBDC"/>
<path d="M150.18 53.3158C149.142 52.3774 148.384 51.4162 149.142 49.9285C149.952 48.3493 147.599 47.9602 147.397 46.5183C148.308 46.4954 149.547 47.5711 150.205 46.175C150.787 48.5781 150.812 50.9355 150.18 53.3158Z" fill="#F2E6D4"/>
<path d="M119.647 74.2577C120.229 74.9443 121.671 75.2876 120.785 76.5693C119.268 76.7524 117.75 76.8668 116.131 75.9742C117.396 75.3562 118.534 74.807 119.647 74.2577Z" fill="#F1E8DB"/>
<path d="M116.03 16.5589C116.131 15.2772 117.32 14.6135 118.306 14.3159C118.939 14.11 119.597 15.3001 120.027 16.0096C120.102 16.1469 119.723 16.4902 119.546 16.7191C118.382 16.6733 117.193 16.6047 116.03 16.5589Z" fill="#F7F0E5"/>
<path d="M122.936 76.226C121.367 75.9284 122 75.1045 122.632 74.601C123.239 74.1203 124.023 73.8228 124.352 72.6327C125.263 74.1432 124.125 75.1274 124.453 76.1115C123.947 76.1573 123.442 76.2031 122.936 76.226Z" fill="#F1E8DB"/>
<path d="M128.678 59.0376C128.703 59.175 128.703 59.4267 128.804 59.4725C131.208 60.7313 130.272 61.8528 128.627 62.9514C128.324 62.9743 128.02 62.9971 127.691 63.02C128.147 61.7154 127.818 60.2735 128.678 59.0376Z" fill="#FAF4EB"/>
<path d="M19.0195 39.4233C18.3618 38.3247 18.1595 37.249 19.0449 36.1733C20.5879 37.0888 19.9555 38.3247 19.6519 39.5148C19.399 39.6521 19.1713 39.6292 19.0195 39.4233Z" fill="#D3D3D3"/>
<path d="M81.2476 20.8617C81.6017 20.4039 81.5511 19.9462 81.2476 19.4885C81.9811 19.4656 82.8918 18.8476 83.3471 19.9233C82.6388 20.2437 82.1835 20.999 81.2476 20.8617Z" fill="#F8F1E6"/>
<path d="M19.0195 39.4232C19.2219 39.4461 19.4496 39.4919 19.6519 39.5148C19.6772 39.8123 19.6772 40.087 19.7025 40.3845C19.1966 40.3845 19.1207 41.3458 18.716 40.9567C18.4883 40.7278 17.6535 39.6979 19.0195 39.4232Z" fill="#A6A6A6"/>
<path d="M135.027 50.4778C135.078 50.5465 135.204 50.638 135.204 50.638C133.13 52.7665 133.509 54.9866 134.471 57.4584C134.85 58.4426 133.383 59.0605 132.346 59.5183C132.118 59.2665 131.89 58.969 131.89 58.6943C131.84 56.932 131.081 55.3528 130.246 53.8193C131.511 52.9725 131.612 51.439 132.674 50.4549C133.459 50.0658 134.268 49.9743 135.027 50.4778Z" fill="#F6EBDC"/>
<path d="M141.326 52.8581C141.301 53.5447 140.795 53.9338 140.314 54.3458C139.252 54.4602 139.505 55.101 139.707 55.6961C138.72 57.0236 138.088 58.557 136.671 59.6098C136.596 59.5412 136.494 59.4954 136.418 59.4267C136.115 58.9232 136.494 58.4883 136.494 58.0077C136.14 55.6046 138.467 54.1855 139.15 52.1715C139.15 52.1486 139.909 52.3317 140.289 52.4232C140.719 52.3546 141.073 52.5377 141.326 52.8581Z" fill="#9B9286"/>
<path d="M143.425 58.0992C142.717 59.9073 141.351 61.2119 139.479 62.6996C139.353 59.9531 142.186 59.3809 142.844 57.5728C143.172 57.6186 143.375 57.8017 143.425 58.0992Z" fill="#BCB0A1"/>
<path d="M135.027 50.4778C134.319 50.844 133.585 51.1873 132.877 50.4778C132.219 48.8299 133.307 48.3035 134.799 48.006C135.406 48.1891 136.013 48.3722 136.62 48.5553C136.089 49.219 135.558 49.837 135.027 50.4778Z" fill="#2D2B28"/>
<path d="M141.326 52.8581C140.896 52.8581 140.517 52.7665 140.264 52.4003C140.972 51.4391 141.655 50.4778 142.363 49.5166C142.717 49.2419 143.097 49.219 143.451 49.5166C142.97 50.7525 142.186 51.8282 141.326 52.8581Z" fill="#81796F"/>
<path d="M136.646 59.5869C135.609 60.1591 135.179 61.4408 133.585 61.8299C134.015 60.8457 134.294 60.0676 135.027 59.5183C135.483 59.1521 135.963 59.0605 136.469 59.4267L136.646 59.5869Z" fill="#9B9286"/>
<path d="M142.894 48.0975C143.223 47.6169 143.552 47.1363 143.881 46.6557C144.26 46.381 144.639 46.3581 145.019 46.6785C144.867 47.4109 144.589 48.0747 143.931 48.5782C143.375 48.807 143.122 48.4637 142.894 48.0975Z" fill="#ADA394"/>
<path d="M144.438 45.2137C144.589 44.2296 144.867 43.3827 146.512 43.6574C146.208 44.2067 145.905 44.7331 145.601 45.2366C145.196 45.5113 144.817 45.4884 144.438 45.2137Z" fill="#928A7F"/>
<path d="M139.682 55.6961C138.721 55.2384 138.442 54.6662 139.353 53.9338C140.036 53.4074 140.163 53.8651 140.289 54.3686C140.112 54.8035 139.91 55.2384 139.682 55.6961Z" fill="#857D72"/>
<path d="M137.355 65.7207C137.253 65.858 137.178 65.9953 137.076 66.1327C136.748 66.3158 136.393 66.4989 136.065 66.682C135.508 66.9337 134.952 67.1168 135.027 66.2013C136.014 66.8879 135.963 63.5006 137.355 65.7207Z" fill="#B4A99A"/>
<path d="M136.469 59.4267C135.989 59.4496 135.508 59.4954 135.027 59.5183C134.926 58.557 135.483 58.0993 136.469 57.9848C137.127 58.4655 136.495 58.9461 136.469 59.4267Z" fill="#716A61"/>
<path d="M135.027 66.2242C135.255 66.6133 135.659 66.6591 136.064 66.7048C135.609 67.2541 135.28 67.9407 134.293 67.9636C133.813 67.1168 134.445 66.659 135.027 66.2242Z" fill="#CABEAD"/>
<path d="M144.438 45.2137C144.817 45.2137 145.196 45.2366 145.601 45.2366C145.424 45.7173 145.222 46.1979 145.045 46.6785C144.665 46.6785 144.286 46.6557 143.906 46.6557C143.957 46.1292 143.957 45.5799 144.438 45.2137Z" fill="#7E776D"/>
<path d="M143.426 58.0993C143.223 57.9162 143.021 57.7559 142.844 57.5728C143.173 57.0693 143.501 56.5887 143.83 56.0852C144.235 56.0623 144.286 56.3827 144.412 56.6116C144.083 57.1151 143.754 57.5957 143.426 58.0993Z" fill="#948B7F"/>
<path d="M142.894 48.0975C143.249 48.2577 143.577 48.418 143.932 48.5782C143.754 48.8986 143.603 49.219 143.426 49.5394C143.071 49.5394 142.717 49.5394 142.338 49.5394C142.54 49.0359 142.717 48.5553 142.894 48.0975Z" fill="#5C5750"/>
<path d="M138.67 62.8827C138.771 62.9971 138.974 63.1345 138.999 63.3176C139.049 63.7066 138.695 63.8211 138.366 63.7982C138.189 63.7753 137.911 63.5693 137.911 63.432C137.962 63.1574 138.189 62.9285 138.67 62.8827Z" fill="#756E65"/>
<path d="M144.386 56.6116C144.184 56.4285 144.007 56.2454 143.805 56.0852C143.931 55.719 144.184 55.2612 144.589 55.4901C145.145 55.8334 144.69 56.2683 144.386 56.6116Z" fill="#6B655C"/>
<path d="M107.075 56.6574C108.947 56.3827 109.099 54.3 110.743 53.7964C112.817 53.0183 113.955 51.2331 115.65 49.9972C116.662 49.2648 117.573 48.9901 118.736 49.4708C118.989 49.5165 119.217 49.5623 119.47 49.6309C120.305 49.9056 121.114 50.1803 121.645 50.8669C122.303 52.1028 123.264 53.2243 121.721 54.6433C121.418 54.9179 121.19 56.2683 121.62 57.1151C121.696 57.6644 121.494 58.145 121.19 58.6257C120.608 59.4267 119.824 60.0218 119.116 60.7084C118.888 60.9373 118.66 61.1661 118.458 61.395C117.952 61.9443 117.421 62.4707 116.966 63.0429C116.384 63.6608 115.802 64.2788 115.372 64.9883C115.043 65.4232 114.689 65.8351 114.057 65.9038C113.449 65.9496 113.272 66.4302 112.969 66.7735C112.311 67.5059 111.527 68.307 110.439 68.1239C109.174 67.9179 108.795 66.888 108.719 65.8123C108.719 65.5834 108.77 65.3774 108.846 65.1714C109.149 64.3246 110.009 63.844 110.616 63.1345C109.781 63.5006 109.2 64.0499 108.618 64.5992C107.454 65.4689 106.746 66.7048 105.886 67.8034C104.823 68.4901 104.343 69.52 103.963 70.5957C103.635 70.7788 103.28 70.8017 102.926 70.7559C101.383 70.5499 99.7389 70.7559 98.5247 69.5658C98.2718 69.108 98.373 68.696 98.7018 68.307C100.017 67.2541 101.156 66.0869 101.838 64.5764C102.041 64.1873 102.319 63.8668 102.673 63.5922C103.103 63.2947 103.66 63.1802 104.09 62.9056C104.621 62.5851 104.95 62.1045 105.279 61.6239C105.608 61.2119 105.987 60.8457 106.367 60.4795C107.1 59.8158 107.96 59.1978 106.822 58.2366C106.695 57.7102 106.695 57.1609 107.075 56.6574Z" fill="#F3E5D1"/>
<path d="M64.3753 20.9075C65.9689 19.4885 67.5373 18.0466 69.131 16.6276C70.2187 16.9709 71.2053 17.1997 71.2306 15.6663C72.976 15.0941 74.5443 13.5607 76.6439 14.7737C76.7704 15.2314 76.5175 15.5519 76.2139 15.8723C75.7333 16.2614 75.1514 16.5589 74.7467 17.0167C74.2408 17.5659 73.6843 18.0466 73.1025 18.5043C72.3942 19.0536 71.7365 19.6487 70.8764 20.0149C69.9657 20.2666 69.7887 20.8617 69.7887 21.617C69.7887 22.4867 69.6369 23.3106 68.9033 23.9286C68.3974 24.455 67.9674 25.0958 69.131 25.1416C69.9657 25.1645 71.0029 24.5466 70.9017 25.9427C70.8005 27.2015 68.9034 28.5747 67.8409 28.1399C66.7279 27.6821 65.4884 27.6363 64.4259 27.087C63.8947 25.0501 64.7294 22.9673 64.3753 20.9075Z" fill="#F9F2E8"/>
<path d="M114.967 49.0359C117.295 47.0676 119.293 49.2419 121.418 49.5394C122.328 49.6538 123.087 50.6151 123.897 51.1873C125.743 52.4919 126.325 53.7277 124.959 55.9249C123.416 58.3967 122.379 61.189 120.431 63.5006C119.369 64.7594 118.155 65.9496 116.536 66.7048C116.435 66.6591 116.333 66.5904 116.232 66.5446C115.802 66.1326 115.6 65.6291 115.676 65.0569C115.853 64.1643 116.738 63.6608 117.143 62.8827C117.446 62.4478 117.952 62.1274 118.256 61.6925C118.483 61.4636 118.711 61.2348 118.964 61.0288C119.597 60.4566 120.229 59.8844 120.811 59.2894C121.317 58.7858 121.823 58.2823 122.303 57.7788C122.708 57.2982 122.759 56.7031 122.91 56.1538C123.796 54.1626 122.151 52.7665 121.494 51.1415C121.089 50.0887 119.9 50.4778 119.141 50.0429C117.952 49.013 116.232 49.814 114.967 49.0359Z" fill="#FAF7F3"/>
<path d="M84.9413 66.2013C88.1539 65.8351 90.7846 64.1415 93.6937 63.02C94.5538 62.6996 95.515 62.5852 96.4257 62.3563C96.7546 62.6309 96.6534 62.9513 96.5016 63.2718C96.4004 63.4549 96.2486 63.638 96.0715 63.7982C95.0091 64.6221 93.9467 65.4461 92.9602 66.3616C92.6566 66.5218 92.3277 66.5904 91.9736 66.6362C91.0629 66.5675 91.063 67.3915 90.6076 67.7806C87.6733 67.8492 86.9903 69.8175 86.4085 71.8545C86.1808 72.5182 85.6243 72.8386 84.8907 72.9531C83.2212 72.976 82.2346 72.2894 82.0322 70.7559C83.5247 69.4971 84.4606 67.9637 84.9413 66.2013Z" fill="#F7EFE4"/>
<path d="M90.2025 77.1643C90.0254 77.1643 89.8483 77.1643 89.6965 77.1643C88.9376 76.7295 88.1788 76.4548 87.2681 76.9583C84.7891 78.3087 81.88 78.8351 79.401 80.1854C77.0231 81.4671 74.6454 80.7576 72.2675 80.0939C72.1411 79.8879 72.0904 79.6819 72.1157 79.4531C72.2422 78.9953 72.394 78.5376 72.5963 78.1256C73.0011 77.3245 73.3805 76.7524 74.443 77.6907C75.6319 78.7207 76.9979 78.6978 78.4145 77.7594C80.5646 76.3175 83.2713 75.7224 85.3456 74.1203C87.3946 74.3263 89.4941 74.1432 91.4925 74.784C92.2514 76.0657 91.7708 76.8439 90.2025 77.1643Z" fill="#F6ECDE"/>
<path d="M72.2931 79.5446C74.7974 80.2312 77.4029 81.1239 79.7807 79.4531C82.0827 77.8281 85.346 78.1485 87.4455 76.0658C88.0273 75.4936 89.1656 76.3633 89.6968 77.1644C86.8637 77.1186 84.6376 78.7207 82.1333 79.5675C79.7302 80.3686 77.6306 81.9478 74.7468 81.1467C73.8868 80.9179 72.7232 81.7189 71.7114 81.696C67.7905 81.5816 63.7683 82.0622 60.1763 80.0481C60.6063 79.4302 61.2893 79.2471 61.9976 79.4302C64.5272 80.1168 67.2592 79.4302 69.7383 80.2541C70.9019 80.5974 71.2813 79.2929 72.2931 79.5446Z" fill="#FAF6F1"/>
<path d="M84.9408 66.2014C85.0926 68.1468 85.3203 70.138 82.2847 70.4813C81.6017 70.5499 81.1211 69.314 80.2357 70.3211C78.7433 72.0147 76.5678 72.2665 74.367 72.3809C73.1275 72.358 71.9133 72.3351 70.6738 72.2894C73.6588 70.2066 77.4784 69.6802 80.6657 67.895C82.0064 67.1855 83.5242 66.7735 84.9408 66.2014Z" fill="#F8F1E7"/>
<path d="M64.4004 27.1099C65.1846 27.2015 66.0699 27.0641 66.7023 27.3846C69.1814 28.6205 69.6873 27.0641 70.4714 25.5307C69.1307 25.2103 69.3331 26.7208 68.3719 26.7208C67.3095 23.9057 67.3095 23.9057 68.5996 23.7684C69.8644 23.242 69.1307 20.8846 71.4074 21.2966C71.9892 21.9145 72.7987 22.2807 73.3805 22.8987C73.684 23.5166 73.507 24.3634 74.3924 24.7068C72.9758 26.3089 70.8003 27.0641 69.1055 28.4374C67.613 29.6504 65.8929 27.8652 64.4004 27.1099Z" fill="#FBF8F3"/>
<path d="M97.0578 13.286C96.7036 13.286 96.3748 13.286 96.0206 13.286C95.0847 12.6452 94.604 13.5607 93.8958 13.7666C93.8958 13.9269 93.8958 14.0642 93.8958 14.2244C93.2381 14.5906 92.5045 14.6821 91.7456 14.6364C90.9867 14.5906 91.1891 13.6522 90.5061 13.5378C89.8231 13.6064 89.3172 13.9726 88.7607 14.2244C87.5464 14.8881 86.2057 14.2015 84.9409 14.499C83.9038 14.2244 83.9797 13.6293 84.3844 12.9198C84.5362 12.7367 84.7385 12.5994 84.9409 12.4849C85.5986 12.073 86.3575 12.6452 87.0152 12.3247C91.2397 12.668 95.3376 12.1188 99.2585 10.5853C100.498 10.1047 101.611 10.1733 102.749 10.7913C102.066 12.3705 100.928 13.3547 99.0562 12.3705C97.6143 11.6152 97.5131 12.5994 97.0578 13.286Z" fill="#F7EDE0"/>
<path d="M112.337 70.4812C108.897 69.6344 107.075 71.7629 104.925 73.5481C103.154 75.0129 100.903 75.9055 98.6516 76.6837C98.3986 76.3633 98.2468 75.9055 97.8927 75.7453C95.7425 74.7154 96.5773 74.0059 98.1456 73.3193C98.7022 72.8844 99.2081 71.8545 99.967 72.3809C101.51 73.4337 102.598 72.4953 103.837 71.9918C104.748 71.6256 105.254 70.9161 105.861 70.2066C107.834 67.9408 111.451 68.1467 112.994 70.5041C112.741 70.6872 112.539 70.6643 112.337 70.4812Z" fill="#FAF6F1"/>
<path d="M134.799 48.0289C133.889 48.6697 132.902 49.2877 132.877 50.5007C132.219 51.7595 132.725 53.7507 130.246 53.8194C131.309 50.5923 132.346 47.3423 133.939 44.2754C134.218 44.3211 134.471 44.2754 134.723 44.1838C134.901 44.1152 135.103 44.0694 135.305 44.0694C135.862 44.0923 136.216 44.4356 136.595 44.7789C136.595 45.1222 136.595 45.4426 136.595 45.7859C136.216 46.6557 134.976 46.999 134.799 48.0289Z" fill="#F8F2E8"/>
<path d="M72.2929 79.5446C71.3822 80.5974 70.5222 81.0781 68.7768 80.7119C65.9942 80.1626 63.0598 80.2083 60.176 80.0024C59.746 79.9795 59.3666 79.8879 59.1136 79.5217C58.7595 79.0869 58.633 78.6291 58.9366 78.1256C59.1389 77.9425 59.3919 77.851 59.6702 77.8052C61.1373 77.9425 62.6298 77.851 64.097 77.9654C64.3499 77.9883 64.6029 78.057 64.8306 78.1485C66.4495 79.2013 68.2202 79.1555 70.0921 78.858C70.9269 78.7436 71.9893 78.1485 72.2929 79.5446Z" fill="#F6ECDE"/>
<path d="M130.246 53.7964C133.509 54.9408 132.042 57.4813 132.346 59.5183C131.359 57.8246 129.841 59.564 128.652 59.0376C129.006 57.2524 129.285 55.4443 130.246 53.7964Z" fill="#F8F2E8"/>
<path d="M107.075 56.6573C107.1 57.3211 107.1 57.9848 107.125 58.6257C107.404 59.2207 107.151 59.7013 106.797 60.182C106.442 60.5024 106.063 60.7541 105.532 60.8228C105.279 60.8457 105.051 60.8228 104.798 60.7999C102.952 62.0587 101.004 63.0429 98.626 63.0658C98.0189 62.7225 97.3106 62.4707 97.0576 61.7612C99.5366 60.6855 101.788 58.969 104.773 59.1978C106.999 59.358 105.759 57.0922 107.075 56.6573Z" fill="#F5EEE3"/>
<path d="M114.968 49.0359C116.46 49.0817 118.028 48.7612 119.192 49.9972C116.435 49.3105 115.119 51.3017 113.627 52.675C112.716 53.4989 111.932 53.9109 110.743 53.7964C112.16 52.1943 113.551 50.6151 114.968 49.0359Z" fill="#F7EDE0"/>
<path d="M64.3753 20.9075C65.2354 22.4867 66.5255 24.043 64.5271 25.7596C64.2488 25.9884 64.4259 26.6522 64.3753 27.1099C61.6939 24.1117 61.6939 23.448 64.3753 20.9075Z" fill="#FBF8F3"/>
<path d="M104.444 10.448C106.999 11.3177 109.858 10.1962 112.337 11.455C112.64 11.7297 112.64 12.0043 112.362 12.279C109.883 12.073 107.379 11.9128 104.9 11.661C104.267 11.5924 103.483 11.455 103.356 10.654C103.711 10.5624 104.09 10.5167 104.444 10.448Z" fill="#857F77"/>
<path d="M98.6261 73.8228C98.2973 74.3949 97.5384 74.1432 96.9819 74.5551C98.1455 74.9213 99.385 75.2189 98.6261 76.6837C98.4491 76.6837 98.272 76.6837 98.0949 76.6837C96.6278 77.233 95.2617 77.0956 94.0222 76.1344C93.8451 75.9741 93.744 75.7682 93.6934 75.5622C93.9463 73.8914 95.5906 73.7999 96.8807 73.3192C97.5637 73.2277 98.1708 73.2963 98.6261 73.8228Z" fill="#F8F1E7"/>
<path d="M90.2026 77.1643C90.5568 76.3633 91.7204 75.8826 91.265 74.7841C92.5551 74.1432 93.314 74.7383 93.8958 75.7224C94.6547 76.5235 94.4524 77.3016 93.8958 78.1027C92.8081 78.1714 91.7204 78.2172 90.7338 77.6221C90.5568 77.4848 90.3797 77.3246 90.2026 77.1643Z" fill="#F8F1E7"/>
<path d="M134.344 33.7243C134.395 34.2507 134.42 34.7542 134.471 35.2806C135.204 36.0817 134.8 36.9056 134.496 37.7296C134.597 38.5306 134.294 39.1486 133.51 39.5377C133.13 39.4919 132.827 39.3088 132.649 39.0113C132.422 38.3933 132.928 37.7067 132.396 37.1345C132.548 36.8141 132.725 36.4937 132.877 36.1733C133.307 35.8986 133.282 35.5782 132.953 35.2578C132.877 34.6856 132.852 34.1363 133.459 33.7701C133.737 33.5183 134.015 33.4954 134.344 33.7243Z" fill="#BABABA"/>
<path d="M132.725 40.4074C132.422 41.7577 130.955 42.2613 130.246 43.3141C129.892 43.5887 129.563 43.5887 129.26 43.2683C128.526 41.4602 130.55 41.0253 131.283 39.9496C131.764 40.1327 132.295 40.1328 132.725 40.4074Z" fill="#878787"/>
<path d="M93.8955 78.1027C93.8955 77.3016 93.8955 76.5235 93.8955 75.7224C95.2109 76.3633 96.6528 76.5693 98.0947 76.6608C97.9935 77.4848 97.5129 77.6907 96.6781 77.4619C95.6157 77.1643 94.7303 77.5305 93.8955 78.1027Z" fill="#FAF6F1"/>
<path d="M53.8267 74.8527C55.4203 74.8527 56.9887 74.8527 58.5823 74.8527C58.7088 76.2946 57.5451 76.5464 56.3815 76.821C55.8503 76.7524 55.0661 77.1643 54.8891 76.2717C54.9649 75.5164 54.2567 75.2647 53.8267 74.8527Z" fill="#F6EEE1"/>
<path d="M116.561 66.682C117.421 68.6045 114.613 68.6274 114.462 70.0235C114.36 69.932 114.259 69.8633 114.158 69.7717C113.551 68.696 113.753 67.6661 114.335 66.6362C114.563 66.3387 114.866 66.1098 115.246 66.0182C115.828 65.9953 116.156 66.3616 116.561 66.682Z" fill="#FAF7F3"/>
<path d="M81.7789 12.3248C82.4872 12.1874 83.2208 12.0501 83.9291 11.9128C84.182 12.1645 84.3085 12.485 84.2832 12.8283C84.1062 13.4005 83.6761 13.7895 83.1196 14.0871C82.9172 14.2015 82.6896 14.316 82.4619 14.4075C81.6777 14.6364 80.9188 15.2314 80.0082 14.6821C79.7046 14.2702 79.7046 13.8353 79.9323 13.4005C80.4635 12.9427 81.2224 12.8054 81.7789 12.3248Z" fill="#B5AFA6"/>
<path d="M113.374 6.99203C113.551 7.03781 113.703 7.08357 113.88 7.08357C114.613 7.33533 115.423 7.47266 115.979 8.04484C116.03 8.34238 116.156 8.86878 115.802 8.823C114.158 8.54835 112.235 8.61701 111.729 6.60294C112.286 6.74026 112.843 6.8776 113.374 6.99203Z" fill="#63615E"/>
<path d="M54.8893 76.2717C55.2434 76.7523 55.547 76.3175 55.8758 76.2488C56.23 76.4319 56.6347 76.5464 56.7865 76.9583C56.8118 77.1414 56.8118 77.3245 56.7359 77.5076C56.66 77.5763 56.5842 77.645 56.5336 77.7136C55.2941 77.4848 54.0798 77.0957 52.815 77.4161C52.2838 77.5534 51.702 77.6678 51.6261 77.027C51.5502 76.3633 52.1067 76.4777 52.6633 76.4777C53.3716 76.5235 54.1304 76.3633 54.8893 76.2717Z" fill="#9B9A99"/>
<path d="M71.2305 15.6663C72.8242 16.0096 72.0653 16.8793 71.4834 17.2455C70.6487 17.7719 69.5357 17.9779 69.1562 16.6276C69.8392 16.3071 70.5223 15.9867 71.2305 15.6663Z" fill="#F2E9DC"/>
<path d="M110.186 7.10645C109.301 7.0149 108.34 7.33533 107.556 6.64872C107.631 6.21386 108.365 6.62582 108.39 6.1223C108.188 6.51138 107.884 6.3054 107.631 6.21385C107.328 6.09942 107.126 5.87055 107.024 5.57301C108.34 5.25259 109.579 5.48147 110.743 6.07653C110.541 6.41984 109.908 6.55716 110.186 7.10645Z" fill="#D3D3D2"/>
<path d="M59.1137 78.1027C59.1137 78.5834 59.1137 79.064 59.1137 79.5218C58.1019 79.0869 57.0648 78.6749 56.5336 77.7136L56.4829 77.4848C57.5453 77.027 58.7596 76.0658 59.1137 78.1027Z" fill="#FAF6F1"/>
<path d="M16.4141 31.8476C16.3129 32.7859 16.1864 33.7014 14.8457 34.2278C14.6181 32.9462 15.377 32.2138 15.8829 31.3898C16.4141 31.2525 16.5659 31.4127 16.4141 31.8476Z" fill="#ADADAD"/>
<path d="M16.4142 31.8476C16.2371 31.6874 16.0853 31.5501 15.9082 31.3898C16.6671 30.6574 16.743 29.4215 18.3114 28.8036C18.0331 30.2455 17.5778 31.2067 16.4142 31.8476Z" fill="#B0B0B0"/>
<path d="M134.977 40.9338C134.37 42.3299 136.469 41.895 136.57 42.8334C136.014 43.2912 135.634 43.8862 135.002 44.2753C134.42 44.55 134.243 44.0693 133.965 43.7947C134.319 42.8334 134.243 41.7577 134.977 40.9338Z" fill="#F8F2E8"/>
<path d="M81.7792 12.3247C81.4757 12.9885 80.8433 13.2174 80.135 13.3547C79.7303 13.9269 79.4014 14.5448 78.6931 14.8423C78.2884 14.911 77.9596 14.7966 77.7066 14.5219C77.656 14.4075 77.6307 14.3159 77.5801 14.2015C78.4148 12.5765 80.2868 12.8283 81.7792 12.3247Z" fill="#F5F0E9"/>
<path d="M97.0323 61.7841C97.69 61.9672 98.7777 61.6239 98.55 62.8369C97.8923 63.7524 97.0576 64.0499 95.9951 63.3633C96.1469 63.0429 96.2734 62.6996 96.4252 62.3792C96.6276 62.1732 96.8299 61.9672 97.0323 61.7841Z" fill="#7D7971"/>
<path d="M90.7339 77.6221C91.8216 77.5992 92.9094 77.5305 93.8959 78.1027C92.6564 78.8808 91.594 78.8351 90.7339 77.6221Z" fill="#FAF6F1"/>
<path d="M129.26 43.2683C129.589 43.2912 129.918 43.2912 130.246 43.3141C130.196 44.2983 129.488 44.8704 128.678 45.5113C128.147 44.4585 128.982 43.9321 129.26 43.2683Z" fill="#C4C4C4"/>
<path d="M50.4875 77.1872C49.3745 77.0728 48.6662 76.9813 47.9326 76.9126C47.9579 76.7066 47.9832 76.5235 48.0085 76.3175C48.7421 76.226 49.5263 75.9284 50.4875 77.1872Z" fill="#BABABA"/>
<path d="M134.344 33.7243C134.041 33.7472 133.763 33.7701 133.459 33.793C133.459 33.0606 133.459 32.3282 133.459 31.4814C134.623 32.0765 134.496 32.9004 134.344 33.7243Z" fill="#929292"/>
<path d="M132.725 40.4074C132.219 40.2701 131.334 41.1398 131.258 39.9496L131.283 39.9725C131.764 39.5377 131.916 38.6679 132.927 38.9655C133.104 39.1486 133.307 39.3317 133.484 39.5377C133.256 39.8352 133.003 40.1327 132.725 40.4074Z" fill="#636363"/>
<path d="M76.0113 15.6892C76.2137 15.3916 76.4413 15.0712 76.6437 14.7737C76.9472 14.5906 77.2508 14.4075 77.5796 14.2244L77.5291 14.4304C77.9591 14.7737 78.0856 15.1857 78.035 15.6892C77.858 16.3071 77.4532 16.7191 76.7196 16.7878C76.1125 16.5818 75.986 16.1698 76.0113 15.6892Z" fill="#706D69"/>
<path d="M132.953 38.9884C132.397 39.3317 131.865 39.6521 131.309 39.9954C131.284 38.9426 132.523 38.256 132.371 37.1574C133.282 37.5923 132.498 38.4391 132.953 38.9884Z" fill="#6C6C6C"/>
<path d="M87.0406 12.3477C86.5094 12.9885 85.7252 12.7596 85.0169 12.8283C84.6374 12.485 85.0169 12.073 84.9158 11.7068C85.9782 10.9744 86.3323 12.1646 87.0406 12.3477Z" fill="#F4EBDE"/>
<path d="M134.496 37.7296C134.496 36.9056 134.471 36.0817 134.471 35.2806C135.761 35.7384 135.761 35.8757 134.496 37.7296Z" fill="#9F9F9F"/>
<path d="M14.3144 37.5236C14.2386 37.5923 14.0362 37.9814 13.8085 38.0043C13.1508 38.05 13.3531 37.4778 13.3279 37.1803C13.3026 36.8599 13.5049 36.5395 13.9603 36.6081C14.3903 36.6768 14.3903 36.9972 14.3144 37.5236Z" fill="#8E8E8E"/>
<path d="M88.8617 11.5237C88.7353 11.9128 88.3811 11.8441 88.0776 11.8212C87.774 11.7755 87.3187 11.7984 87.4957 11.3406C87.5463 11.1804 87.9004 11.066 88.1028 11.0431C88.457 11.0202 88.7606 11.1575 88.8617 11.5237Z" fill="#AEAEAC"/>
<path d="M107.05 5.59592C107.631 5.87056 108.213 6.12232 108.795 6.39697C108.39 6.48852 107.986 6.58007 107.606 6.64873C107.48 6.55718 107.328 6.51139 107.176 6.51139C107.075 6.21386 106.316 5.96211 107.05 5.59592Z" fill="#797978"/>
<path d="M112.336 70.4813C112.513 70.4813 112.691 70.4813 112.868 70.4813C113.196 69.7946 113.399 68.7876 114.436 70.0006C113.905 70.7788 113.323 71.3739 112.336 70.4813Z" fill="#FAF7F3"/>
<path d="M46.1366 76.2717C45.7066 76.6608 45.3018 77.2559 44.8971 76.821C44.3406 76.2259 45.1247 76.3404 45.4283 76.2946C45.656 76.2488 45.9089 76.2717 46.1366 76.2717Z" fill="#9C9C9C"/>
<path d="M110.187 7.10647C109.655 6.44274 110.288 6.30541 110.768 6.09943C110.996 6.25964 111.224 6.44274 111.451 6.60295C111.249 7.19802 110.718 7.15225 110.187 7.10647Z" fill="#525252"/>
<path d="M84.9156 11.7068C85.8009 12.0272 85.0673 12.4392 85.0167 12.8283L84.9661 12.8741C84.612 13.0572 84.2579 13.1029 83.8784 12.8969C83.9037 12.5536 83.9037 12.2332 83.929 11.8899C84.2578 11.8441 84.5867 11.7755 84.9156 11.7068Z" fill="#807D77"/>
<path d="M132.953 35.2578C133.712 35.1205 134.066 35.4638 133.863 36.1046C133.686 36.6539 133.231 36.242 132.877 36.1733C132.902 35.8758 132.928 35.5782 132.953 35.2578Z" fill="#636363"/>
<path d="M133.939 43.7947C134.293 43.9549 134.648 44.1151 134.976 44.2753C134.698 44.6186 134.42 44.9391 134.142 45.2824C134.066 44.9391 133.99 44.5958 133.914 44.2753C133.939 44.1151 133.939 43.9549 133.939 43.7947Z" fill="#F4EADD"/>
<path d="M98.0696 14.6821C98.0443 14.5219 98.0696 14.3846 98.0949 14.2473C100.169 13.9497 102.243 13.6522 104.318 13.3318C104.394 13.8811 104.571 14.5906 103.685 14.5906C101.94 14.6135 100.321 15.4832 98.5502 15.0941C98.2972 15.0254 98.1454 14.8881 98.0696 14.6821Z" fill="#958E83"/>
<path d="M124.454 10.4251C125.516 10.6769 126.553 10.9744 127.641 11.1346C129.209 11.3864 128.779 12.0501 128.147 12.8054C126.503 12.5307 124.808 12.3248 124.454 10.4251Z" fill="#F4EADC"/>
<path d="M128.146 12.8054C130.018 12.5994 130.954 13.9955 131.916 14.9339C133.003 15.9867 131.612 16.0554 130.777 16.1241C130.828 15.8265 130.904 15.529 130.954 15.2543C129.184 15.2086 129.209 13.5149 128.146 12.8054Z" fill="#F4EADC"/>
<path d="M118.61 9.0061C120.533 8.22793 121.393 10.1276 122.885 10.4251C122.708 10.5853 122.531 10.7455 122.354 10.9057C121.291 11.1804 120.457 10.4938 119.495 10.3564C118.914 10.0589 118.382 9.73849 118.61 9.0061Z" fill="#F4EADC"/>
<path d="M115.524 11.8212C116.713 12.2561 118.079 11.5466 119.192 12.3019C119.445 12.485 119.47 12.691 119.242 12.9198C117.75 12.9198 116.257 13.08 114.866 12.4392C114.942 12.073 115.17 11.8899 115.524 11.8212Z" fill="#837C71"/>
<path d="M108.694 13.7667C107.379 14.4762 106.139 14.705 105.127 13.3547C106.114 13.3547 107.1 13.3318 108.087 13.3318C108.315 13.4691 108.618 13.492 108.694 13.7667Z" fill="#6E6961"/>
<path d="M115.524 11.8212C115.296 12.0272 115.094 12.2332 114.866 12.4392C114.031 12.3934 113.196 12.3476 112.362 12.3019C112.362 12.0272 112.336 11.7526 112.336 11.4779C113.424 11.3635 114.537 11.249 115.524 11.8212Z" fill="#4A4641"/>
<path d="M119.723 9.94449C120.583 10.2649 121.468 10.5853 122.328 10.9058C120.937 11.7526 119.824 10.8371 118.61 10.448C118.863 10.036 119.445 10.2191 119.723 9.94449Z" fill="#B5AB9D"/>
<path d="M116.004 8.04485C115.094 8.09062 114.436 7.72441 113.905 7.08357C115.068 6.69449 116.055 7.26668 117.067 7.56422C116.713 7.74732 116.358 7.88464 116.004 8.04485Z" fill="#F4EADC"/>
<path d="M119.723 9.94447C119.622 10.5624 119.065 10.4251 118.635 10.4709C118.382 9.99025 116.789 9.85293 118.129 8.93744C118.281 8.98321 118.433 9.0061 118.585 9.02899C118.99 9.32652 119.369 9.62404 119.723 9.94447Z" fill="#4C4843"/>
<path d="M108.694 13.7666C108.492 13.6293 108.289 13.4691 108.087 13.3318C108.795 13.3089 109.504 13.286 110.237 13.2631C110.364 14.0184 109.579 13.904 109.2 14.1786C109.023 14.0413 108.871 13.904 108.694 13.7666Z" fill="#A9A296"/>
<path d="M119.268 12.9198C119.243 12.7138 119.217 12.5079 119.217 12.3019C119.698 12.4392 120.684 12.0272 120.558 12.8512C120.457 13.492 119.723 12.8969 119.268 12.9198Z" fill="#AAA092"/>
<path d="M76.4921 16.4902C77.0234 16.3987 77.4028 16.1698 77.5799 15.6892C77.8581 15.3917 78.187 15.117 78.617 14.9797C79.0976 14.7279 79.553 14.3617 80.1601 14.6593C80.8684 14.3846 81.6019 14.11 82.3102 13.8353L83.1956 17.1082C82.8414 17.4973 82.3356 17.3828 81.8802 17.4744C81.4755 18.0466 80.8178 18.0466 80.1601 18.0695C80.0083 18.2297 79.8565 18.367 79.6795 18.5043C79.6795 18.6874 79.6795 18.8476 79.6795 19.0307C79.5024 19.3283 79.3253 19.6487 79.1482 19.9462C77.8328 20.7244 76.7704 20.8388 76.2898 19.1452C76.1127 18.5272 75.5056 18.1381 75.3032 17.5431C75.3032 16.8564 75.7839 16.5818 76.4921 16.4902Z" fill="#F6ECDE"/>
<path d="M82.8159 17.0166C82.6388 15.9638 82.4617 14.911 82.2847 13.8582C82.4617 13.8353 82.6388 13.8124 82.8159 13.7667C83.7012 13.2402 84.0554 14.705 84.9155 14.2473C85.5226 13.7209 86.0538 13.0571 86.9645 13.904C87.4957 14.3846 88.0522 13.9726 88.5834 13.7667C89.2664 13.4233 90.1012 13.3547 90.683 12.8054C92.5802 12.6909 91.7454 13.4691 91.2142 14.1557C91.2142 14.6135 91.1383 15.0254 90.5565 15.2085C90.2529 15.2085 89.9494 15.2085 89.6458 15.1857C89.317 15.5518 88.8363 15.6434 88.3557 15.735C87.4704 16.0325 86.6356 16.4902 85.6743 16.6276C84.9913 16.8107 84.359 17.154 83.6507 17.2913C83.3724 17.36 83.0182 17.3828 82.8159 17.0166Z" fill="#F2E4D0"/>
<path d="M85.4218 16.2156C86.3071 15.8952 87.2178 15.5747 88.1032 15.2543C88.432 15.4832 88.685 15.7578 88.6344 16.1469C87.6731 16.6962 86.6613 17.1082 85.523 17.1768C85.1435 16.9022 85.1688 16.5589 85.4218 16.2156Z" fill="#888075"/>
<path d="M90.6323 15.1857C90.8347 14.8423 91.0624 14.499 91.29 14.1328C92.1754 14.1557 93.0355 14.1786 93.9209 14.2015C92.9596 14.9339 92.0995 15.918 90.6323 15.1857Z" fill="#A8A094"/>
<path d="M85.4214 16.2156C85.4467 16.536 85.4973 16.8564 85.5226 17.1769C85.042 17.5202 84.4602 17.5431 83.8784 17.5202C83.5748 17.3829 83.5242 17.1997 83.7772 16.9709C84.3337 16.7191 84.8902 16.4674 85.4214 16.2156Z" fill="#59554F"/>
<path d="M83.7774 16.9937C83.8027 17.1768 83.8533 17.3599 83.8786 17.543C83.1703 18.161 82.4873 18.2983 81.8296 17.4744C82.1584 17.3142 82.4619 17.154 82.7908 17.0166C83.1449 16.9937 83.4738 16.9937 83.7774 16.9937Z" fill="#847E74"/>
<path d="M93.8955 13.7667C94.4267 12.9885 95.0338 12.4163 96.0204 13.286C95.2362 13.1716 94.8062 14.3617 93.8955 13.7667Z" fill="#F2E4D0"/>
<path d="M88.6596 16.1698C88.2549 15.9867 88.1284 15.6663 88.1284 15.2772C88.6596 15.2543 89.1909 15.2314 89.7221 15.1856C89.798 15.8951 89.3173 16.1011 88.6596 16.1698Z" fill="#736D64"/>
<path d="M98.0694 14.6821C98.2465 14.8194 98.3983 14.9568 98.5754 15.0941C98.0948 15.4603 97.5888 15.7578 96.9564 15.3916C96.8299 15.323 96.6781 15.0941 96.7287 15.0254C97.007 14.4761 97.5888 14.7737 98.0694 14.6821Z" fill="#6A655C"/>
<path d="M79.6792 18.5043C79.6792 18.2068 79.831 18.0695 80.1598 18.0695C80.1851 18.3899 80.008 18.5272 79.6792 18.5043Z" fill="#635F5A"/>
<path d="M56.4831 77.1415C56.2807 76.8439 56.0783 76.5235 55.876 76.226C57.0902 76.2718 58.0009 75.7911 58.5827 74.8299C62.8577 74.5094 67.1074 74.2119 71.4077 74.2348C72.7737 74.2348 74.2915 74.1432 74.3927 72.3809C75.0757 71.9232 75.3539 70.733 76.644 71.4654C77.3017 71.8545 77.7824 71.4654 78.2377 71.0534C78.7942 70.5728 79.4014 70.1151 79.9326 69.6116C80.5144 69.0394 81.3238 68.7418 82.0321 68.8792C83.2463 69.108 81.1214 70.0693 82.3103 70.4584C82.8416 71.4883 83.3475 72.564 84.9665 72.358C85.0677 73.3651 84.1064 73.388 83.474 73.7542C81.931 74.2348 80.3626 74.6468 78.8196 75.1503C77.8836 75.3792 76.9223 75.5623 76.037 75.9742C74.8228 76.0887 73.6339 76.2946 72.4196 76.3862C71.3572 76.5464 70.32 76.7524 69.2829 77.0957C67.5374 77.7365 65.7161 77.5305 63.9201 77.5992C63.0095 77.645 62.0735 77.5306 61.1629 77.4848C59.5945 77.3246 58.0767 76.9584 56.4831 77.1415Z" fill="#F1E3CF"/>
<path d="M75.4296 17.5659C75.9609 17.8635 76.745 17.9321 76.7956 18.7332C76.8968 20.1522 78.0351 20.0149 79.1229 19.9462C78.8699 21.0677 78.6675 22.0976 76.8209 21.617C75.7585 21.3423 74.5695 22.9673 74.3672 24.7296C73.3553 24.6839 73.153 23.9057 72.7988 23.2877C73.7348 21.823 73.077 20.0149 73.9371 18.5272C74.0636 18.0694 74.2913 17.7033 74.7466 17.4515C74.9996 17.3828 75.2273 17.4286 75.4296 17.5659Z" fill="#F8F1E6"/>
<path d="M135.002 44.2754C134.901 43.2226 135.432 42.7648 136.57 42.8335C136.57 43.4743 136.57 44.1152 136.57 44.7331C136.039 44.5958 135.508 44.4356 135.002 44.2754Z" fill="#F4EADD"/>
<path d="M110.895 14.8881C111.021 14.9797 111.3 15.0712 111.35 15.2314C111.477 15.529 111.199 15.6205 110.92 15.5976C110.769 15.5747 110.566 15.4832 110.516 15.3916C110.389 15.1628 110.49 14.9568 110.895 14.8881Z" fill="#F1E3D0"/>
<path d="M114.436 70.0006C113.678 69.4971 113.323 70.1837 112.868 70.4812C109.63 68.4443 108.77 68.6274 106.038 71.5112C105.507 72.0834 104.622 72.4267 103.913 72.8615C103.635 72.5182 103.382 72.1749 103.18 71.8087C103.154 71.3281 103.382 71.0076 103.812 70.733C104.217 69.314 105.355 68.3527 106.291 67.2541C107.278 66.7735 107.328 64.8967 109.175 65.652C109.352 66.4988 109.58 67.7577 110.465 67.6661C111.401 67.5746 112.792 67.0024 112.59 65.5834C112.514 65.0798 112.716 64.8281 113.248 64.851C113.804 64.8739 113.855 65.3087 113.956 65.6978C114.411 65.8809 114.816 66.0869 114.968 66.5446C114.361 67.6661 114.436 68.8334 114.436 70.0006Z" fill="#F6EDE0"/>
<path d="M95.9952 63.3633C96.8553 63.1802 97.6901 63.02 98.5501 62.8369C99.8655 62.8598 100.447 60.9144 102.269 61.8756C103.053 62.2876 102.699 61.1433 102.876 60.7313C103.432 59.358 104.09 59.2207 104.975 60.5024C105.557 61.0746 105.152 61.5781 104.849 62.0816C104.318 62.8369 103.331 63.226 102.825 64.0271C102.673 64.2102 102.496 64.4161 102.345 64.5992C101.181 65.8123 100.245 67.2084 98.7778 68.1925C98.5501 68.2841 98.3225 68.3298 98.0695 68.307C97.2094 68.101 96.6023 67.5288 96.7035 66.7735C96.9059 65.3316 95.6917 65.5147 94.8569 65.2401C94.5787 64.2559 95.717 63.9584 95.9952 63.2489V63.3633Z" fill="#F1E4D1"/>
<path d="M103.331 71.9003C103.736 72.1063 103.887 72.4725 103.887 72.8615C103.508 72.7471 103.002 72.4496 102.8 72.9989C102.37 74.2805 101.813 74.8298 100.751 73.4337C99.6883 72.0147 99.2076 73.1362 98.6005 73.8228C97.8922 73.8228 97.184 73.8228 96.4757 73.8228C95.8433 73.1133 95.6409 72.4267 96.754 71.9003C97.4117 71.6028 96.6022 71.5112 96.6781 71.3052C96.4757 70.7101 96.6021 70.1837 97.1081 69.7489C97.5634 69.4513 98.0188 69.2682 98.5753 69.52C99.916 70.1837 101.788 69.1996 102.901 70.5957C103.432 70.939 103.053 71.5112 103.331 71.9003Z" fill="#F7EFE3"/>
<path d="M121.823 50.9355C121.873 51.4162 122.025 51.8739 122.531 52.1486C124.504 53.2014 124.099 54.6662 123.416 56.1767C123.087 56.52 122.556 56.6574 122.202 56.9778C121.974 57.1838 121.696 57.3211 121.367 57.2753C121.519 56.7718 119.091 57.2066 120.836 55.719C121.544 55.1239 122.657 52.6521 121.291 50.9127C121.469 50.7525 121.646 50.7525 121.823 50.9355Z" fill="#F6EBDC"/>
<path d="M108.062 64.2102C109.63 62.6538 110.515 62.1961 112.311 62.013C111.982 63.6609 110.085 64.0957 109.276 65.3087C108.087 65.6292 107.682 65.2859 108.062 64.2102Z" fill="#7D776E"/>
<path d="M98.6008 68.0095C99.5873 66.6362 100.625 65.3316 102.37 64.6221C101.915 66.3616 100.802 67.6433 99.1321 68.5359C98.8538 68.4214 98.5502 68.3299 98.6008 68.0095Z" fill="#C0B5A5"/>
<path d="M106.544 67.6433C105.684 68.7647 104.799 69.8862 103.938 71.0077C103.787 70.8932 103.736 70.7788 103.761 70.6644C103.812 70.5499 103.837 70.4813 103.888 70.4813C103.028 68.9707 104.191 68.2841 105.355 67.5975C105.76 67.5517 106.19 66.3845 106.544 67.6433Z" fill="#8C857C"/>
<path d="M106.544 67.6433C106.164 67.1397 105.76 67.6204 105.355 67.5975C106.013 66.3158 106.923 65.1943 108.062 64.2102C108.138 64.8739 108.542 65.2401 109.276 65.3088C109.2 65.4232 109.149 65.5376 109.149 65.675C107.632 65.6063 107.556 67.1397 106.544 67.6433Z" fill="#8D867C"/>
<path d="M121.215 59.2207C120.912 60.2278 120.153 60.8915 119.268 61.4866C118.736 61.3035 118.408 61.0289 118.661 60.4567C119.318 59.7929 119.951 59.1292 120.608 58.4884C121.393 58.351 121.62 58.5799 121.215 59.2207Z" fill="#8F8982"/>
<path d="M117.699 62.8827C117.573 63.9126 116.384 64.3704 116.08 65.3087C115.853 65.4461 115.625 65.5147 115.347 65.4918C114.967 65.3545 114.664 65.1485 114.942 64.7137C115.094 63.844 115.777 63.2947 116.435 62.7225C116.839 62.8369 117.32 62.5852 117.699 62.8827Z" fill="#8E887F"/>
<path d="M121.215 59.2207C121.215 58.8316 120.963 58.6257 120.608 58.4884C120.861 58.0993 121.089 57.6873 121.342 57.2982C121.519 57.138 121.696 56.9778 121.899 56.8176C122.101 56.52 122.43 56.3827 122.733 56.5887C123.315 57.0007 123.163 57.55 122.961 58.0764C122.354 58.4654 121.797 58.8316 121.215 59.2207Z" fill="#8F8A84"/>
<path d="M116.131 58.1679C116.03 59.2208 114.942 59.6785 114.487 60.5253C113.854 60.4567 113.627 60.0447 113.45 59.5641C113.93 58.7401 114.563 58.0764 115.423 57.5271C115.802 57.5958 116.055 57.8017 116.131 58.1679Z" fill="#837C72"/>
<path d="M106.544 59.9989C106.721 59.5411 106.923 59.0834 107.101 58.6485C107.505 58.5341 107.961 58.2365 108.289 58.3281C108.77 58.4883 108.719 59.0147 108.416 59.3123C107.834 59.9073 107.202 60.4337 106.569 60.983C106.215 60.6626 106.24 60.3193 106.544 59.9989Z" fill="#B4AA9B"/>
<path d="M117.699 62.8827C117.244 62.9742 116.763 63.3175 116.435 62.7225C117.016 62.1274 117.573 61.5323 118.155 60.9373C118.585 61.189 118.737 61.601 118.888 62.013C118.484 62.3105 118.079 62.608 117.699 62.8827Z" fill="#6F6A63"/>
<path d="M102.825 64.0499C102.775 62.9742 103.458 62.3563 104.419 61.9214C104.874 62.4021 104.824 62.8598 104.368 63.2947C103.862 63.5464 103.357 63.7982 102.825 64.0499Z" fill="#857D73"/>
<path d="M104.394 63.2947C104.419 62.8369 104.419 62.3792 104.444 61.9214C104.621 61.4408 104.798 60.983 104.975 60.5024C105.152 60.5024 105.355 60.5024 105.532 60.5024C105.962 60.983 105.861 61.4408 105.507 61.8985C105.481 62.5852 105.127 63.0658 104.394 63.2947Z" fill="#BEB3A4"/>
<path d="M98.6006 68.0095C98.7777 68.1925 98.9295 68.3756 99.1065 68.5358C98.9295 68.8563 98.7777 69.1996 98.6006 69.52C98.2717 69.5886 97.9176 69.6802 97.5888 69.7489C97.3358 69.7946 97.1335 69.726 96.9311 69.5658C96.7034 68.9707 96.9311 68.4901 97.3864 68.0552C97.5888 67.9179 97.8417 67.895 98.0694 67.9865C98.2465 68.0094 98.4235 68.0323 98.6006 68.0095Z" fill="#726D67"/>
<path d="M113.45 59.5641C113.93 59.7472 114.335 60.0218 114.487 60.5253C114.031 61.0975 113.627 61.3493 112.969 60.6626C112.185 59.8616 113.298 59.9303 113.45 59.5641Z" fill="#58534D"/>
<path d="M116.131 58.1679C115.903 57.9619 115.651 57.7331 115.423 57.5271C115.676 56.9549 116.081 56.5658 116.662 57.1609C117.295 57.7788 116.814 58.0535 116.131 58.1679Z" fill="#605B55"/>
<path d="M114.942 64.7137C115.195 64.9197 115.448 65.1256 115.701 65.3316C115.802 65.6291 115.827 65.9038 115.448 66.064C115.271 66.2242 115.119 66.3844 114.942 66.5446C114.386 66.476 114.031 66.2013 113.93 65.6978C114.259 65.3774 114.588 65.057 114.942 64.7137Z" fill="#9A948B"/>
<path d="M105.481 61.8985C105.481 61.4408 105.507 60.9831 105.507 60.5024C105.836 60.3422 106.19 60.1591 106.519 59.9989C106.519 60.3194 106.544 60.6398 106.544 60.9831C106.215 61.2806 105.836 61.5781 105.481 61.8985Z" fill="#7C766E"/>
<path d="M121.823 50.9355C121.646 50.9355 121.469 50.9355 121.291 50.9355C120.583 50.6151 119.9 50.2947 119.192 49.9743C120.204 49.9743 121.291 49.8598 121.823 50.9355Z" fill="#F7EDE0"/>
<path d="M118.863 62.013C118.357 61.807 118.155 61.4179 118.129 60.9372C118.306 60.777 118.484 60.6168 118.661 60.4566C118.863 60.7999 119.065 61.1432 119.268 61.4866C119.116 61.6697 118.989 61.8527 118.863 62.013Z" fill="#5F5B55"/>
<path d="M103.913 70.4812C103.938 70.6643 103.938 70.8246 103.963 71.0077C103.761 71.3052 103.559 71.6027 103.356 71.9003C102.42 71.6943 102.952 71.0763 102.926 70.6186C103.255 70.5499 103.584 70.527 103.913 70.4812Z" fill="#53504C"/>
<path d="M71.281 21.4797C70.3956 22.0976 69.232 22.4638 69.7126 23.9286C69.8391 24.3177 68.9538 24.1117 68.5996 23.7684C69.0296 23.0818 69.3079 22.3494 69.0802 21.5712C68.6755 20.1293 69.4091 19.58 70.8762 19.5342C71.0786 19.7631 71.1545 20.0378 71.1798 20.3353C71.2304 20.6099 71.2304 20.9075 71.2557 21.1821C71.281 21.2966 71.281 21.3881 71.281 21.4797Z" fill="#F2E9DC"/>
<path d="M70.6738 20.4268C70.7497 20.1293 70.8003 19.8318 70.8762 19.5342C71.5339 19.0536 72.1915 18.5501 72.8239 18.0695C73.3804 17.8635 73.4817 18.2297 73.5829 18.5959C73.4311 19.6258 73.0517 20.5184 71.7869 20.8159C71.3568 20.8388 70.9774 20.7473 70.6738 20.4268Z" fill="#726D67"/>
<path d="M75.4294 17.5659C75.2523 17.543 75.0752 17.5202 74.9234 17.4973C74.4175 17.3599 74.0886 17.1311 74.3416 16.5818C74.721 16.0096 75.1764 15.529 76.0111 15.6892C76.3906 15.8494 76.5171 16.1469 76.4918 16.4902C76.1376 16.8564 75.7835 17.1997 75.4294 17.5659Z" fill="#7A7771"/>
<path d="M74.3168 16.5818C74.5191 16.8793 74.7214 17.1997 74.8985 17.4973C74.7214 17.8406 74.5444 18.1839 74.3926 18.5272C74.0132 18.8247 73.659 18.779 73.3049 18.4814C73.1531 18.3441 72.976 18.2068 72.8242 18.0695C73.3301 17.5659 73.8361 17.0853 74.3168 16.5818Z" fill="#B4AEA6"/>
<path d="M122.936 58.0764C122.834 57.4813 123.416 56.4285 121.873 56.8176C121.797 55.4443 122.834 56.3141 123.391 56.1996C123.366 56.8405 123.619 57.55 122.936 58.0764Z" fill="#F3E5D1"/>
<path d="M115.423 66.064C115.499 65.8123 115.6 65.5834 115.676 65.3316C115.802 65.3087 115.929 65.3087 116.055 65.3087C116.207 65.7665 116.384 66.2013 116.536 66.6591C116.055 66.6362 115.651 66.4989 115.423 66.064Z" fill="#F6EDE0"/>
<path d="M86.0795 71.6027C85.017 69.4513 87.9261 68.7189 88.2297 67.0024C88.2803 66.682 89.5957 68.1925 90.6834 67.5974C90.7846 67.5974 90.911 67.5746 91.0122 67.5746C91.6952 67.483 92.2517 67.0253 92.96 66.9566C93.213 66.9795 93.4153 67.0939 93.5671 67.277C93.7948 68.9707 92.3782 69.314 91.0881 69.7717C90.3292 69.726 89.5451 69.6573 89.0138 70.2982C88.5838 70.6415 88.2044 71.0305 87.749 71.3281C87.2431 71.6485 86.7119 71.9002 86.0795 71.6027Z" fill="#F0E5D4"/>
<path d="M86.0796 71.6027C86.5602 71.3967 87.0661 71.1679 87.5467 70.9619C88.4321 70.4813 88.761 70.8932 88.938 71.6256C88.938 71.9918 88.7862 72.3351 88.5585 72.6326C87.825 73.5024 86.712 73.7083 85.6243 73.983C85.0678 74.1661 84.6377 74.6238 83.98 74.6009C83.1958 74.395 82.9428 74.0517 83.6764 73.5024C83.727 72.7929 84.9413 73.2048 84.916 72.4267C85.4472 72.2893 85.9531 72.1749 86.0796 71.6027Z" fill="#58544F"/>
<path d="M96.0206 63.2946C96.2736 64.1415 95.2617 64.5306 95.11 65.2401C95.2617 65.6978 95.0088 66.064 94.7052 66.4073C94.4523 66.6591 94.174 66.8193 93.8198 66.9337C93.5922 66.9337 93.3392 66.9109 93.1116 66.8651C92.7321 66.7278 92.5297 66.4989 92.7827 66.1327C93.4151 64.7594 94.604 63.9355 96.0206 63.2946Z" fill="#807C77"/>
<path d="M90.6834 67.5975C90.5316 67.1168 90.0763 66.6591 90.6075 66.1556C91.0375 65.7436 91.4422 65.7894 91.7963 66.27C92.0746 66.5218 92.1252 66.8193 92.024 67.1397C91.7964 67.5746 91.3916 67.7577 90.8857 67.7577C90.8351 67.689 90.7592 67.6432 90.6834 67.5975Z" fill="#F0E5D4"/>
<path d="M91.7456 67.1168C91.7709 66.8193 91.7962 66.5447 91.7962 66.2471C92.125 66.2014 92.4539 66.1556 92.7828 66.1327C92.9851 66.3158 93.2128 66.5218 93.4152 66.7049C93.5416 66.8651 93.5163 67.0024 93.3393 67.1168C93.1622 67.1397 93.0104 67.1626 92.8333 67.1626C92.4792 67.4144 92.0998 67.4601 91.7456 67.1168Z" fill="#9E9991"/>
<path d="M83.9795 74.3721C84.4854 74.2119 84.966 74.0288 85.4719 73.8686C85.5984 73.9601 85.649 74.0746 85.5984 74.1661C85.5478 74.2577 85.4972 74.3263 85.4719 74.3263C84.8648 76.1344 82.7653 76.1344 81.3993 77.0041C80.3368 77.6908 78.9962 77.9196 78.0349 78.9724C77.0737 80.0253 75.6318 78.2629 74.2911 79.064C74.0634 79.2013 74.0128 78.1027 73.7346 77.5992C72.6215 77.8738 73.5575 79.3844 72.2927 79.5446C70.5725 78.6291 69.0295 80.2541 67.2334 79.7735C66.2975 79.5217 65.4628 79.4302 64.9062 78.652C65.6145 77.3017 67.1322 77.9196 68.2453 77.5305C68.5741 77.4161 68.9536 77.3017 69.1307 76.9813C69.1307 76.821 69.1307 76.6837 69.156 76.5235C70.2437 76.2717 71.3315 76.02 72.4192 75.7682C73.6081 76.9813 74.8729 75.4936 76.0871 75.8826C77.1495 75.3791 78.4396 75.4249 79.4767 74.8756C80.9692 74.6239 82.487 74.601 83.9795 74.3721Z" fill="#EEE0CC"/>
<path d="M85.4722 74.3035C85.4722 74.1432 85.4722 74.0059 85.4722 73.8457C86.3575 73.3651 87.2176 72.8844 88.103 72.3809C88.6089 72.0834 89.2413 71.9232 89.4437 71.3052C89.5196 70.939 89.4184 70.5271 89.6713 70.1837C90.0002 69.8404 90.3796 69.6802 90.8856 69.7489C91.948 71.2366 93.5417 70.939 95.1101 70.7559C95.7677 70.7788 96.4001 70.8475 96.8807 71.3281C97.3361 71.6485 97.842 71.9461 98.2721 72.3352C98.525 72.5411 98.6009 72.9302 98.2214 73.1133C98.0443 73.2049 97.6649 73.2277 97.5131 73.1133C95.793 71.7172 96.9566 73.6397 96.5519 73.777C95.6665 74.4179 94.4776 74.6696 93.9211 75.6767C93.0358 75.3563 92.1757 75.0358 91.2903 74.7383C89.2666 75.3562 87.3694 74.8756 85.4722 74.3035Z" fill="#F3E5D1"/>
<path d="M73.3046 18.5043C73.6587 18.5272 74.0382 18.5272 74.3923 18.5501C73.8105 20.1293 75.05 22.1892 72.7987 23.3107C72.2928 22.6927 71.7868 22.0976 71.2556 21.4797L71.1797 21.3652C70.9014 20.8388 71.4327 20.7015 71.7362 20.4497C72.7228 20.0836 72.6469 19.0536 73.3046 18.5043Z" fill="#F2E9DC"/>
<path d="M84.9409 14.2473C83.7266 15.9181 83.6508 13.5378 82.8413 13.7667C83.1955 13.492 83.5243 13.1945 83.8785 12.9198C84.2326 12.9198 84.612 12.8969 84.9662 12.8969C84.7385 13.3318 84.1567 13.7896 84.9409 14.2473Z" fill="#F4EBDE"/>
<path d="M90.7339 12.8054C90.3292 13.6522 89.5196 13.7896 88.6343 13.7667C89.1655 13.1487 89.8991 12.8969 90.7339 12.8054Z" fill="#F4EBDE"/>
<path d="M68.6756 78.0112C67.4108 78.2172 66.146 78.4231 64.9065 78.6291C64.7295 78.6062 64.5777 78.5833 64.4006 78.5376C63.9958 78.3087 63.5658 78.1027 63.5405 77.6221C63.5658 77.4161 63.667 77.233 63.8187 77.0728C65.5895 76.8897 67.4108 77.0728 69.1309 76.5464L69.1057 76.7295C69.5104 77.3017 68.8527 77.5992 68.6756 78.0112Z" fill="#B8AD9D"/>
<path d="M56.4829 77.1414C58.0766 76.7981 59.6449 76.2259 61.2386 77.1414C61.5674 77.4847 61.5421 77.8281 61.2892 78.1943C60.7326 78.3774 60.1761 78.4231 59.6449 78.1713C59.4678 78.1713 59.2908 78.1485 59.1137 78.1256C58.5572 76.7295 57.3683 77.6907 56.4829 77.5076C56.5335 77.3932 56.5335 77.2788 56.4829 77.1414Z" fill="#767067"/>
<path d="M59.645 78.1714C60.1509 78.1256 60.6569 78.0798 61.1628 78.0341C61.9976 77.5076 62.9082 77.439 63.8442 77.7823C64.0465 78.034 64.2236 78.2858 64.426 78.5604C62.8071 78.5147 61.1628 78.9266 59.645 78.1714Z" fill="#CFC5B5"/>
<path d="M80.1346 14.6592C79.6287 14.8423 79.1228 15.0025 78.5916 15.1856C78.3639 14.9797 78.3385 14.7737 78.5156 14.5448C78.6927 13.7666 79.3504 13.492 80.1093 13.3547C80.1345 13.7895 80.1346 14.2244 80.1346 14.6592Z" fill="#736E67"/>
<path d="M78.5411 14.5448C78.5664 14.7508 78.5917 14.9797 78.617 15.1857C78.3893 15.5519 78.0352 15.7121 77.5799 15.6892C77.5546 15.2543 77.5546 14.8424 77.5293 14.4075C77.8581 14.4533 78.187 14.499 78.5411 14.5448Z" fill="#6F6C67"/>
<path d="M83.9798 74.3721C82.8415 75.5622 81.2985 75.3334 79.8313 75.3562C79.1483 75.4936 78.4652 75.6538 78.5158 74.6696C80.1601 74.0288 81.8297 73.4108 83.7016 73.4795C83.8281 73.7542 83.4233 74.189 83.9798 74.3721Z" fill="#716B62"/>
<path d="M75.9608 76.1573C74.5189 76.6608 72.9252 76.6608 71.4833 77.7136C71.1292 76.5922 72.0146 76.2946 72.394 75.7911C73.5829 76.02 74.7466 74.8985 75.9608 75.7225C76.0873 75.814 76.1378 75.9285 76.0872 76.02C76.0619 76.1116 76.0114 76.1573 75.9608 76.1573Z" fill="#867E73"/>
<path d="M75.9609 76.1573C75.9609 75.9971 75.9609 75.8597 75.9609 75.6995C76.4669 74.6467 77.5798 74.8298 78.5158 74.6467C78.794 75.1045 79.3 75.2418 79.8312 75.3334C78.617 75.9055 77.3522 76.2717 75.9609 76.1573Z" fill="#8C8479"/>
<path d="M63.8186 77.7823C62.9585 78.1485 62.0479 78.1714 61.1372 78.034C61.1625 77.7365 61.1878 77.439 61.2131 77.1414C62.0732 76.5922 62.9585 77.2788 63.8186 77.0728C63.8186 77.3017 63.8186 77.5534 63.8186 77.7823Z" fill="#AAA093"/>
<path d="M94.4019 66.1784C94.6295 65.858 94.8825 65.5605 95.1101 65.2401C96.122 65.2401 96.5267 64.1872 97.7409 63.9584C97.5385 65.4232 96.4255 66.8651 98.0697 67.9636C97.918 68.0323 97.7662 68.0781 97.5891 68.101C95.616 68.696 94.7054 67.8492 94.4019 66.1784Z" fill="#F3EBE0"/>
<path d="M96.8554 71.3739C96.1977 71.3968 95.5654 71.4197 94.9077 71.4426C94.7306 71.2366 94.6547 70.9848 94.7053 70.733C95.3124 69.8862 95.8436 68.9021 97.2855 69.5429C97.4373 69.5658 97.5132 69.6345 97.5638 69.7489C96.9061 70.138 96.9819 70.7788 96.8554 71.3739Z" fill="#89847D"/>
<path d="M97.2856 69.5429C96.4762 70.0006 95.6414 70.4584 94.8319 70.9161C93.0612 70.8246 92.53 69.8862 93.2636 68.5587C93.643 67.895 93.4154 67.1855 93.8454 66.5904C94.0225 66.4531 94.1996 66.3158 94.4019 66.1785C95.262 67.094 96.0967 68.0323 97.5892 68.101C97.488 68.5816 97.3868 69.0623 97.2856 69.5429Z" fill="#FBF9F6"/>
<path d="M71.7619 20.4497C71.5848 20.7473 71.3824 21.0677 71.2053 21.3652C70.4212 21.3423 69.8141 21.2508 70.6741 20.4497C71.0283 20.4497 71.4077 20.4497 71.7619 20.4497Z" fill="#9F9B94"/>
<path d="M93.8705 66.6133C93.8452 67.1855 94.3764 67.7577 93.8705 68.3756C92.8081 69.6344 93.8199 70.2982 94.8318 70.939C94.8571 71.1221 94.8824 71.2823 94.9077 71.4654C94.6547 71.4654 94.3259 71.3739 94.1488 71.4654C92.1504 72.564 91.1132 71.8316 90.6326 70.0006C90.5567 69.7947 90.6073 69.6573 90.8097 69.5429C91.6445 68.719 93.2887 68.6045 93.3393 67.1168C93.3646 66.9795 93.3899 66.8422 93.4152 66.7049C93.567 66.6591 93.7187 66.6362 93.8705 66.6133Z" fill="#F3EBE0"/>
<path d="M89.823 70.5728C89.9495 71.0077 90.7337 70.8932 90.6578 71.4654C89.9495 71.6485 89.3424 72.152 88.533 71.9231C88.6342 71.2594 88.3306 70.8932 87.5464 70.939C87.8499 70.5957 88.1535 70.2753 88.4571 69.932C89.1401 69.726 89.5701 70.0006 89.823 70.5728Z" fill="#A0978C"/>
<path d="M89.823 70.5728C89.3676 70.3668 88.9124 70.1608 88.457 69.9548C89.1653 69.4971 89.6965 68.0552 90.8349 69.5429C90.7843 69.7031 90.7084 69.8404 90.6578 70.0006C90.3542 70.1837 90.1012 70.3668 89.823 70.5728Z" fill="#979086"/>
<path d="M91.7458 67.1168C92.0999 67.1168 92.4794 67.1397 92.8335 67.1397C92.3529 67.8263 91.9988 68.7647 90.8857 67.7348C91.1893 67.5288 91.4675 67.3228 91.7458 67.1168Z" fill="#7A746C"/>
<path d="M88.5331 71.9232C89.2161 71.6714 89.8738 71.3281 90.658 71.4654C90.0003 72.2436 89.0896 72.4267 88.103 72.4038C88.2548 72.2436 88.3813 72.0834 88.5331 71.9232Z" fill="#827B71"/>
<path d="M68.6758 78.0112C68.8276 77.5763 68.9793 77.1414 69.1311 76.7066C69.7635 76.6379 70.2694 76.8439 70.6236 77.3703C69.9406 77.5992 69.3082 77.8052 68.6758 78.0112Z" fill="#7E766D"/>
</svg>
