<svg width="1116" height="806" viewBox="0 0 1116 806" fill="none" xmlns="http://www.w3.org/2000/svg">
<path d="M1081.21 523.22C1049.4 553.471 994.925 553.979 947.431 552.227C922.041 605.823 896.576 659.485 871.186 713.081C848.205 682.827 825.15 652.641 802.169 622.387C789.888 606.274 776.98 589.593 757.371 580.101C729.236 566.479 694.293 570.571 662.016 574.204C504.293 591.948 343.506 588.987 187.236 565.515C148.975 559.756 108.899 551.9 80.9102 529.182C36.1127 492.806 37.3018 432.631 41.6693 379.907C48.4855 297.762 55.3033 215.681 62.0429 133.538C63.2571 118.438 64.8334 102.549 74.9914 90.0088C89.8172 71.5667 118.366 65.8226 144.127 61.7747C411.425 19.9402 684.316 4.84968 955.158 16.8969C992.47 18.524 1034.52 22.7557 1056.83 48.0254C1071.5 64.6608 1073.98 86.6144 1075.98 107.412C1085.63 210.822 1095.37 314.23 1105.1 417.638C1108.5 454.376 1110.27 495.639 1081.21 523.22Z" fill="white"/>
<path d="M709.986 544.312L656.811 544.786C621.387 545.124 585.885 545.398 550.453 545.411C585.838 543.581 621.308 542.073 656.7 540.503L709.828 538.211L762.964 536.243L765.717 536.172L766.998 538.347L831.37 650.53L886.66 748.986L914.127 663.445L947.326 562.882L948.745 558.623L953.946 558.488L974.367 558.021C976.445 552.576 978.376 547.395 980.166 542.672C983.171 534.605 986.135 527.968 987.926 523.244C989.947 518.58 991.102 515.887 991.102 515.887C991.102 515.887 990.486 518.696 989.311 523.533C988.059 528.372 986.479 535.298 984.168 543.542C982.905 547.927 981.577 552.767 980.177 557.805L1021.25 556.866L1038.08 556.493L1046.41 556.276C1048.86 556.083 1051.38 556.017 1053.82 555.564C1063.57 554.141 1072.88 550.067 1080 544.101C1087.27 538.261 1092.35 530.465 1094.43 522.227C1095.06 520.067 1095.25 518.373 1095.57 516.156L1095.71 512.581C1095.77 511.93 1095.73 510.372 1095.7 509.268L1095.55 494.983L1094.91 437.778C1094.84 399.784 1094 361.68 1094.08 323.551C1094.08 285.425 1093.78 247.307 1094.16 209.171C1096.53 247.235 1098.21 285.318 1100.2 323.392C1102.34 361.463 1103.48 399.559 1105.16 437.641L1107.49 494.802L1108.09 509.076C1108.12 510.374 1108.22 511.216 1108.19 512.905L1108.13 516.479C1107.89 518.954 1107.66 522.012 1106.88 524.501C1104.32 534.894 1098.07 544.605 1089.08 552.048C1080.17 559.555 1068.6 564.792 1056.25 566.672C1053.2 567.271 1050.07 567.418 1046.94 567.629L1038.45 567.915L1021.63 568.418L976.814 569.714C976.603 570.434 976.391 571.089 976.18 571.809C973.156 582.084 969.613 592.959 966.148 603.896C962.528 614.772 958.908 625.648 955.268 635.745C951.706 645.905 947.97 655.29 944.966 663.357C941.962 671.424 938.997 678.061 937.207 682.784C935.185 687.448 934.029 690.077 934.029 690.077C934.029 690.077 934.645 687.268 935.743 682.433C936.995 677.594 938.498 670.67 940.886 662.424C943.273 654.178 945.776 644.5 948.878 634.287C951.901 624.011 955.445 613.137 958.91 602.2C962.53 591.324 966.15 580.448 969.79 570.351C969.863 570.219 969.86 570.089 969.933 569.958L959.381 570.297L928.295 666.779L894.944 767.346L889.908 782.611L882.113 768.329L820.086 655.111L760.247 543.589L709.986 544.312Z" fill="#3A261B"/>
<path d="M862.501 26.4527C919.415 25.5562 974.024 24.3299 1026.59 23.8064C1040.68 24.4138 1053.97 29.1343 1063.89 36.93C1073.81 44.5309 1080.43 54.9455 1082.47 65.7392C1083.08 68.4513 1083.23 71.1754 1083.37 73.8995C1083.44 76.4958 1083.43 79.0292 1083.5 81.6254C1083.55 86.7551 1083.69 91.8178 1083.74 96.8176C1083.92 106.88 1084.1 116.683 1084.28 126.356C1086.84 280.677 1088.45 383.518 1088.45 383.518C1088.45 383.518 1084.78 280.731 1079.23 126.423C1078.9 116.753 1078.57 106.955 1078.23 96.896C1078.02 91.9002 1077.89 86.8374 1077.68 81.7118C1077.47 76.5212 1077.57 71.4525 1076.3 66.7442C1072.12 47.3677 1050.58 31.171 1026.31 30.8283C974.689 32.2366 919.417 34.4544 862.758 36.3186C805.952 38.4463 747.213 39.7801 687.569 41.657C627.923 43.404 567.356 45.1101 506.715 46.883C385.491 49.713 264.268 52.6078 150.694 55.3036C136.467 55.6089 122.392 55.8452 108.472 56.1425C101.203 56.2018 95.4689 56.416 89.3097 57.9402C83.3018 59.3956 77.6999 61.7497 72.7302 64.8667C62.7142 71.1029 55.6105 80.4458 52.9611 90.3872C52.6873 91.6284 52.2537 92.614 52.1413 94.1757C52.0205 95.4129 51.6871 97.3052 51.6291 98.0211L51.3135 106.473C51.0763 112.065 50.9157 117.655 50.6769 123.182C49.0723 167.39 47.5582 209.193 46.1125 247.746C42.9171 324.926 40.2285 389.232 38.3382 434.227C36.295 479.226 35.0521 504.979 35.0521 504.979C35.0521 504.979 35.3009 479.252 35.7363 434.23C36.4012 389.202 37.3292 324.876 38.4581 247.686C39.2137 209.085 40.0397 167.3 40.8777 123.047C40.9636 117.524 41.1241 111.934 41.2084 106.346L41.3711 97.8984C41.4701 95.8174 41.6759 94.9027 41.7884 93.341C41.831 92.0409 42.3971 90.2724 42.6625 88.7067C45.6335 76.4187 53.9117 65.1616 65.8756 57.316C71.8193 53.3942 78.628 50.3592 85.9258 48.4805C93.0674 46.4761 101.397 45.9995 107.975 45.8932C121.892 45.4661 136.037 44.9681 150.184 44.535C263.822 41.318 385.029 37.839 506.161 34.4269C566.736 33.0454 627.386 31.597 687.043 30.2394C747.007 28.9387 805.66 27.2175 862.501 26.4527Z" fill="#3A261B"/>
<path d="M14.178 520.396C14.5866 515.514 15.075 510.76 15.4887 506.073C18.8002 468.64 22.1975 437.44 24.2301 415.564C26.5704 393.744 27.9285 381.238 27.9285 381.238C27.9285 381.238 27.6427 393.781 27.1413 415.683C26.3339 437.592 25.6933 468.85 24.0678 506.369C23.8834 511.05 23.7025 515.861 23.4468 520.739C23.2659 525.55 22.9422 530.755 23.1352 535.231C23.6375 539.83 24.8282 544.41 26.8566 548.839C28.9599 553.201 32.0505 557.278 35.7429 560.949C43.1293 568.356 53.8965 573.336 65.575 575.111L69.7182 575.523C71.0999 575.682 73.0101 575.567 74.6195 575.655C77.2996 575.715 81.1965 575.484 84.4085 575.4C91.2133 575.158 98.018 574.916 104.977 574.735C132.58 573.822 161.179 572.948 190.159 571.999C219.142 571.18 248.661 570.346 278.102 569.515C307.548 568.814 337.069 568.111 366.056 567.421C395.046 566.862 423.653 566.312 451.265 565.723C506.493 564.741 558.131 564.047 602.357 563.74C646.579 563.304 683.471 563.513 709.258 563.361C735.051 563.469 749.822 563.54 749.822 563.54C749.822 563.54 735.074 564.378 709.322 565.828C683.563 567.018 646.731 569.145 602.546 571.01C558.365 573.004 506.836 574.994 451.555 576.887C423.952 577.801 395.355 578.74 366.373 579.624C337.39 580.443 307.872 581.276 278.43 582.107C248.985 582.808 219.463 583.512 190.477 584.201C161.487 584.761 132.879 585.31 105.268 585.899C98.3834 586.013 91.4987 586.127 84.6923 586.305C81.1727 586.331 78.27 586.537 74.21 586.382C72.4476 586.298 70.9945 586.336 69.0759 586.126L63.3181 585.432C48.8645 582.885 35.9138 576.337 27.2564 567.145C18.373 558.088 13.64 546.78 13.2016 535.815C13.2043 530.034 13.771 525.343 14.178 520.396Z" fill="#3A261B"/>
<path d="M443.49 22.8729C419.632 23.6236 394.093 24.4182 368.629 25.2107C343.159 25.7437 317.612 26.2786 293.748 26.7697C269.884 27.2608 247.538 27.2578 228.412 27.4957C209.286 27.7336 193.362 27.4985 182.189 27.5295C171.013 27.4306 164.661 27.4011 164.661 27.4011C164.661 27.4011 171.003 27.0412 182.159 26.3611C193.318 25.8109 209.21 24.8128 228.32 23.9907C247.433 23.2336 269.749 22.0683 293.606 21.3175C317.54 20.5648 343.004 19.7722 368.467 18.9797C393.937 18.4468 419.484 17.9118 443.348 17.4207C467.212 16.9296 489.559 16.9326 508.684 16.6947C527.81 16.4568 543.735 16.6919 554.907 16.6609C566.083 16.7598 572.435 16.7894 572.435 16.7894C572.435 16.7894 566.093 17.1493 554.937 17.8293C543.778 18.3795 527.888 19.4425 508.776 20.1997C489.663 20.9568 467.347 22.1221 443.49 22.8729Z" fill="#3A261B"/>
</svg>
